SplineFontDB: 3.0
FontName: TengwarAnnatarGlaemscrafuBold
FullName: Tengwar Annatar Glaemscrafu Bold
FamilyName: Tengwar Annatar Glaemscrafu
Weight: Bold
Copyright: Copyright (c) 2004-2005 by Johan Winge,\nModified by Talagan (Benjamin Babut) for Glaemscrafu
Version: 1.20
ItalicAngle: 0
UnderlinePosition: -265
UnderlineWidth: 130
Ascent: 1638
Descent: 410
InvalidEm: 0
sfntRevision: 0x00013333
LayerCount: 2
Layer: 0 1 "Back" 1
Layer: 1 1 "Fore" 0
XUID: [1021 413 -2007676463 15760309]
StyleMap: 0x0020
FSType: 0
OS2Version: 1
OS2_WeightWidthSlopeOnly: 0
OS2_UseTypoMetrics: 0
CreationTime: 1107308894
ModificationTime: 1515332887
PfmFamily: 17
TTFWeight: 700
TTFWidth: 5
LineGap: 0
VLineGap: 0
Panose: 2 0 8 3 0 0 0 0 0 0
OS2TypoAscent: 1638
OS2TypoAOffset: 0
OS2TypoDescent: -410
OS2TypoDOffset: 0
OS2TypoLinegap: 0
OS2WinAscent: 1983
OS2WinAOffset: 0
OS2WinDescent: 1196
OS2WinDOffset: 0
HheadAscent: 1983
HheadAOffset: 0
HheadDescent: -1196
HheadDOffset: 0
OS2SubXSize: 1331
OS2SubYSize: 1433
OS2SubXOff: 0
OS2SubYOff: 286
OS2SupXSize: 1331
OS2SupYSize: 1433
OS2SupXOff: 0
OS2SupYOff: 983
OS2StrikeYSize: 102
OS2StrikeYPos: 530
OS2Vendor: 'PfEd'
OS2CodePages: 00000001.c0d40000
OS2UnicodeRanges: 8000002f.00000008.00000000.00000000
Lookup: 258 0 0 "'kern' Horizontal Kerning in Latin lookup 0" { "'kern' Horizontal Kerning in Latin lookup 0 subtable"  } ['kern' ('DFLT' <'dflt' > 'latn' <'dflt' > ) ]
MarkAttachClasses: 1
DEI: 91125
ShortTable: maxp 16
  1
  0
  215
  156
  3
  0
  0
  2
  0
  1
  1
  0
  64
  0
  0
  0
EndShort
LangName: 1033 "" "" "" "" "" "" "" "" "" "Johan Winge" "" "" "http://home.student.uu.se/jowi4905/fonts/"
GaspTable: 1 65535 2 0
Encoding: UnicodeBmp
UnicodeInterp: none
NameList: AGL For New Fonts
DisplaySize: -48
AntiAlias: 1
FitToEm: 0
WinInfo: 0 24 9
BeginPrivate: 0
EndPrivate
BeginChars: 65539 328

StartChar: uniE018
Encoding: 57368 57368 4
Width: 1302
Flags: W
LayerCount: 2
Fore
SplineSet
706 264 m 0,0,1
 754 264 754 264 780 240 c 128,-1,2
 806 216 806 216 824 210 c 0,3,4
 850 202 850 202 892 202 c 0,5,6
 944 202 944 202 999 225 c 1,7,8
 1032 291 1032 291 1032 365 c 0,9,10
 1032 520 1032 520 911 612 c 0,11,12
 871 643 871 643 832 656 c 0,13,14
 791 670 791 670 744 670 c 0,15,16
 639 670 639 670 518 595 c 0,17,18
 468 564 468 564 447 538 c 0,19,20
 397 477 397 477 387 344 c 0,21,22
 385 325 385 325 379 98 c 0,23,24
 370 -208 370 -208 317 -488 c 0,25,26
 282 -679 282 -679 210 -796 c 0,27,28
 192 -825 192 -825 170 -855 c 0,29,30
 98 -952 98 -952 25 -1000 c 0,31,32
 -8 -1022 -8 -1022 -29 -1022 c 0,33,34
 -47 -1022 -47 -1022 -47 -1005 c 0,35,36
 -47 -981 -47 -981 9 -907 c 0,37,38
 38 -867 38 -867 45 -853 c 0,39,40
 161 -598 161 -598 168 337 c 0,41,42
 169 410 169 410 169 492 c 0,43,44
 169 1004 169 1004 197 1205 c 0,45,46
 208 1285 208 1285 228 1368 c 0,47,48
 290 1612 290 1612 468 1761 c 0,49,50
 523 1807 523 1807 556 1807 c 0,51,52
 573 1807 573 1807 573 1791 c 0,53,54
 573 1761 573 1761 547 1732 c 0,55,56
 506 1686 506 1686 488 1649 c 0,57,58
 423 1522 423 1522 400 1233 c 0,59,60
 387 1074 387 1074 387 749 c 2,61,-1
 387 603 l 1,62,-1
 404 619 l 1,63,64
 511 726 511 726 650 803 c 0,65,66
 803 889 803 889 928 889 c 0,67,68
 1063 889 1063 889 1156 791 c 0,69,70
 1250 691 1250 691 1250 546 c 0,71,72
 1250 350 1250 350 1061 161 c 0,73,74
 884 -16 884 -16 708 -16 c 0,75,76
 547 -16 547 -16 547 109 c 0,77,78
 547 169 547 169 597 218 c 0,79,80
 643 264 643 264 706 264 c 0,0,1
EndSplineSet
EndChar

StartChar: uniEC02
Encoding: 60418 60418 5
Width: 0
Flags: W
LayerCount: 2
Fore
SplineSet
-1769 -228 m 0,0,1
 -1769 -183 -1769 -183 -1702 -125 c 0,2,3
 -1657 -87 -1657 -87 -1630 -83 c 1,4,-1
 -1623 -83 l 1,5,-1
 -1508 -104 l 2,6,7
 -1439 -114 -1439 -114 -1357 -117 c 0,8,9
 -1329 -118 -1329 -118 -1002 -118 c 0,10,11
 -486 -118 -486 -118 -412 -114 c 0,12,13
 -320 -109 -320 -109 -220 -87 c 0,14,15
 -202 -83 -202 -83 -198 -83 c 0,16,17
 -178 -83 -178 -83 -178 -102 c 0,18,19
 -178 -131 -178 -131 -218 -178 c 0,20,21
 -268 -235 -268 -235 -331 -249 c 0,22,23
 -486 -282 -486 -282 -697 -282 c 2,24,-1
 -796 -281 l 1,25,-1
 -1394 -282 l 1,26,27
 -1627 -278 -1627 -278 -1760 -245 c 0,28,29
 -1769 -241 -1769 -241 -1769 -228 c 0,0,1
EndSplineSet
EndChar

StartChar: uniEC43
Encoding: 60483 60483 6
Width: 0
Flags: W
LayerCount: 2
Fore
SplineSet
-1076 1568 m 0,0,1
 -1076 1580 -1076 1580 -999 1658 c 0,2,3
 -935 1721 -935 1721 -923 1721 c 0,4,5
 -906 1721 -906 1721 -822 1633 c 0,6,7
 -769 1577 -769 1577 -769 1568 c 0,8,9
 -769 1553 -769 1553 -854 1471 c 0,10,11
 -913 1414 -913 1414 -923 1414 c 0,12,13
 -936 1414 -936 1414 -1016 1496 c 0,14,15
 -1076 1557 -1076 1557 -1076 1568 c 0,0,1
-1106 1154 m 256,16,17
 -1122 1154 -1122 1154 -1207 1244 c 0,18,19
 -1260 1299 -1260 1299 -1260 1307 c 128,-1,20
 -1260 1315 -1260 1315 -1240 1336 c 2,21,-1
 -1118 1457 l 2,22,23
 -1111 1460 -1111 1460 -1106 1460 c 0,24,25
 -1089 1460 -1089 1460 -1004 1371 c 0,26,27
 -951 1316 -951 1316 -951 1307 c 0,28,29
 -951 1295 -951 1295 -1023 1222 c 0,30,31
 -1090 1154 -1090 1154 -1106 1154 c 256,16,17
-753 1457 m 1,32,-1
 -740 1460 l 2,33,34
 -728 1460 -728 1460 -698 1429 c 2,35,-1
 -659 1389 l 2,36,37
 -589 1320 -589 1320 -587 1313 c 0,38,39
 -586 1311 -586 1311 -586 1307 c 0,40,41
 -586 1296 -586 1296 -658 1223 c 0,42,43
 -725 1154 -725 1154 -741 1154 c 128,-1,44
 -757 1154 -757 1154 -841 1242 c 0,45,46
 -894 1298 -894 1298 -894 1307 c 128,-1,47
 -894 1316 -894 1316 -874 1336 c 2,48,-1
 -753 1457 l 1,32,-1
EndSplineSet
EndChar

StartChar: uniEC53
Encoding: 60499 60499 7
Width: 0
Flags: W
LayerCount: 2
Fore
SplineSet
-1099 1091 m 0,0,1
 -1128 1098 -1128 1098 -1132 1124 c 0,2,3
 -1132 1139 -1132 1139 -1121 1154 c 0,4,5
 -1102 1178 -1102 1178 -871 1384 c 0,6,7
 -647 1583 -647 1583 -577 1630 c 0,8,9
 -545 1651 -545 1651 -519 1651 c 0,10,11
 -457 1651 -457 1651 -444 1599 c 0,12,13
 -442 1591 -442 1591 -442 1583 c 0,14,15
 -442 1546 -442 1546 -486 1504 c 0,16,17
 -540 1453 -540 1453 -777 1292 c 0,18,19
 -1023 1122 -1023 1122 -1078 1097 c 0,20,21
 -1092 1091 -1092 1091 -1099 1091 c 0,0,1
EndSplineSet
EndChar

StartChar: uniEC63
Encoding: 60515 60515 8
Width: 0
Flags: W
LayerCount: 2
Fore
SplineSet
-1128 1307 m 256,0,1
 -1128 1318 -1128 1318 -1053 1395 c 0,2,3
 -988 1460 -988 1460 -975 1460 c 0,4,5
 -959 1460 -959 1460 -874 1372 c 0,6,7
 -821 1316 -821 1316 -821 1307 c 0,8,9
 -821 1292 -821 1292 -906 1209 c 0,10,11
 -965 1153 -965 1153 -975 1153 c 0,12,13
 -989 1153 -989 1153 -1070 1236 c 0,14,15
 -1128 1296 -1128 1296 -1128 1307 c 256,0,1
EndSplineSet
EndChar

StartChar: uniEC83
Encoding: 60547 60547 9
Width: 0
Flags: W
LayerCount: 2
Fore
SplineSet
-944 1602 m 0,0,1
 -938 1652 -938 1652 -860 1713 c 0,2,3
 -770 1783 -770 1783 -682 1792 c 0,4,5
 -673 1793 -673 1793 -665 1793 c 0,6,7
 -570 1793 -570 1793 -518 1720 c 0,8,9
 -486 1675 -486 1675 -486 1619 c 0,10,11
 -486 1373 -486 1373 -987 1187 c 1,12,13
 -888 1224 -888 1224 -1062 1160 c 2,14,-1
 -1196 1110 l 2,15,16
 -1216 1102 -1216 1102 -1225 1102 c 0,17,18
 -1249 1102 -1249 1102 -1253 1126 c 1,19,20
 -1253 1154 -1253 1154 -1134 1215 c 2,21,-1
 -911 1328 l 1,22,23
 -703 1440 -703 1440 -680 1526 c 0,24,25
 -677 1537 -677 1537 -677 1548 c 0,26,27
 -677 1578 -677 1578 -706 1606 c 0,28,29
 -740 1637 -740 1637 -797 1637 c 0,30,31
 -825 1637 -825 1637 -864 1609 c 0,32,33
 -899 1583 -899 1583 -925 1583 c 0,34,35
 -945 1583 -945 1583 -944 1602 c 0,0,1
EndSplineSet
EndChar

StartChar: uniEC01
Encoding: 60417 60417 10
Width: 0
Flags: W
LayerCount: 2
Fore
SplineSet
-1108 -227 m 0,0,1
 -1108 -181 -1108 -181 -1039 -124 c 0,2,3
 -989 -83 -989 -83 -964 -83 c 0,4,5
 -956 -83 -956 -83 -928 -95 c 0,6,7
 -893 -110 -893 -110 -835 -116 c 0,8,9
 -822 -118 -822 -118 -584 -118 c 0,10,11
 -345 -118 -345 -118 -307 -112 c 0,12,13
 -278 -108 -278 -108 -237 -92 c 0,14,15
 -217 -83 -217 -83 -206 -83 c 0,16,17
 -187 -83 -187 -83 -187 -102 c 0,18,19
 -187 -132 -187 -132 -232 -183 c 0,20,21
 -264 -219 -264 -219 -300 -237 c 0,22,23
 -401 -288 -401 -288 -619 -283 c 2,24,-1
 -711 -281 l 1,25,26
 -958 -281 -958 -281 -990 -277 c 0,27,28
 -1017 -274 -1017 -274 -1061 -259 c 0,29,30
 -1103 -245 -1103 -245 -1107 -235 c 0,31,32
 -1108 -232 -1108 -232 -1108 -227 c 0,0,1
EndSplineSet
EndChar

StartChar: uni6028
Encoding: 24616 24616 11
Width: 0
Flags: W
LayerCount: 2
Fore
SplineSet
-991 -614 m 0,0,1
 -1004 -614 -1004 -614 -1084 -533 c 0,2,3
 -1144 -472 -1144 -472 -1144 -461 c 0,4,5
 -1144 -447 -1144 -447 -1067 -369 c 0,6,7
 -1004 -306 -1004 -306 -991 -306 c 0,8,9
 -979 -306 -979 -306 -901 -384 c 0,10,11
 -838 -447 -838 -447 -838 -460 c 0,12,13
 -838 -478 -838 -478 -928 -563 c 0,14,15
 -982 -614 -982 -614 -991 -614 c 0,0,1
EndSplineSet
EndChar

StartChar: uni6029
Encoding: 24617 24617 12
Width: 0
Flags: W
LayerCount: 2
Fore
SplineSet
-339 1710 m 0,0,1
 -149 1710 -149 1710 -41 1793 c 1,2,-1
 23 1846 l 2,3,4
 45 1860 45 1860 65 1860 c 0,5,6
 82 1860 82 1860 83 1842 c 0,7,8
 83 1807 83 1807 23 1743 c 0,9,10
 -85 1628 -85 1628 -253 1577 c 0,11,12
 -353 1547 -353 1547 -462 1547 c 0,13,14
 -598 1547 -598 1547 -842 1597 c 0,15,16
 -1079 1647 -1079 1647 -1176 1656 c 0,17,18
 -1233 1662 -1233 1662 -1284 1662 c 0,19,20
 -1469 1662 -1469 1662 -1574 1580 c 2,21,-1
 -1637 1528 l 2,22,23
 -1659 1512 -1659 1512 -1681 1512 c 0,24,25
 -1699 1512 -1699 1512 -1699 1531 c 0,26,27
 -1699 1587 -1699 1587 -1566 1691 c 0,28,29
 -1394 1824 -1394 1824 -1156 1825 c 0,30,31
 -1016 1825 -1016 1825 -774 1774 c 0,32,33
 -542 1725 -542 1725 -449 1716 c 0,34,35
 -391 1710 -391 1710 -339 1710 c 0,0,1
EndSplineSet
EndChar

StartChar: uni602A
Encoding: 24618 24618 13
Width: 1241
Flags: W
LayerCount: 2
Fore
SplineSet
166 448 m 2,0,1
 166 875 166 875 433 1256 c 0,2,3
 592 1482 592 1482 798 1632 c 1,4,5
 953 1738 953 1738 1035 1746 c 0,6,7
 1060 1746 1060 1746 1062 1730 c 0,8,9
 1062 1701 1062 1701 994 1652 c 0,10,11
 973 1637 973 1637 947 1622 c 0,12,13
 677 1465 677 1465 540 1227 c 0,14,15
 524 1200 524 1200 510 1171 c 0,16,17
 384 913 384 913 384 631 c 0,18,19
 384 415 384 415 493 283 c 0,20,21
 589 167 589 167 730 167 c 0,22,23
 826 167 826 167 898 201 c 0,24,25
 927 214 927 214 935 229 c 0,26,27
 961 278 961 278 961 353 c 0,28,29
 961 439 961 439 921 492 c 0,30,31
 893 530 893 530 889 541 c 0,32,33
 881 560 881 560 881 585 c 0,34,35
 881 646 881 646 928 696 c 0,36,37
 975 744 975 744 1040 744 c 0,38,39
 1120 744 1120 744 1158 660 c 0,40,41
 1180 610 1180 610 1180 541 c 0,42,43
 1180 393 1180 393 1064 238 c 0,44,45
 949 82 949 82 781 4 c 0,46,47
 663 -51 663 -51 547 -51 c 0,48,49
 381 -51 381 -51 275 87 c 0,50,51
 168 225 168 225 166 440 c 2,52,-1
 166 448 l 2,0,1
EndSplineSet
EndChar

StartChar: uniEBD8
Encoding: 60376 60376 14
Width: 696
Flags: W
LayerCount: 2
Fore
SplineSet
-212 -14 m 1,0,-1
 -606 -23 l 2,1,2
 -632 -23 -632 -23 -636 -13 c 0,3,4
 -637 -9 -637 -9 -637 -3 c 0,5,6
 -637 30 -637 30 -585 90 c 0,7,8
 -525 158 -525 158 -471 170 c 1,9,-1
 -167 179 l 2,10,11
 -137 180 -137 180 -77 180 c 0,12,13
 150 180 150 180 262 157 c 0,14,15
 548 101 548 101 605 -130 c 0,16,17
 610 -152 610 -152 614 -177 c 0,18,19
 616 -195 616 -195 616 -222 c 0,20,21
 616 -384 616 -384 487 -535 c 0,22,23
 377 -662 377 -662 234 -717 c 0,24,25
 162 -744 162 -744 98 -744 c 0,26,27
 -102 -744 -102 -744 -196 -606 c 0,28,29
 -242 -539 -242 -539 -244 -474 c 0,30,31
 -244 -391 -244 -391 -167 -294 c 0,32,33
 -103 -215 -103 -215 -47 -198 c 0,34,35
 -36 -195 -36 -195 -27 -195 c 0,36,37
 -8 -195 -8 -195 -8 -215 c 0,38,39
 -8 -236 -8 -236 -30 -267 c 0,40,41
 -49 -294 -49 -294 -49 -316 c 0,42,43
 -49 -390 -49 -390 16 -458 c 0,44,45
 106 -550 106 -550 246 -550 c 0,46,47
 319 -550 319 -550 371 -524 c 0,48,49
 384 -518 384 -518 388 -512 c 0,50,51
 411 -481 411 -481 420 -412 c 0,52,53
 422 -395 422 -395 422 -379 c 0,54,55
 422 -257 422 -257 339 -160 c 0,56,57
 266 -75 266 -75 154 -46 c 0,58,59
 27 -14 27 -14 -212 -14 c 1,0,-1
EndSplineSet
EndChar

StartChar: uniE027
Encoding: 57383 57383 15
Width: 1239
Flags: W
LayerCount: 2
Fore
SplineSet
247 128 m 0,0,1
 179 128 179 128 141 192 c 0,2,3
 109 245 109 245 109 334 c 0,4,5
 109 523 109 523 264 689 c 0,6,7
 393 827 393 827 568 889 c 0,8,9
 664 924 664 924 749 924 c 0,10,11
 899 924 899 924 1006 834 c 0,12,13
 1122 737 1122 737 1123 584 c 0,14,15
 1123 348 1123 348 962 126 c 1,16,17
 1123 19 1123 19 1123 -161 c 0,18,19
 1123 -320 1123 -320 1014 -484 c 0,20,21
 893 -666 893 -666 642 -836 c 0,22,23
 547 -900 547 -900 483 -930 c 0,24,25
 421 -961 421 -961 385 -961 c 0,26,27
 360 -961 360 -961 359 -946 c 0,28,29
 359 -911 359 -911 462 -842 c 2,30,-1
 666 -713 l 1,31,32
 808 -617 808 -617 853 -540 c 0,33,34
 905 -450 905 -450 905 -348 c 0,35,36
 905 -185 905 -185 767 -94 c 0,37,38
 749 -83 749 -83 730 -73 c 0,39,40
 718 -67 718 -67 718 -55 c 0,41,42
 720 -28 720 -28 755 20 c 1,43,-1
 788 58 l 1,44,45
 883 160 883 160 902 345 c 0,46,47
 905 376 905 376 905 403 c 0,48,49
 905 529 905 529 806 616 c 0,50,51
 705 705 705 705 560 705 c 0,52,53
 451 705 451 705 382 667 c 0,54,55
 359 654 359 654 353 642 c 0,56,57
 326 587 326 587 326 519 c 0,58,59
 326 435 326 435 366 382 c 0,60,61
 394 344 394 344 399 332 c 0,62,63
 407 312 407 312 407 287 c 0,64,65
 407 224 407 224 357 174 c 0,66,67
 311 128 311 128 247 128 c 0,0,1
EndSplineSet
EndChar

StartChar: colon
Encoding: 58 58 16
Width: 487
Flags: MW
LayerCount: 2
Fore
SplineSet
107 698 m 2,0,1
 107 710 107 710 180 784 c 0,2,3
 246 851 246 851 261 851 c 0,4,5
 275 851 275 851 360 762 c 0,6,7
 414 705 414 705 414 697 c 0,8,9
 414 683 414 683 330 602 c 0,10,11
 270 544 270 544 260 544 c 0,12,13
 245 544 245 544 164 628 c 0,14,15
 107 687 107 687 107 697 c 2,16,-1
 107 698 l 2,0,1
259 22 m 2,17,18
 246 22 246 22 165 105 c 0,19,20
 107 164 107 164 107 175 c 2,21,-1
 107 176 l 2,22,23
 107 185 107 185 178 258 c 0,24,25
 245 328 245 328 261 328 c 0,26,27
 276 328 276 328 360 240 c 0,28,29
 414 184 414 184 414 175 c 0,30,31
 414 161 414 161 330 79 c 0,32,33
 271 22 271 22 261 22 c 2,34,-1
 260 22 l 1,35,-1
 259 22 l 2,17,18
EndSplineSet
EndChar

StartChar: uniE02B
Encoding: 57387 57387 17
Width: 1112
Flags: W
LayerCount: 2
Fore
SplineSet
489 -16 m 0,0,1
 341 -16 341 -16 237 83 c 0,2,3
 132 184 132 184 128 332 c 1,4,-1
 128 342 l 2,5,6
 128 567 128 567 364 762 c 1,7,-1
 374 771 l 1,8,9
 504 875 504 875 632 887 c 1,10,-1
 661 888 l 1,11,12
 838 888 838 888 949 776 c 0,13,14
 1049 675 1049 675 1049 527 c 0,15,16
 1049 395 1049 395 942 249 c 0,17,18
 835 104 835 104 686 32 c 0,19,20
 585 -16 585 -16 489 -16 c 0,0,1
831 344 m 0,21,22
 831 473 831 473 741 566 c 0,23,24
 639 670 639 670 477 670 c 0,25,26
 428 670 428 670 383 651 c 0,27,28
 370 646 370 646 368 641 c 2,29,-1
 362 627 l 2,30,31
 345 582 345 582 345 525 c 0,32,33
 345 414 345 414 421 322 c 0,34,35
 503 221 503 221 632 204 c 0,36,37
 646 202 646 202 672 202 c 0,38,39
 750 202 750 202 795 226 c 0,40,41
 808 232 808 232 811 239 c 0,42,43
 831 285 831 285 831 344 c 0,21,22
EndSplineSet
EndChar

StartChar: uni602F
Encoding: 24623 24623 18
Width: 0
Flags: W
LayerCount: 2
Fore
SplineSet
-970 -801 m 0,0,1
 -893 -801 -893 -801 -737 -834 c 0,2,3
 -596 -864 -596 -864 -519 -864 c 0,4,5
 -423 -864 -423 -864 -375 -821 c 0,6,7
 -345 -794 -345 -794 -342 -792 c 0,8,9
 -326 -782 -326 -782 -305 -782 c 128,-1,10
 -284 -782 -284 -782 -284 -801 c 0,11,12
 -284 -832 -284 -832 -333 -888 c 0,13,14
 -424 -991 -424 -991 -560 -1019 c 0,15,16
 -603 -1028 -603 -1028 -648 -1028 c 0,17,18
 -732 -1027 -732 -1027 -889 -994 c 0,19,20
 -1024 -965 -1024 -965 -1098 -965 c 0,21,22
 -1196 -965 -1196 -965 -1246 -1009 c 0,23,24
 -1276 -1036 -1276 -1036 -1281 -1038 c 0,25,26
 -1296 -1047 -1296 -1047 -1316 -1047 c 0,27,28
 -1335 -1047 -1335 -1047 -1335 -1029 c 0,29,30
 -1335 -998 -1335 -998 -1286 -942 c 0,31,32
 -1195 -839 -1195 -839 -1058 -810 c 0,33,34
 -1015 -801 -1015 -801 -970 -801 c 0,0,1
EndSplineSet
EndChar

StartChar: uni6030
Encoding: 24624 24624 19
Width: 0
Flags: W
LayerCount: 2
Fore
SplineSet
-188 1747 m 0,0,1
 -92 1747 -92 1747 -41 1791 c 0,2,3
 -11 1818 -11 1818 -5 1821 c 0,4,5
 9 1829 9 1829 27 1829 c 0,6,7
 47 1829 47 1829 47 1811 c 0,8,9
 47 1778 47 1778 -3 1722 c 0,10,11
 -94 1619 -94 1619 -232 1592 c 0,12,13
 -273 1584 -273 1584 -316 1584 c 0,14,15
 -397 1584 -397 1584 -551 1617 c 0,16,17
 -691 1646 -691 1646 -769 1646 c 0,18,19
 -860 1646 -860 1646 -900 1612 c 0,20,21
 -952 1565 -952 1565 -985 1565 c 0,22,23
 -1003 1565 -1003 1565 -1003 1583 c 0,24,25
 -1003 1614 -1003 1614 -954 1670 c 0,26,27
 -863 1773 -863 1773 -726 1801 c 0,28,29
 -683 1810 -683 1810 -639 1810 c 0,30,31
 -556 1810 -556 1810 -401 1776 c 0,32,33
 -263 1747 -263 1747 -188 1747 c 0,0,1
EndSplineSet
EndChar

StartChar: uniE000
Encoding: 57344 57344 20
Width: 1415
Flags: W
LayerCount: 2
Fore
SplineSet
38 579 m 0,0,1
 21 579 21 579 21 598 c 0,2,3
 21 638 21 638 97 717 c 0,4,5
 174 797 174 797 259 838 c 0,6,7
 330 871 330 871 391 871 c 0,8,9
 461 871 461 871 487 797 c 0,10,11
 494 777 494 777 499 749 c 1,12,-1
 499 676 l 1,13,-1
 500 603 l 1,14,-1
 516 619 l 2,15,16
 631 731 631 731 771 808 c 0,17,18
 918 889 918 889 1038 889 c 0,19,20
 1178 889 1178 889 1272 788 c 0,21,22
 1363 689 1363 689 1363 544 c 0,23,24
 1363 425 1363 425 1280 292 c 0,25,26
 1236 223 1236 223 1174 161 c 0,27,28
 1001 -12 1001 -12 830 -16 c 1,29,-1
 820 -16 l 2,30,31
 662 -16 662 -16 660 105 c 0,32,33
 660 188 660 188 730 235 c 0,34,35
 772 264 772 264 819 264 c 0,36,37
 856 264 856 264 892 239 c 0,38,39
 933 210 933 210 971 205 c 0,40,41
 987 202 987 202 1006 202 c 0,42,43
 1103 202 1103 202 1119 239 c 0,44,45
 1145 296 1145 296 1145 363 c 0,46,47
 1145 513 1145 513 1032 606 c 0,48,49
 1021 616 1021 616 1009 624 c 0,50,51
 942 671 942 671 855 671 c 0,52,53
 750 671 750 671 629 594 c 0,54,55
 583 566 583 566 562 542 c 0,56,57
 512 484 512 484 501 359 c 0,58,59
 499 334 499 334 492 113 c 0,60,61
 483 -184 483 -184 435 -460 c 0,62,63
 399 -661 399 -661 335 -776 c 0,64,65
 291 -854 291 -854 219 -930 c 0,66,67
 148 -1005 148 -1005 97 -1020 c 0,68,69
 89 -1022 89 -1022 83 -1022 c 0,70,71
 66 -1022 66 -1022 66 -1005 c 0,72,73
 66 -978 66 -978 90 -948 c 0,74,75
 133 -898 133 -898 154 -854 c 0,76,77
 193 -772 193 -772 218 -631 c 0,78,79
 262 -379 262 -379 273 -82 c 0,80,81
 282 133 282 133 282 468 c 0,82,83
 282 607 282 607 247 639 c 0,84,85
 232 653 232 653 209 653 c 0,86,87
 155 653 155 653 112 617 c 0,88,89
 78 588 78 588 62 583 c 0,90,91
 51 579 51 579 38 579 c 0,0,1
EndSplineSet
EndChar

StartChar: uniE004
Encoding: 57348 57348 21
Width: 2045
Flags: W
LayerCount: 2
Fore
SplineSet
38 579 m 0,0,1
 21 579 21 579 21 598 c 0,2,3
 21 638 21 638 97 717 c 0,4,5
 174 797 174 797 259 838 c 0,6,7
 330 871 330 871 391 871 c 0,8,9
 476 871 476 871 496 764 c 0,10,11
 499 749 499 749 499 685 c 2,12,-1
 500 620 l 1,13,-1
 523 643 l 2,14,15
 681 797 681 797 833 858 c 0,16,17
 897 886 897 886 973 888 c 0,18,19
 979 888 979 888 984 888 c 0,20,21
 1126 888 1126 888 1215 747 c 0,22,23
 1254 684 1254 684 1261 636 c 0,24,25
 1265 636 1265 636 1285 659 c 0,26,27
 1336 715 1336 715 1428 778 c 0,28,29
 1586 888 1586 888 1714 888 c 0,30,31
 1853 888 1853 888 1938 758 c 0,32,33
 1950 740 1950 740 1959 722 c 0,34,35
 1998 645 1998 645 1998 554 c 0,36,37
 1998 383 1998 383 1862 217 c 0,38,39
 1819 164 1819 164 1763 115 c 0,40,41
 1608 -13 1608 -13 1477 -16 c 0,42,43
 1320 -16 1320 -16 1320 106 c 0,44,45
 1320 189 1320 189 1391 236 c 0,46,47
 1433 264 1433 264 1478 264 c 0,48,49
 1518 264 1518 264 1553 238 c 0,50,51
 1591 210 1591 210 1624 205 c 0,52,53
 1642 202 1642 202 1663 202 c 0,54,55
 1727 202 1727 202 1743 223 c 0,56,57
 1747 227 1747 227 1752 239 c 0,58,59
 1780 300 1780 300 1780 370 c 0,60,61
 1780 492 1780 492 1705 581 c 0,62,63
 1684 606 1684 606 1660 624 c 0,64,65
 1600 670 1600 670 1530 670 c 0,66,67
 1449 670 1449 670 1382 624 c 0,68,69
 1352 604 1352 604 1335 578 c 0,70,71
 1302 528 1302 528 1252 413 c 0,72,73
 1213 323 1213 323 1178 271 c 0,74,75
 1108 165 1108 165 1006 85 c 0,76,77
 900 2 900 2 795 -15 c 0,78,79
 787 -16 787 -16 767 -16 c 0,80,81
 602 -11 602 -11 598 105 c 0,82,83
 598 152 598 152 631 199 c 0,84,85
 677 264 677 264 761 264 c 0,86,87
 796 264 796 264 831 239 c 0,88,89
 871 209 871 209 910 204 c 0,90,91
 925 202 925 202 943 202 c 0,92,93
 1005 202 1005 202 1018 220 c 0,94,95
 1022 225 1022 225 1027 236 c 0,96,97
 1052 296 1052 296 1052 367 c 0,98,99
 1052 473 1052 473 989 563 c 0,100,101
 913 671 913 671 796 671 c 0,102,103
 703 671 703 671 609 601 c 0,104,105
 592 589 592 589 580 577 c 0,106,107
 512 509 512 509 501 379 c 0,108,109
 499 352 499 352 497 249 c 0,110,111
 485 -300 485 -300 406 -597 c 0,112,113
 393 -646 393 -646 378 -684 c 0,114,115
 322 -831 322 -831 206 -944 c 0,116,117
 127 -1021 127 -1021 83 -1022 c 0,118,119
 66 -1022 66 -1022 66 -1005 c 0,120,121
 66 -978 66 -978 90 -948 c 0,122,123
 133 -898 133 -898 154 -854 c 0,124,125
 193 -772 193 -772 218 -631 c 0,126,127
 262 -379 262 -379 273 -82 c 0,128,129
 282 133 282 133 282 468 c 0,130,131
 282 607 282 607 247 639 c 0,132,133
 232 653 232 653 209 653 c 0,134,135
 155 653 155 653 112 617 c 0,136,137
 78 588 78 588 62 583 c 0,138,139
 51 579 51 579 38 579 c 0,0,1
EndSplineSet
EndChar

StartChar: uniE008
Encoding: 57352 57352 22
Width: 1302
Flags: W
LayerCount: 2
Fore
SplineSet
707 264 m 0,0,1
 755 264 755 264 781 240 c 128,-1,2
 807 216 807 216 825 210 c 0,3,4
 851 202 851 202 893 202 c 0,5,6
 945 202 945 202 1000 225 c 1,7,8
 1033 291 1033 291 1033 365 c 0,9,10
 1033 506 1033 506 932 596 c 0,11,12
 869 653 869 653 790 667 c 0,13,14
 769 671 769 671 746 671 c 0,15,16
 636 671 636 671 523 598 c 0,17,18
 474 567 474 567 454 540 c 0,19,20
 408 478 408 478 393 382 c 0,21,22
 377 284 377 284 368 254 c 0,23,24
 337 157 337 157 243 63 c 0,25,26
 174 -6 174 -6 129 -15 c 0,27,28
 124 -16 124 -16 120 -16 c 0,29,30
 103 -16 103 -16 103 1 c 0,31,32
 103 30 103 30 123 53 c 0,33,34
 152 86 152 86 162 130 c 0,35,36
 168 158 168 158 171 197 c 0,37,38
 173 227 173 227 173 569 c 0,39,40
 174 811 174 811 182 961 c 0,41,42
 197 1254 197 1254 244 1407 c 0,43,44
 301 1592 301 1592 441 1731 c 0,45,46
 518 1808 518 1808 561 1808 c 0,47,48
 579 1808 579 1808 579 1790 c 0,49,50
 579 1756 579 1756 513 1679 c 0,51,52
 501 1666 501 1666 499 1662 c 0,53,54
 394 1481 394 1481 394 847 c 0,55,56
 393 774 393 774 393 659 c 2,57,-1
 392 604 l 1,58,-1
 413 624 l 2,59,60
 548 756 548 756 699 829 c 0,61,62
 823 889 823 889 930 889 c 0,63,64
 1066 889 1066 889 1159 790 c 0,65,66
 1251 691 1251 691 1251 546 c 0,67,68
 1251 350 1251 350 1062 161 c 0,69,70
 885 -16 885 -16 708 -16 c 0,71,72
 549 -16 549 -16 549 108 c 0,73,74
 549 169 549 169 597 218 c 0,75,76
 643 264 643 264 707 264 c 0,0,1
EndSplineSet
EndChar

StartChar: uniE00C
Encoding: 57356 57356 23
Width: 1933
Flags: W
LayerCount: 2
Fore
SplineSet
941 367 m 0,0,1
 941 472 941 472 878 561 c 0,2,3
 802 670 802 670 684 670 c 0,4,5
 597 670 597 670 508 608 c 0,6,7
 484 592 484 592 473 579 c 0,8,9
 415 512 415 512 398 413 c 2,10,-1
 379 297 l 1,11,12
 352 172 352 172 243 63 c 0,13,14
 174 -6 174 -6 129 -15 c 0,15,16
 124 -16 124 -16 120 -16 c 0,17,18
 103 -16 103 -16 103 1 c 0,19,20
 103 30 103 30 123 53 c 0,21,22
 152 86 152 86 162 130 c 0,23,24
 168 158 168 158 171 197 c 0,25,26
 173 227 173 227 173 569 c 0,27,28
 174 811 174 811 182 961 c 0,29,30
 197 1254 197 1254 244 1407 c 0,31,32
 301 1592 301 1592 441 1731 c 0,33,34
 518 1808 518 1808 561 1808 c 0,35,36
 579 1808 579 1808 579 1790 c 0,37,38
 579 1756 579 1756 513 1679 c 0,39,40
 501 1666 501 1666 499 1662 c 0,41,42
 394 1481 394 1481 394 821 c 0,43,44
 393 733 393 733 393 642 c 1,45,-1
 392 622 l 1,46,-1
 417 647 l 2,47,48
 555 785 555 785 699 848 c 0,49,50
 790 888 790 888 868 888 c 0,51,52
 1002 888 1002 888 1092 764 c 0,53,54
 1141 697 1141 697 1148 644 c 0,55,56
 1149 639 1149 639 1149 636 c 1,57,58
 1150 636 1150 636 1200 683 c 0,59,60
 1419 888 1419 888 1602 888 c 0,61,62
 1723 888 1723 888 1806 786 c 0,63,64
 1886 688 1886 688 1886 552 c 0,65,66
 1886 408 1886 408 1771 247 c 0,67,68
 1668 103 1668 103 1534 30 c 0,69,70
 1470 -4 1470 -4 1411 -14 c 0,71,72
 1396 -16 1396 -16 1368 -16 c 0,73,74
 1208 -16 1208 -16 1208 105 c 0,75,76
 1208 164 1208 164 1254 214 c 128,-1,77
 1300 264 1300 264 1366 264 c 0,78,79
 1405 264 1405 264 1441 239 c 0,80,81
 1479 211 1479 211 1512 205 c 0,82,83
 1530 202 1530 202 1552 202 c 0,84,85
 1622 202 1622 202 1635 228 c 1,86,87
 1629 216 1629 216 1640 238 c 0,88,89
 1668 301 1668 301 1668 372 c 0,90,91
 1668 449 1668 449 1633 520 c 0,92,93
 1584 619 1584 619 1493 655 c 0,94,95
 1456 670 1456 670 1418 670 c 0,96,97
 1361 670 1361 670 1296 639 c 0,98,99
 1253 619 1253 619 1233 592 c 0,100,101
 1199 545 1199 545 1150 431 c 0,102,103
 1105 328 1105 328 1067 271 c 0,104,105
 965 117 965 117 831 39 c 0,106,107
 736 -16 736 -16 647 -16 c 0,108,109
 488 -16 488 -16 488 106 c 0,110,111
 488 190 488 190 559 237 c 0,112,113
 601 264 601 264 647 264 c 0,114,115
 684 264 684 264 718 239 c 0,116,117
 757 211 757 211 793 205 c 0,118,119
 810 202 810 202 832 202 c 0,120,121
 894 202 894 202 907 220 c 0,122,123
 910 224 910 224 915 236 c 0,124,125
 941 296 941 296 941 367 c 0,0,1
EndSplineSet
EndChar

StartChar: uniE010
Encoding: 57360 57360 24
Width: 2045
Flags: W
LayerCount: 2
Fore
SplineSet
25 596 m 0,0,1
 25 644 25 644 107 724 c 0,2,3
 206 821 206 821 315 857 c 0,4,5
 359 871 359 871 396 871 c 0,6,7
 480 871 480 871 500 770 c 0,8,9
 505 742 505 742 505 678 c 2,10,-1
 504 622 l 1,11,-1
 529 647 l 2,12,13
 731 849 731 849 929 884 c 0,14,15
 943 886 943 886 958 888 c 2,16,-1
 984 888 l 2,17,18
 1120 888 1120 888 1209 755 c 0,19,20
 1253 690 1253 690 1261 641 c 0,21,22
 1261 638 1261 638 1261 636 c 1,23,24
 1264 636 1264 636 1286 660 c 0,25,26
 1333 710 1333 710 1407 764 c 0,27,28
 1581 888 1581 888 1714 888 c 0,29,30
 1850 888 1850 888 1935 763 c 0,31,32
 1950 741 1950 741 1961 718 c 0,33,34
 1998 641 1998 641 1998 552 c 0,35,36
 1998 417 1998 417 1888 258 c 0,37,38
 1787 112 1787 112 1654 35 c 0,39,40
 1585 -4 1585 -4 1522 -14 c 0,41,42
 1508 -16 1508 -16 1480 -16 c 0,43,44
 1332 -16 1332 -16 1320 89 c 0,45,46
 1319 97 1319 97 1319 106 c 0,47,48
 1319 165 1319 165 1365 214 c 0,49,50
 1411 264 1411 264 1477 264 c 0,51,52
 1517 264 1517 264 1552 238 c 0,53,54
 1590 211 1590 211 1625 205 c 0,55,56
 1643 202 1643 202 1664 202 c 0,57,58
 1727 202 1727 202 1751 234 c 0,59,60
 1779 273 1779 273 1779 372 c 0,61,62
 1779 496 1779 496 1702 585 c 0,63,64
 1683 607 1683 607 1660 624 c 0,65,66
 1600 670 1600 670 1530 670 c 0,67,68
 1473 670 1473 670 1407 639 c 0,69,70
 1363 618 1363 618 1344 591 c 0,71,72
 1308 540 1308 540 1258 425 c 0,73,74
 1215 326 1215 326 1178 271 c 0,75,76
 1079 122 1079 122 948 43 c 0,77,78
 850 -16 850 -16 759 -16 c 0,79,80
 599 -16 599 -16 599 105 c 0,81,82
 599 188 599 188 669 235 c 0,83,84
 711 264 711 264 758 264 c 0,85,86
 796 264 796 264 830 239 c 0,87,88
 869 211 869 211 906 205 c 0,89,90
 923 202 923 202 944 202 c 0,91,92
 1005 202 1005 202 1018 219 c 0,93,94
 1021 223 1021 223 1027 236 c 0,95,96
 1052 292 1052 292 1052 367 c 0,97,98
 1052 502 1052 502 962 594 c 0,99,100
 901 657 901 657 828 668 c 0,101,102
 816 670 816 670 795 670 c 0,103,104
 708 670 708 670 619 608 c 0,105,106
 595 592 595 592 584 579 c 0,107,108
 530 517 530 517 509 407 c 2,109,-1
 488 286 l 2,110,111
 473 221 473 221 443 173 c 0,112,113
 385 79 385 79 302 17 c 0,114,115
 257 -16 257 -16 232 -16 c 0,116,117
 214 -16 214 -16 214 1 c 0,118,119
 214 26 214 26 236 53 c 0,120,121
 268 91 268 91 277 141 c 0,122,123
 286 195 286 195 286 501 c 0,124,125
 286 639 286 639 228 652 c 0,126,127
 221 653 221 653 214 653 c 0,128,129
 160 653 160 653 115 616 c 0,130,131
 81 587 81 587 65 583 c 0,132,133
 54 579 54 579 43 579 c 0,134,135
 25 579 25 579 25 596 c 0,0,1
EndSplineSet
EndChar

StartChar: uniE014
Encoding: 57364 57364 25
Width: 1415
Flags: W
LayerCount: 2
Fore
SplineSet
25 596 m 0,0,1
 25 644 25 644 107 724 c 0,2,3
 206 821 206 821 315 857 c 0,4,5
 359 871 359 871 396 871 c 0,6,7
 480 871 480 871 500 770 c 0,8,9
 505 747 505 747 505 668 c 2,10,-1
 504 604 l 1,11,-1
 525 624 l 2,12,13
 639 738 639 738 780 813 c 0,14,15
 922 889 922 889 1040 889 c 0,16,17
 1176 889 1176 889 1269 790 c 0,18,19
 1363 690 1363 690 1363 544 c 0,20,21
 1363 431 1363 431 1290 305 c 0,22,23
 1208 164 1208 164 1053 61 c 0,24,25
 935 -16 935 -16 820 -16 c 0,26,27
 672 -16 672 -16 661 89 c 0,28,29
 660 97 660 97 660 104 c 0,30,31
 660 167 660 167 708 217 c 0,32,33
 753 264 753 264 818 264 c 0,34,35
 866 264 866 264 892 240 c 0,36,37
 917 216 917 216 937 210 c 0,38,39
 962 202 962 202 1005 202 c 0,40,41
 1057 202 1057 202 1112 225 c 1,42,43
 1145 290 1145 290 1145 363 c 0,44,45
 1145 510 1145 510 1039 601 c 0,46,47
 977 654 977 654 902 667 c 0,48,49
 881 671 881 671 858 671 c 0,50,51
 749 671 749 671 635 599 c 0,52,53
 586 567 586 567 566 540 c 0,54,55
 519 475 519 475 504 377 c 0,56,57
 488 281 488 281 479 252 c 0,58,59
 466 211 466 211 443 173 c 0,60,61
 387 80 387 80 304 18 c 0,62,63
 257 -16 257 -16 232 -16 c 0,64,65
 214 -16 214 -16 214 1 c 0,66,67
 214 26 214 26 236 53 c 0,68,69
 268 91 268 91 277 141 c 0,70,71
 287 200 287 200 287 521 c 1,72,73
 279 645 279 645 214 653 c 1,74,75
 160 653 160 653 115 616 c 0,76,77
 81 587 81 587 65 583 c 0,78,79
 54 579 54 579 43 579 c 0,80,81
 25 579 25 579 25 596 c 0,0,1
EndSplineSet
EndChar

StartChar: uniE020
Encoding: 57376 57376 26
Width: 1259
Flags: W
LayerCount: 2
Fore
SplineSet
344 458 m 2,0,1
 348 461 348 461 351 466 c 1,2,3
 346 477 346 477 306 573 c 0,4,5
 277 643 277 643 241 663 c 0,6,7
 217 676 217 676 184 676 c 0,8,9
 134 676 134 676 97 644 c 0,10,11
 67 619 67 619 49 616 c 0,12,13
 42 615 42 615 35 615 c 0,14,15
 14 615 14 615 14 634 c 0,16,17
 14 685 14 685 112 772 c 0,18,19
 224 871 224 871 339 871 c 0,20,21
 429 871 429 871 475 793 c 0,22,23
 486 773 486 773 517 699 c 2,24,-1
 528 674 l 1,25,-1
 595 731 l 1,26,27
 790 885 790 885 910 885 c 2,28,-1
 941 885 l 2,29,30
 1057 885 1057 885 1129 804 c 0,31,32
 1189 736 1189 736 1189 637 c 0,33,34
 1189 401 1189 401 942 172 c 0,35,36
 827 64 827 64 673 -25 c 0,37,38
 405 -182 405 -182 326 -323 c 0,39,40
 287 -391 287 -391 287 -461 c 0,41,42
 287 -523 287 -523 325 -592 c 0,43,44
 396 -722 396 -722 540 -722 c 0,45,46
 604 -722 604 -722 652 -680 c 0,47,48
 688 -648 688 -648 697 -643 c 0,49,50
 716 -632 716 -632 738 -630 c 0,51,52
 758 -629 758 -629 758 -642 c 0,53,54
 758 -644 758 -644 757 -650 c 0,55,56
 757 -681 757 -681 696 -752 c 0,57,58
 598 -868 598 -868 479 -915 c 0,59,60
 417 -940 417 -940 358 -940 c 0,61,62
 218 -940 218 -940 132 -829 c 0,63,64
 82 -764 82 -764 71 -686 c 0,65,66
 69 -672 69 -672 69 -646 c 0,67,68
 69 -512 69 -512 187 -342 c 0,69,70
 243 -261 243 -261 322 -181 c 0,71,72
 400 -101 400 -101 500 -31 c 0,73,74
 517 -20 517 -20 517 -18 c 0,75,76
 517 13 517 13 403 329 c 0,77,78
 379 395 379 395 365 430 c 2,79,-1
 353 461 l 1,80,81
 348 458 348 458 345 458 c 2,82,-1
 344 458 l 2,0,1
971 459 m 0,83,84
 971 514 971 514 936 571 c 0,85,86
 872 674 872 674 731 674 c 0,87,88
 662 674 662 674 578 637 c 0,89,90
 550 625 550 625 550 620 c 2,91,-1
 561 593 l 2,92,93
 642 386 642 386 711 148 c 2,94,-1
 722 108 l 1,95,96
 735 108 735 108 842 197 c 0,97,98
 871 222 871 222 885 235 c 0,99,100
 971 321 971 321 971 459 c 0,83,84
EndSplineSet
EndChar

StartChar: uniE024
Encoding: 57380 57380 27
Width: 1214
Flags: W
LayerCount: 2
Fore
SplineSet
718 1572 m 0,0,1
 718 1608 718 1608 784 1681 c 0,2,3
 857 1761 857 1761 907 1771 c 0,4,5
 913 1772 913 1772 918 1772 c 0,6,7
 939 1772 939 1772 961 1730 c 0,8,9
 982 1687 982 1687 982 1638 c 0,10,11
 982 1527 982 1527 865 1342 c 0,12,13
 792 1228 792 1228 652 1046 c 0,14,15
 436 763 436 763 381 636 c 0,16,17
 350 561 350 561 350 494 c 0,18,19
 350 374 350 374 432 281 c 0,20,21
 508 196 508 196 627 173 c 0,22,23
 658 167 658 167 694 167 c 0,24,25
 786 167 786 167 860 200 c 0,26,27
 893 214 893 214 900 229 c 0,28,29
 927 282 927 282 927 352 c 0,30,31
 927 439 927 439 887 491 c 0,32,33
 860 528 860 528 855 540 c 0,34,35
 846 560 846 560 846 587 c 0,36,37
 846 645 846 645 892 694 c 0,38,39
 939 744 939 744 1006 744 c 0,40,41
 1074 744 1074 744 1113 680 c 0,42,43
 1145 627 1145 627 1145 537 c 0,44,45
 1145 395 1145 395 1032 241 c 0,46,47
 917 85 917 85 750 6 c 0,48,49
 630 -51 630 -51 510 -51 c 0,50,51
 333 -51 333 -51 223 73 c 0,52,53
 151 154 151 154 135 256 c 0,54,55
 131 282 131 282 131 307 c 0,56,57
 131 481 131 481 321 759 c 0,58,59
 369 830 369 830 539 1053 c 0,60,61
 696 1259 696 1259 738 1356 c 0,62,63
 764 1415 764 1415 764 1458 c 0,64,65
 764 1508 764 1508 732 1548 c 0,66,67
 718 1564 718 1564 718 1572 c 0,0,1
EndSplineSet
EndChar

StartChar: uniE028
Encoding: 57384 57384 28
Width: 1335
Flags: W
LayerCount: 2
Fore
SplineSet
37 1462 m 0,0,1
 37 1501 37 1501 108 1575 c 0,2,3
 201 1672 201 1672 301 1705 c 0,4,5
 336 1716 336 1716 367 1716 c 0,6,7
 444 1716 444 1716 484 1645 c 0,8,9
 487 1638 487 1638 490 1632 c 2,10,-1
 1050 249 l 1,11,12
 1080 192 1080 192 1140 180 c 0,13,14
 1150 178 1150 178 1160 178 c 0,15,16
 1196 177 1196 177 1235 212 c 0,17,18
 1271 245 1271 245 1290 251 c 0,19,20
 1301 255 1301 255 1313 255 c 0,21,22
 1331 255 1331 255 1333 245 c 0,23,24
 1334 242 1334 242 1334 237 c 0,25,26
 1334 198 1334 198 1264 125 c 0,27,28
 1172 27 1172 27 1074 -5 c 0,29,30
 1040 -16 1040 -16 1009 -16 c 0,31,32
 920 -16 920 -16 869 59 c 0,33,34
 864 67 864 67 860 74 c 0,35,36
 856 83 856 83 762 314 c 2,37,-1
 669 543 l 2,38,39
 668 543 668 543 657 522 c 0,40,41
 492 224 492 224 410 132 c 0,42,43
 371 88 371 88 317 50 c 0,44,45
 224 -16 224 -16 136 -16 c 0,46,47
 93 -16 93 -16 45 36 c 0,48,49
 25 59 25 59 25 69 c 0,50,51
 25 122 25 122 110 200 c 0,52,53
 179 262 179 262 219 270 c 0,54,55
 222 271 222 271 225 271 c 0,56,57
 234 271 234 271 261 242 c 0,58,59
 298 202 298 202 325 202 c 2,60,-1
 341 203 l 1,61,-1
 364 241 l 2,62,63
 402 304 402 304 516 508 c 2,64,-1
 596 652 l 2,65,66
 612 682 612 682 612 684 c 2,67,-1
 298 1461 l 2,68,69
 281 1499 281 1499 246 1515 c 0,70,71
 232 1521 232 1521 217 1521 c 0,72,73
 176 1521 176 1521 136 1486 c 0,74,75
 101 1454 101 1454 83 1448 c 0,76,77
 71 1444 71 1444 58 1443 c 0,78,79
 37 1443 37 1443 37 1462 c 0,0,1
EndSplineSet
EndChar

StartChar: uniEC12
Encoding: 60434 60434 29
Width: 0
Flags: W
LayerCount: 2
Fore
SplineSet
-546 -182 m 0,0,1
 -383 -182 -383 -182 -290 -108 c 2,2,-1
 -237 -65 l 2,3,4
 -218 -52 -218 -52 -200 -52 c 0,5,6
 -179 -52 -179 -52 -179 -71 c 0,7,8
 -179 -105 -179 -105 -236 -166 c 0,9,10
 -339 -278 -339 -278 -498 -323 c 0,11,12
 -580 -346 -580 -346 -669 -346 c 0,13,14
 -803 -346 -803 -346 -1006 -302 c 0,15,16
 -1200 -259 -1200 -259 -1290 -251 c 0,17,18
 -1339 -246 -1339 -246 -1387 -246 c 0,19,20
 -1548 -246 -1548 -246 -1640 -319 c 2,21,-1
 -1694 -363 l 2,22,23
 -1714 -376 -1714 -376 -1734 -376 c 0,24,25
 -1753 -376 -1753 -376 -1753 -358 c 0,26,27
 -1753 -320 -1753 -320 -1684 -252 c 0,28,29
 -1643 -213 -1643 -213 -1589 -177 c 0,30,31
 -1447 -82 -1447 -82 -1263 -82 c 0,32,33
 -1129 -82 -1129 -82 -927 -127 c 0,34,35
 -733 -170 -733 -170 -644 -178 c 0,36,37
 -594 -182 -594 -182 -546 -182 c 0,0,1
EndSplineSet
EndChar

StartChar: uniEC11
Encoding: 60433 60433 30
Width: 0
Flags: W
LayerCount: 2
Fore
SplineSet
-393 -179 m 0,0,1
 -311 -179 -311 -179 -269 -142 c 0,2,3
 -243 -118 -243 -118 -233 -114 c 0,4,5
 -221 -110 -221 -110 -206 -110 c 0,6,7
 -187 -110 -187 -110 -187 -128 c 0,8,9
 -187 -158 -187 -158 -237 -214 c 0,10,11
 -325 -313 -325 -313 -445 -336 c 0,12,13
 -475 -342 -475 -342 -506 -342 c 0,14,15
 -512 -342 -512 -342 -520 -342 c 0,16,17
 -567 -342 -567 -342 -754 -308 c 0,18,19
 -863 -289 -863 -289 -902 -289 c 0,20,21
 -981 -289 -981 -289 -1025 -327 c 0,22,23
 -1053 -351 -1053 -351 -1063 -355 c 0,24,25
 -1074 -359 -1074 -359 -1089 -359 c 0,26,27
 -1107 -359 -1107 -359 -1107 -339 c 0,28,29
 -1107 -306 -1107 -306 -1055 -250 c 0,30,31
 -966 -154 -966 -154 -842 -131 c 0,32,33
 -810 -125 -810 -125 -778 -125 c 0,34,35
 -713 -125 -713 -125 -572 -155 c 0,36,37
 -457 -179 -457 -179 -393 -179 c 0,0,1
EndSplineSet
EndChar

StartChar: uni603C
Encoding: 24636 24636 31
Width: 1234
Flags: W
LayerCount: 2
Fore
SplineSet
253 964 m 0,0,1
 177 964 177 964 140 1038 c 0,2,3
 114 1089 114 1089 114 1170 c 0,4,5
 114 1339 114 1339 266 1513 c 0,6,7
 399 1665 399 1665 573 1728 c 0,8,9
 661 1759 661 1759 744 1759 c 0,10,11
 919 1759 919 1759 1029 1645 c 0,12,13
 1128 1542 1128 1542 1128 1396 c 0,14,15
 1128 1162 1128 1162 975 941 c 0,16,17
 944 896 944 896 906 850 c 1,18,19
 1011 798 1011 798 1066 701 c 0,20,21
 1111 623 1111 623 1111 528 c 0,22,23
 1111 349 1111 349 925 59 c 0,24,25
 877 -15 877 -15 707 -253 c 0,26,27
 548 -476 548 -476 503 -583 c 0,28,29
 475 -650 475 -650 475 -700 c 0,30,31
 475 -754 475 -754 508 -795 c 0,32,33
 523 -813 523 -813 523 -822 c 0,34,35
 523 -872 523 -872 437 -950 c 0,36,37
 368 -1013 368 -1013 329 -1021 c 0,38,39
 325 -1022 325 -1022 323 -1022 c 0,40,41
 300 -1022 300 -1022 278 -974 c 0,42,43
 256 -928 256 -928 256 -883 c 0,44,45
 256 -767 256 -767 367 -580 c 0,46,47
 435 -467 435 -467 581 -262 c 0,48,49
 803 48 803 48 859 186 c 0,50,51
 892 269 892 269 892 345 c 0,52,53
 892 491 892 491 777 587 c 0,54,55
 695 655 695 655 590 668 c 0,56,57
 576 670 576 670 545 670 c 0,58,59
 447 670 447 670 369 631 c 0,60,61
 354 623 354 623 349 621 c 0,62,63
 329 601 329 601 319 531 c 0,64,65
 315 507 315 507 315 485 c 0,66,67
 315 398 315 398 354 346 c 0,68,69
 382 309 382 309 386 298 c 0,70,71
 395 278 395 278 395 252 c 0,72,73
 395 170 395 170 322 122 c 0,74,75
 280 93 280 93 236 93 c 0,76,77
 155 93 155 93 119 174 c 0,78,79
 97 224 97 224 97 300 c 0,80,81
 97 517 97 517 321 716 c 0,82,83
 517 889 517 889 728 889 c 0,84,85
 769 889 769 889 813 881 c 1,86,87
 910 1034 910 1034 910 1213 c 0,88,89
 910 1368 910 1368 786 1464 c 0,90,91
 707 1526 707 1526 608 1539 c 0,92,93
 594 1540 594 1540 567 1540 c 0,94,95
 473 1540 473 1540 397 1507 c 0,96,97
 380 1499 380 1499 367 1491 c 0,98,99
 352 1481 352 1481 338 1416 c 0,100,101
 332 1383 332 1383 332 1356 c 0,102,103
 332 1269 332 1269 371 1216 c 0,104,105
 399 1179 399 1179 404 1168 c 0,106,107
 412 1149 412 1149 412 1123 c 0,108,109
 412 1042 412 1042 342 994 c 0,110,111
 299 964 299 964 253 964 c 0,0,1
EndSplineSet
EndChar

StartChar: uni2E31
Encoding: 11825 11825 32
Width: 487
Flags: W
LayerCount: 2
Fore
SplineSet
260 283 m 0,0,1
 245 283 245 283 164 367 c 0,2,3
 107 426 107 426 107 436 c 2,4,-1
 107 437 l 2,5,6
 107 446 107 446 178 519 c 0,7,8
 245 589 245 589 261 589 c 0,9,10
 276 589 276 589 360 501 c 0,11,12
 414 445 414 445 414 436 c 0,13,14
 414 422 414 422 330 341 c 0,15,16
 270 283 270 283 260 283 c 0,0,1
EndSplineSet
EndChar

StartChar: uni603E
Encoding: 24638 24638 33
Width: 0
Flags: W
LayerCount: 2
Fore
SplineSet
-682 -434 m 0,0,1
 -682 -422 -682 -422 -605 -344 c 0,2,3
 -541 -281 -541 -281 -528 -281 c 0,4,5
 -512 -281 -512 -281 -428 -369 c 0,6,7
 -375 -425 -375 -425 -375 -434 c 0,8,9
 -375 -449 -375 -449 -462 -533 c 0,10,11
 -519 -588 -519 -588 -528 -588 c 0,12,13
 -543 -588 -543 -588 -625 -503 c 0,14,15
 -682 -444 -682 -444 -682 -434 c 0,0,1
-334 -434 m 0,16,17
 -334 -422 -334 -422 -256 -344 c 0,18,19
 -193 -281 -193 -281 -180 -281 c 0,20,21
 -163 -281 -163 -281 -80 -369 c 0,22,23
 -27 -425 -27 -425 -27 -434 c 0,24,25
 -27 -449 -27 -449 -114 -533 c 0,26,27
 -171 -588 -171 -588 -180 -588 c 0,28,29
 -194 -588 -194 -588 -275 -504 c 0,30,31
 -334 -444 -334 -444 -334 -434 c 0,16,17
-354 -841 m 0,32,33
 -369 -841 -369 -841 -451 -756 c 0,34,35
 -508 -697 -508 -697 -508 -687 c 128,-1,36
 -508 -677 -508 -677 -434 -601 c 0,37,38
 -368 -534 -368 -534 -354 -534 c 0,39,40
 -338 -534 -338 -534 -254 -622 c 0,41,42
 -201 -678 -201 -678 -201 -687 c 0,43,44
 -201 -702 -201 -702 -288 -786 c 0,45,46
 -345 -841 -345 -841 -354 -841 c 0,32,33
EndSplineSet
EndChar

StartChar: uni603F
Encoding: 24639 24639 34
Width: 0
Flags: W
LayerCount: 2
Fore
SplineSet
-630 -866 m 0,0,1
 -446 -866 -446 -866 -337 -782 c 2,2,-1
 -274 -731 l 2,3,4
 -253 -716 -253 -716 -232 -716 c 0,5,6
 -214 -716 -214 -716 -214 -735 c 0,7,8
 -214 -767 -214 -767 -272 -830 c 0,9,10
 -380 -946 -380 -946 -545 -998 c 0,11,12
 -646 -1030 -646 -1030 -755 -1030 c 0,13,14
 -898 -1030 -898 -1030 -1134 -980 c 0,15,16
 -1361 -931 -1361 -931 -1454 -921 c 0,17,18
 -1520 -914 -1520 -914 -1581 -914 c 0,19,20
 -1766 -914 -1766 -914 -1873 -998 c 2,21,-1
 -1936 -1049 l 2,22,23
 -1958 -1064 -1958 -1064 -1978 -1064 c 0,24,25
 -1997 -1064 -1997 -1064 -1997 -1046 c 0,26,27
 -1997 -1004 -1997 -1004 -1917 -931 c 0,28,29
 -1732 -760 -1732 -760 -1485 -751 c 1,30,-1
 -1453 -751 l 2,31,32
 -1316 -751 -1316 -751 -1069 -802 c 0,33,34
 -831 -852 -831 -852 -735 -861 c 0,35,36
 -680 -866 -680 -866 -630 -866 c 0,0,1
EndSplineSet
EndChar

StartChar: uniE01C
Encoding: 57372 57372 35
Width: 1933
Flags: W
LayerCount: 2
Fore
SplineSet
940 364 m 0,0,1
 940 471 940 471 877 562 c 0,2,3
 801 670 801 670 684 670 c 0,4,5
 575 670 575 670 474 584 c 0,6,7
 399 520 399 520 388 364 c 0,8,9
 386 339 386 339 384 249 c 0,10,11
 370 -395 370 -395 266 -674 c 0,12,13
 228 -778 228 -778 170 -855 c 0,14,15
 98 -952 98 -952 25 -1000 c 0,16,17
 -8 -1022 -8 -1022 -29 -1022 c 0,18,19
 -47 -1022 -47 -1022 -47 -1005 c 0,20,21
 -47 -981 -47 -981 9 -907 c 0,22,23
 38 -867 38 -867 45 -853 c 0,24,25
 161 -598 161 -598 168 337 c 0,26,27
 169 410 169 410 169 492 c 0,28,29
 169 1004 169 1004 197 1205 c 0,30,31
 208 1285 208 1285 228 1368 c 0,32,33
 290 1612 290 1612 468 1761 c 0,34,35
 523 1807 523 1807 556 1807 c 0,36,37
 573 1807 573 1807 573 1791 c 0,38,39
 573 1761 573 1761 547 1732 c 0,40,41
 506 1686 506 1686 488 1649 c 0,42,43
 423 1522 423 1522 400 1233 c 0,44,45
 387 1077 387 1077 387 758 c 2,46,-1
 387 620 l 1,47,-1
 409 642 l 2,48,49
 649 877 649 877 851 888 c 1,50,-1
 867 888 l 2,51,52
 1001 888 1001 888 1091 764 c 0,53,54
 1140 697 1140 697 1147 644 c 0,55,56
 1148 639 1148 639 1148 636 c 1,57,58
 1149 636 1149 636 1199 683 c 0,59,60
 1418 888 1418 888 1601 888 c 0,61,62
 1721 888 1721 888 1804 789 c 0,63,64
 1885 691 1885 691 1885 552 c 0,65,66
 1885 408 1885 408 1770 247 c 0,67,68
 1667 103 1667 103 1533 30 c 0,69,70
 1469 -4 1469 -4 1410 -14 c 0,71,72
 1395 -16 1395 -16 1367 -16 c 0,73,74
 1207 -16 1207 -16 1207 105 c 0,75,76
 1207 164 1207 164 1253 214 c 128,-1,77
 1299 264 1299 264 1365 264 c 0,78,79
 1404 264 1404 264 1440 239 c 0,80,81
 1478 211 1478 211 1511 205 c 0,82,83
 1529 202 1529 202 1551 202 c 0,84,85
 1621 202 1621 202 1634 228 c 1,86,87
 1628 216 1628 216 1639 238 c 0,88,89
 1666 301 1666 301 1666 372 c 0,90,91
 1666 449 1666 449 1632 520 c 0,92,93
 1583 619 1583 619 1492 655 c 0,94,95
 1455 670 1455 670 1417 670 c 0,96,97
 1356 670 1356 670 1292 639 c 0,98,99
 1250 618 1250 618 1229 589 c 0,100,101
 1196 543 1196 543 1142 419 c 0,102,103
 1099 320 1099 320 1066 271 c 0,104,105
 959 113 959 113 823 36 c 0,106,107
 732 -16 732 -16 646 -16 c 0,108,109
 487 -16 487 -16 487 106 c 0,110,111
 487 190 487 190 558 237 c 0,112,113
 600 264 600 264 646 264 c 0,114,115
 683 264 683 264 717 239 c 0,116,117
 756 211 756 211 792 205 c 0,118,119
 809 202 809 202 831 202 c 0,120,121
 896 202 896 202 908 222 c 0,122,123
 909 224 909 224 914 236 c 0,124,125
 940 295 940 295 940 364 c 0,0,1
EndSplineSet
EndChar

StartChar: uniE01A
Encoding: 57370 57370 36
Width: 1288
Flags: W
LayerCount: 2
Fore
SplineSet
632 609 m 0,0,1
 593 609 593 609 558 634 c 0,2,3
 520 662 520 662 485 668 c 0,4,5
 467 670 467 670 446 670 c 0,6,7
 395 670 395 670 339 648 c 1,8,9
 309 580 309 580 307 524 c 0,10,11
 306 517 306 517 306 509 c 0,12,13
 306 398 306 398 376 309 c 0,14,15
 397 283 397 283 421 264 c 0,16,17
 500 202 500 202 595 202 c 0,18,19
 713 202 713 202 837 259 c 0,20,21
 906 290 906 290 922 316 c 0,22,23
 945 354 945 354 949 408 c 0,24,25
 953 451 953 451 953 611 c 0,26,27
 956 1149 956 1149 1014 1374 c 0,28,29
 1037 1465 1037 1465 1074 1536 c 0,30,31
 1137 1658 1137 1658 1238 1748 c 0,32,33
 1304 1807 1304 1807 1338 1807 c 0,34,35
 1356 1807 1356 1807 1356 1791 c 2,36,-1
 1356 1787 l 2,37,38
 1356 1762 1356 1762 1331 1732 c 0,39,40
 1285 1679 1285 1679 1262 1626 c 0,41,42
 1195 1473 1195 1473 1178 1140 c 0,43,44
 1172 1031 1172 1031 1171 778 c 0,45,46
 1171 584 1171 584 1169 530 c 0,47,48
 1169 320 1169 320 1156 -116 c 0,49,50
 1151 -268 1151 -268 1147 -316 c 0,51,52
 1123 -581 1123 -581 1052 -733 c 0,53,54
 989 -869 989 -869 874 -969 c 0,55,56
 811 -1022 811 -1022 778 -1022 c 0,57,58
 761 -1022 761 -1022 761 -1005 c 0,59,60
 761 -977 761 -977 788 -945 c 0,61,62
 832 -893 832 -893 853 -848 c 0,63,64
 898 -754 898 -754 919 -587 c 0,65,66
 937 -448 937 -448 940 -274 c 0,67,68
 945 85 945 85 948 194 c 2,69,-1
 948 219 l 1,70,71
 858 129 858 129 723 63 c 0,72,73
 563 -16 563 -16 413 -16 c 0,74,75
 273 -16 273 -16 179 84 c 0,76,77
 88 182 88 182 88 325 c 0,78,79
 88 465 88 465 197 619 c 0,80,81
 302 766 302 766 444 840 c 0,82,83
 539 889 539 889 628 889 c 0,84,85
 783 889 783 889 791 778 c 0,86,87
 792 773 792 773 792 767 c 0,88,89
 792 723 792 723 760 676 c 0,90,91
 715 609 715 609 632 609 c 0,0,1
EndSplineSet
EndChar

StartChar: uniEC60
Encoding: 60512 60512 37
Width: 0
Flags: W
LayerCount: 2
Fore
SplineSet
-448 1308 m 2,0,1
 -448 1318 -448 1318 -373 1395 c 0,2,3
 -308 1460 -308 1460 -295 1460 c 0,4,5
 -279 1460 -279 1460 -193 1370 c 0,6,7
 -141 1315 -141 1315 -141 1307 c 0,8,9
 -141 1293 -141 1293 -223 1213 c 0,10,11
 -284 1153 -284 1153 -295 1153 c 0,12,13
 -311 1153 -311 1153 -400 1247 c 0,14,15
 -448 1298 -448 1298 -448 1304 c 0,16,17
 -448 1305 -448 1305 -448 1307 c 2,18,-1
 -448 1308 l 2,0,1
EndSplineSet
EndChar

StartChar: uniEC40
Encoding: 60480 60480 38
Width: 0
Flags: W
LayerCount: 2
Fore
SplineSet
-432 1560 m 256,0,1
 -432 1572 -432 1572 -353 1651 c 0,2,3
 -291 1713 -291 1713 -279 1713 c 0,4,5
 -262 1713 -262 1713 -178 1625 c 0,6,7
 -125 1569 -125 1569 -125 1560 c 0,8,9
 -125 1545 -125 1545 -207 1465 c 0,10,11
 -268 1406 -268 1406 -279 1406 c 0,12,13
 -292 1406 -292 1406 -371 1486 c 0,14,15
 -432 1548 -432 1548 -432 1560 c 256,0,1
-606 1307 m 0,16,17
 -606 1319 -606 1319 -529 1397 c 0,18,19
 -465 1460 -465 1460 -453 1460 c 0,20,21
 -436 1460 -436 1460 -354 1373 c 0,22,23
 -299 1316 -299 1316 -299 1307 c 0,24,25
 -299 1292 -299 1292 -381 1212 c 0,26,27
 -442 1153 -442 1153 -453 1153 c 0,28,29
 -467 1153 -467 1153 -546 1235 c 0,30,31
 -606 1296 -606 1296 -606 1307 c 0,16,17
-258 1307 m 0,32,33
 -258 1319 -258 1319 -182 1395 c 0,34,35
 -118 1460 -118 1460 -104 1460 c 0,36,37
 -88 1460 -88 1460 -4 1372 c 0,38,39
 49 1316 49 1316 49 1307 c 0,40,41
 49 1291 49 1291 -38 1208 c 0,42,43
 -95 1153 -95 1153 -104 1153 c 0,44,45
 -119 1153 -119 1153 -199 1235 c 0,46,47
 -258 1296 -258 1296 -258 1307 c 0,32,33
EndSplineSet
EndChar

StartChar: uniEC41
Encoding: 60481 60481 39
Width: 0
Flags: W
LayerCount: 2
Fore
SplineSet
-710 1568 m 0,0,1
 -710 1579 -710 1579 -634 1656 c 0,2,3
 -569 1721 -569 1721 -556 1721 c 0,4,5
 -540 1721 -540 1721 -454 1631 c 0,6,7
 -402 1576 -402 1576 -402 1568 c 0,8,9
 -402 1554 -402 1554 -487 1471 c 0,10,11
 -546 1414 -546 1414 -556 1414 c 0,12,13
 -570 1414 -570 1414 -654 1501 c 0,14,15
 -710 1559 -710 1559 -710 1568 c 0,0,1
-752 1457 m 1,16,-1
 -739 1460 l 2,17,18
 -727 1460 -727 1460 -697 1429 c 2,19,-1
 -658 1389 l 2,20,21
 -588 1320 -588 1320 -586 1313 c 0,22,23
 -585 1311 -585 1311 -585 1307 c 0,24,25
 -585 1296 -585 1296 -657 1223 c 0,26,27
 -724 1154 -724 1154 -740 1154 c 128,-1,28
 -756 1154 -756 1154 -840 1242 c 0,29,30
 -893 1298 -893 1298 -893 1307 c 128,-1,31
 -893 1316 -893 1316 -873 1336 c 2,32,-1
 -752 1457 l 1,16,-1
-374 1154 m 0,33,34
 -389 1154 -389 1154 -472 1240 c 0,35,36
 -527 1298 -527 1298 -527 1307 c 128,-1,37
 -527 1316 -527 1316 -507 1336 c 2,38,-1
 -386 1457 l 2,39,40
 -379 1460 -379 1460 -373 1460 c 0,41,42
 -358 1460 -358 1460 -275 1375 c 0,43,44
 -219 1317 -219 1317 -219 1307 c 128,-1,45
 -219 1297 -219 1297 -288 1225 c 0,46,47
 -357 1154 -357 1154 -374 1154 c 0,33,34
EndSplineSet
EndChar

StartChar: uniEC42
Encoding: 60482 60482 40
Width: 0
Flags: W
LayerCount: 2
Fore
SplineSet
-798 1568 m 0,0,1
 -798 1579 -798 1579 -721 1657 c 0,2,3
 -657 1721 -657 1721 -644 1721 c 0,4,5
 -627 1721 -627 1721 -544 1633 c 0,6,7
 -491 1577 -491 1577 -491 1568 c 0,8,9
 -491 1554 -491 1554 -576 1471 c 0,10,11
 -634 1414 -634 1414 -644 1414 c 0,12,13
 -658 1414 -658 1414 -739 1498 c 0,14,15
 -798 1558 -798 1558 -798 1568 c 0,0,1
-840 1457 m 1,16,-1
 -827 1460 l 2,17,18
 -815 1460 -815 1460 -785 1429 c 2,19,-1
 -746 1389 l 2,20,21
 -676 1320 -676 1320 -674 1313 c 0,22,23
 -673 1311 -673 1311 -673 1307 c 0,24,25
 -673 1296 -673 1296 -745 1223 c 0,26,27
 -812 1154 -812 1154 -828 1154 c 128,-1,28
 -844 1154 -844 1154 -928 1242 c 0,29,30
 -981 1298 -981 1298 -981 1307 c 128,-1,31
 -981 1316 -981 1316 -961 1336 c 2,32,-1
 -840 1457 l 1,16,-1
-462 1154 m 256,33,34
 -478 1154 -478 1154 -563 1243 c 0,35,36
 -615 1299 -615 1299 -615 1307 c 0,37,38
 -615 1316 -615 1316 -596 1336 c 2,39,-1
 -474 1457 l 2,40,41
 -467 1460 -467 1460 -462 1460 c 0,42,43
 -446 1460 -446 1460 -363 1375 c 0,44,45
 -307 1317 -307 1317 -307 1307 c 0,46,47
 -307 1295 -307 1295 -379 1222 c 0,48,49
 -446 1154 -446 1154 -462 1154 c 256,33,34
EndSplineSet
EndChar

StartChar: uniEC51
Encoding: 60497 60497 41
Width: 0
Flags: W
LayerCount: 2
Fore
SplineSet
-697 1091 m 0,0,1
 -727 1098 -727 1098 -731 1124 c 0,2,3
 -731 1139 -731 1139 -720 1154 c 0,4,5
 -698 1182 -698 1182 -456 1396 c 0,6,7
 -246 1581 -246 1581 -176 1630 c 0,8,9
 -144 1651 -144 1651 -118 1651 c 0,10,11
 -57 1651 -57 1651 -44 1601 c 0,12,13
 -41 1592 -41 1592 -41 1583 c 0,14,15
 -41 1545 -41 1545 -85 1504 c 0,16,17
 -140 1452 -140 1452 -375 1292 c 0,18,19
 -569 1159 -569 1159 -612 1133 c 0,20,21
 -680 1091 -680 1091 -697 1091 c 0,0,1
EndSplineSet
EndChar

StartChar: uniEC61
Encoding: 60513 60513 42
Width: 0
Flags: W
LayerCount: 2
Fore
SplineSet
-727 1307 m 0,0,1
 -727 1319 -727 1319 -651 1395 c 0,2,3
 -587 1460 -587 1460 -574 1460 c 0,4,5
 -557 1460 -557 1460 -473 1372 c 0,6,7
 -420 1316 -420 1316 -420 1307 c 0,8,9
 -420 1291 -420 1291 -507 1208 c 0,10,11
 -564 1153 -564 1153 -573 1153 c 0,12,13
 -588 1153 -588 1153 -668 1235 c 0,14,15
 -727 1296 -727 1296 -727 1307 c 0,0,1
EndSplineSet
EndChar

StartChar: uniEC71
Encoding: 60529 60529 43
Width: 0
Flags: W
LayerCount: 2
Fore
SplineSet
-774 1100 m 0,0,1
 -798 1100 -798 1100 -798 1125 c 0,2,3
 -798 1140 -798 1140 -782 1162 c 1,4,5
 -825 1104 -825 1104 -714 1249 c 0,6,7
 -479 1555 -479 1555 -358 1659 c 0,8,9
 -327 1685 -327 1685 -299 1704 c 0,10,11
 -211 1764 -211 1764 -127 1776 c 0,12,13
 -116 1778 -116 1778 -108 1778 c 0,14,15
 -99 1779 -99 1779 -91 1779 c 0,16,17
 4 1779 4 1779 53 1715 c 0,18,19
 84 1675 84 1675 84 1621 c 0,20,21
 84 1523 84 1523 1 1427 c 0,22,23
 -68 1348 -68 1348 -138 1333 c 0,24,25
 -150 1330 -150 1330 -161 1330 c 0,26,27
 -186 1330 -186 1330 -186 1348 c 0,28,29
 -186 1361 -186 1361 -158 1394 c 0,30,31
 -110 1451 -110 1451 -106 1506 c 0,32,33
 -105 1513 -105 1513 -105 1521 c 0,34,35
 -105 1598 -105 1598 -160 1610 c 0,36,37
 -167 1611 -167 1611 -174 1611 c 0,38,39
 -243 1611 -243 1611 -387 1472 c 0,40,41
 -407 1453 -407 1453 -573 1281 c 0,42,43
 -641 1211 -641 1211 -690 1164 c 0,44,45
 -752 1105 -752 1105 -764 1101 c 0,46,47
 -768 1100 -768 1100 -774 1100 c 0,0,1
EndSplineSet
EndChar

StartChar: uniE03F
Encoding: 57407 57407 44
Width: 1253
Flags: W
LayerCount: 2
Fore
SplineSet
249 128 m 0,0,1
 181 128 181 128 143 192 c 0,2,3
 111 245 111 245 111 334 c 0,4,5
 111 490 111 490 235 649 c 0,6,7
 355 800 355 800 526 875 c 0,8,9
 619 915 619 915 710 923 c 1,10,-1
 750 923 l 2,11,12
 900 923 900 923 1004 800 c 0,13,14
 1119 665 1119 665 1125 448 c 1,15,-1
 1125 424 l 2,16,17
 1125 54 1125 54 932 -305 c 0,18,19
 777 -594 777 -594 536 -799 c 0,20,21
 359 -950 359 -950 271 -966 c 0,22,23
 263 -967 263 -967 256 -967 c 0,24,25
 234 -967 234 -967 234 -951 c 0,26,27
 234 -922 234 -922 316 -858 c 2,28,-1
 463 -745 l 2,29,30
 511 -706 511 -706 547 -671 c 0,31,32
 754 -468 754 -468 848 -159 c 0,33,34
 907 37 907 37 907 241 c 0,35,36
 907 438 907 438 812 570 c 0,37,38
 716 703 716 703 567 705 c 0,39,40
 564 705 564 705 562 705 c 0,41,42
 453 705 453 705 384 667 c 0,43,44
 361 654 361 654 355 642 c 0,45,46
 329 587 329 587 329 519 c 0,47,48
 329 434 329 434 367 383 c 0,49,50
 395 346 395 346 400 336 c 0,51,52
 409 315 409 315 409 288 c 0,53,54
 409 186 409 186 315 144 c 0,55,56
 278 128 278 128 249 128 c 0,0,1
EndSplineSet
EndChar

StartChar: uniEC81
Encoding: 60545 60545 45
Width: 0
Flags: W
LayerCount: 2
Fore
SplineSet
-520 1570 m 0,0,1
 -539 1570 -539 1570 -540 1589 c 0,2,3
 -540 1616 -540 1616 -491 1670 c 0,4,5
 -406 1764 -406 1764 -301 1783 c 0,6,7
 -279 1787 -279 1787 -257 1787 c 0,8,9
 -162 1787 -162 1787 -112 1715 c 0,10,11
 -81 1671 -81 1671 -81 1614 c 0,12,13
 -81 1431 -81 1431 -343 1282 c 0,14,15
 -381 1261 -381 1261 -423 1241 c 0,16,17
 -482 1212 -482 1212 -623 1154 c 2,18,-1
 -710 1117 l 2,19,20
 -744 1102 -744 1102 -754 1102 c 0,21,22
 -780 1102 -780 1102 -782 1126 c 0,23,24
 -782 1153 -782 1153 -671 1216 c 2,25,-1
 -478 1327 l 1,26,27
 -287 1442 -287 1442 -271 1523 c 0,28,29
 -269 1532 -269 1532 -269 1540 c 0,30,31
 -269 1566 -269 1566 -296 1593 c 0,32,33
 -329 1626 -329 1626 -387 1626 c 0,34,35
 -424 1626 -424 1626 -462 1597 c 0,36,37
 -494 1571 -494 1571 -520 1570 c 0,0,1
EndSplineSet
EndChar

StartChar: uni604B
Encoding: 24651 24651 46
Width: 1232
Flags: W
LayerCount: 2
Fore
SplineSet
182 1035 m 0,0,1
 182 1247 182 1247 406 1470 c 0,2,3
 550 1612 550 1612 718 1700 c 0,4,5
 808 1746 808 1746 848 1746 c 0,6,7
 874 1746 874 1746 874 1730 c 0,8,9
 874 1695 874 1695 776 1631 c 2,10,-1
 596 1516 l 1,11,12
 461 1424 461 1424 429 1351 c 0,13,14
 400 1285 400 1285 400 1219 c 0,15,16
 400 1086 400 1086 492 990 c 0,17,18
 513 967 513 967 538 949 c 0,19,20
 553 939 553 939 553 928 c 0,21,22
 553 899 553 899 511 847 c 0,23,24
 449 772 449 772 427 731 c 0,25,26
 366 620 366 620 366 473 c 0,27,28
 366 344 366 344 465 256 c 0,29,30
 565 168 565 168 711 168 c 0,31,32
 816 168 816 168 899 211 c 1,33,-1
 909 217 l 2,34,35
 924 227 924 227 938 293 c 0,36,37
 944 325 944 325 944 352 c 0,38,39
 944 439 944 439 905 492 c 0,40,41
 877 529 877 529 872 540 c 0,42,43
 864 559 864 559 864 585 c 0,44,45
 864 647 864 647 912 697 c 0,46,47
 957 744 957 744 1022 744 c 0,48,49
 1120 744 1120 744 1151 627 c 0,50,51
 1162 585 1162 585 1162 539 c 0,52,53
 1162 397 1162 397 1050 243 c 0,54,55
 936 87 936 87 769 7 c 0,56,57
 648 -51 648 -51 527 -51 c 0,58,59
 361 -51 361 -51 254 47 c 0,60,61
 148 145 148 145 148 298 c 0,62,63
 148 499 148 499 276 699 c 0,64,65
 295 727 295 727 313 751 c 1,66,67
 259 805 259 805 238 836 c 0,68,69
 182 922 182 922 182 1035 c 0,0,1
EndSplineSet
EndChar

StartChar: uniECBF
Encoding: 60607 60607 47
Width: 0
Flags: W
LayerCount: 2
Fore
SplineSet
-940 -153 m 0,0,1
 -954 -153 -954 -153 -1038 -66 c 0,2,3
 -1094 -8 -1094 -8 -1094 1 c 128,-1,4
 -1094 10 -1094 10 -1024 83 c 0,5,6
 -955 154 -955 154 -939 154 c 0,7,8
 -924 154 -924 154 -839 64 c 0,9,10
 -786 9 -786 9 -786 1 c 0,11,12
 -786 -13 -786 -13 -871 -96 c 0,13,14
 -930 -153 -930 -153 -940 -153 c 0,0,1
EndSplineSet
EndChar

StartChar: uniEC80
Encoding: 60544 60544 48
Width: 0
Flags: W
LayerCount: 2
Fore
SplineSet
-306 1579 m 0,0,1
 -304 1616 -304 1616 -251 1677 c 0,2,3
 -165 1775 -165 1775 -59 1792 c 0,4,5
 -41 1795 -41 1795 -23 1795 c 0,6,7
 73 1795 73 1795 122 1722 c 0,8,9
 150 1680 150 1680 150 1627 c 0,10,11
 150 1483 150 1483 10 1357 c 0,12,13
 -9 1340 -9 1340 -30 1325 c 0,14,15
 -100 1273 -100 1273 -291 1166 c 0,16,17
 -406 1102 -406 1102 -423 1102 c 0,18,19
 -445 1102 -445 1102 -449 1121 c 0,20,21
 -450 1124 -450 1124 -450 1127 c 0,22,23
 -450 1154 -450 1154 -353 1225 c 2,24,-1
 -195 1338 l 1,25,26
 -31 1463 -31 1463 -31 1544 c 0,27,28
 -31 1599 -31 1599 -104 1617 c 0,29,30
 -123 1622 -123 1622 -138 1622 c 0,31,32
 -189 1622 -189 1622 -234 1585 c 0,33,34
 -265 1559 -265 1559 -280 1557 c 0,35,36
 -284 1556 -284 1556 -288 1556 c 0,37,38
 -306 1556 -306 1556 -306 1579 c 0,0,1
EndSplineSet
EndChar

StartChar: uniEC70
Encoding: 60528 60528 49
Width: 0
Flags: W
LayerCount: 2
Fore
SplineSet
-441 1099 m 1,0,1
 -462 1106 -462 1106 -466 1126 c 0,2,3
 -466 1139 -466 1139 -448 1169 c 2,4,-1
 -313 1400 l 1,5,6
 -160 1646 -160 1646 -32 1729 c 0,7,8
 45 1779 45 1779 122 1779 c 0,9,10
 227 1779 227 1779 275 1705 c 0,11,12
 302 1664 302 1664 302 1610 c 0,13,14
 302 1492 302 1492 196 1393 c 0,15,16
 135 1336 135 1336 88 1325 c 0,17,18
 83 1324 83 1324 78 1324 c 0,19,20
 59 1324 59 1324 58 1342 c 0,21,22
 58 1361 58 1361 84 1392 c 0,23,24
 120 1435 120 1435 125 1477 c 0,25,26
 126 1485 126 1485 126 1494 c 0,27,28
 126 1560 126 1560 86 1589 c 0,29,30
 69 1602 69 1602 49 1602 c 0,31,32
 -30 1602 -30 1602 -183 1409 c 1,33,-1
 -372 1160 l 2,34,35
 -397 1130 -397 1130 -415 1112 c 0,36,37
 -427 1099 -427 1099 -441 1099 c 1,0,1
EndSplineSet
EndChar

StartChar: uni604F
Encoding: 24655 24655 50
Width: 0
Flags: W
LayerCount: 2
Fore
SplineSet
-696 -614 m 0,0,1
 -709 -614 -709 -614 -789 -533 c 0,2,3
 -849 -472 -849 -472 -849 -461 c 0,4,5
 -849 -447 -849 -447 -772 -369 c 0,6,7
 -709 -306 -709 -306 -696 -306 c 0,8,9
 -684 -306 -684 -306 -606 -384 c 0,10,11
 -543 -447 -543 -447 -543 -460 c 0,12,13
 -543 -478 -543 -478 -633 -563 c 0,14,15
 -687 -614 -687 -614 -696 -614 c 0,0,1
EndSplineSet
EndChar

StartChar: uniEC32
Encoding: 60466 60466 51
Width: 0
Flags: W
LayerCount: 2
Fore
SplineSet
-515 1105 m 0,0,1
 -350 1105 -350 1105 -258 1179 c 2,2,-1
 -203 1224 l 2,3,4
 -184 1238 -184 1238 -164 1238 c 0,5,6
 -143 1238 -143 1238 -143 1219 c 0,7,8
 -143 1186 -143 1186 -205 1122 c 0,9,10
 -310 1012 -310 1012 -459 967 c 0,11,12
 -504 953 -504 953 -550 947 c 0,13,14
 -585 942 -585 942 -642 942 c 0,15,16
 -772 942 -772 942 -972 986 c 0,17,18
 -1171 1029 -1171 1029 -1267 1038 c 0,19,20
 -1323 1043 -1323 1043 -1378 1043 c 0,21,22
 -1527 1043 -1527 1043 -1623 969 c 2,23,-1
 -1678 925 l 2,24,25
 -1698 912 -1698 912 -1715 912 c 0,26,27
 -1733 912 -1733 912 -1734 931 c 0,28,29
 -1734 969 -1734 969 -1678 1023 c 0,30,31
 -1526 1173 -1526 1173 -1339 1200 c 0,32,33
 -1290 1206 -1290 1206 -1236 1206 c 0,34,35
 -1105 1206 -1105 1206 -895 1161 c 0,36,37
 -693 1117 -693 1117 -602 1109 c 0,38,39
 -557 1105 -557 1105 -515 1105 c 0,0,1
EndSplineSet
EndChar

StartChar: uniE019
Encoding: 57369 57369 52
Width: 1345
Flags: W
LayerCount: 2
Fore
SplineSet
937 1 m 2,0,-1
 580 10 l 1,1,2
 413 10 413 10 380 4 c 1,3,-1
 374 4 l 1,4,-1
 374 -1 l 1,5,6
 344 -501 344 -501 252 -713 c 0,7,8
 220 -789 220 -789 170 -855 c 0,9,10
 98 -952 98 -952 25 -1000 c 0,11,12
 -8 -1022 -8 -1022 -29 -1022 c 0,13,14
 -47 -1022 -47 -1022 -47 -1005 c 0,15,16
 -47 -981 -47 -981 9 -907 c 0,17,18
 38 -867 38 -867 45 -853 c 0,19,20
 161 -598 161 -598 168 337 c 0,21,22
 169 410 169 410 169 492 c 0,23,24
 169 1004 169 1004 197 1205 c 0,25,26
 208 1285 208 1285 228 1368 c 0,27,28
 290 1612 290 1612 468 1761 c 0,29,30
 523 1807 523 1807 556 1807 c 0,31,32
 573 1807 573 1807 573 1791 c 0,33,34
 573 1761 573 1761 547 1732 c 0,35,36
 506 1686 506 1686 488 1649 c 0,37,38
 423 1522 423 1522 400 1233 c 0,39,40
 387 1074 387 1074 387 749 c 2,41,-1
 387 603 l 1,42,-1
 404 619 l 1,43,44
 535 748 535 748 686 823 c 0,45,46
 816 888 816 888 927 888 c 0,47,48
 1076 888 1076 888 1166 783 c 0,49,50
 1240 695 1240 695 1240 571 c 0,51,52
 1240 385 1240 385 1063 196 c 1,53,-1
 1087 196 l 2,54,55
 1094 196 1094 196 1103 196 c 0,56,57
 1253 196 1253 196 1324 247 c 0,58,59
 1359 271 1359 271 1365 274 c 0,60,61
 1376 278 1376 278 1387 278 c 0,62,63
 1407 278 1407 278 1407 259 c 0,64,65
 1407 221 1407 221 1349 160 c 0,66,67
 1210 12 1210 12 1004 2 c 0,68,69
 1000 2 1000 2 937 1 c 2,0,-1
383 184 m 0,70,71
 541 204 541 204 716 205 c 1,72,-1
 850 202 l 2,73,74
 964 202 964 202 993 259 c 0,75,76
 1022 319 1022 319 1022 388 c 0,77,78
 1022 514 1022 514 936 595 c 0,79,80
 857 670 857 670 738 670 c 0,81,82
 636 670 636 670 515 593 c 0,83,84
 467 562 467 562 447 538 c 0,85,86
 391 470 391 470 386 337 c 2,87,-1
 382 187 l 2,88,89
 382 184 382 184 383 184 c 0,70,71
EndSplineSet
EndChar

StartChar: uniEC52
Encoding: 60498 60498 53
Width: 0
Flags: W
LayerCount: 2
Fore
SplineSet
-796 1089 m 0,0,1
 -823 1089 -823 1089 -828 1114 c 0,2,3
 -829 1118 -829 1118 -829 1123 c 0,4,5
 -829 1143 -829 1143 -792 1192 c 2,6,-1
 -726 1278 l 1,7,8
 -501 1578 -501 1578 -415 1662 c 0,9,10
 -382 1694 -382 1694 -345 1694 c 0,11,12
 -299 1694 -299 1694 -282 1654 c 0,13,14
 -276 1640 -276 1640 -276 1624 c 0,15,16
 -276 1590 -276 1590 -302 1556 c 0,17,18
 -369 1469 -369 1469 -667 1191 c 0,19,20
 -758 1105 -758 1105 -769 1098 c 0,21,22
 -782 1089 -782 1089 -796 1089 c 0,0,1
EndSplineSet
EndChar

StartChar: uniE01E
Encoding: 57374 57374 54
Width: 1935
Flags: W
LayerCount: 2
Fore
SplineSet
1339 608 m 0,0,1
 1301 608 1301 608 1266 634 c 0,2,3
 1227 662 1227 662 1191 668 c 0,4,5
 1174 670 1174 670 1152 670 c 0,6,7
 1088 670 1088 670 1076 646 c 0,8,9
 1047 584 1047 584 1046 505 c 0,10,11
 1046 365 1046 365 1141 274 c 0,12,13
 1199 217 1199 217 1270 204 c 0,14,15
 1280 202 1280 202 1305 202 c 0,16,17
 1436 202 1436 202 1545 279 c 0,18,19
 1583 306 1583 306 1597 394 c 0,20,21
 1599 409 1599 409 1599 417 c 2,22,-1
 1600 607 l 1,23,-1
 1600 609 l 2,24,25
 1603 1148 1603 1148 1660 1374 c 0,26,27
 1684 1465 1684 1465 1721 1536 c 0,28,29
 1784 1658 1784 1658 1885 1748 c 0,30,31
 1952 1807 1952 1807 1986 1807 c 0,32,33
 2006 1807 2006 1807 2004 1787 c 0,34,35
 2001 1756 2001 1756 1972 1723 c 0,36,37
 1926 1669 1926 1669 1903 1616 c 0,38,39
 1842 1469 1842 1469 1825 1140 c 0,40,41
 1817 954 1817 954 1817 530 c 0,42,43
 1814 459 1814 459 1803 -36 c 0,44,45
 1796 -380 1796 -380 1764 -538 c 0,46,47
 1751 -599 1751 -599 1733 -652 c 0,48,49
 1681 -806 1681 -806 1561 -931 c 1,50,51
 1474 -1015 1474 -1015 1426 -1022 c 0,52,53
 1408 -1022 1408 -1022 1408 -1005 c 0,54,55
 1408 -977 1408 -977 1435 -945 c 0,56,57
 1480 -893 1480 -893 1501 -847 c 0,58,59
 1545 -753 1545 -753 1566 -587 c 0,60,61
 1588 -416 1588 -416 1590 -93 c 0,62,63
 1591 98 1591 98 1595 189 c 1,64,-1
 1595 205 l 1,65,66
 1500 110 1500 110 1371 47 c 128,-1,67
 1242 -16 1242 -16 1123 -16 c 0,68,69
 1011 -16 1011 -16 927 70 c 0,70,71
 871 127 871 127 844 210 c 1,72,73
 643 9 643 9 410 -14 c 0,74,75
 385 -16 385 -16 361 -16 c 0,76,77
 223 -16 223 -16 139 105 c 0,78,79
 90 176 90 176 78 261 c 0,80,81
 74 289 74 289 74 318 c 0,82,83
 74 509 74 509 241 692 c 1,84,-1
 270 722 l 1,85,86
 437 889 437 889 594 889 c 0,87,88
 718 889 718 889 745 808 c 0,89,90
 751 790 751 790 751 771 c 0,91,92
 751 767 751 767 751 762 c 0,93,94
 751 700 751 700 699 652 c 0,95,96
 653 608 653 608 592 608 c 0,97,98
 555 608 555 608 520 634 c 0,99,100
 481 662 481 662 445 668 c 0,101,102
 428 670 428 670 408 670 c 0,103,104
 367 670 367 670 330 655 c 1,105,106
 292 585 292 585 292 502 c 0,107,108
 292 361 292 361 386 271 c 0,109,110
 458 202 458 202 544 202 c 0,111,112
 646 202 646 202 739 246 c 0,113,114
 777 264 777 264 788 280 c 0,115,116
 813 316 813 316 833 397 c 0,117,118
 849 463 849 463 865 500 c 0,119,120
 916 624 916 624 1031 735 c 0,121,122
 1178 878 1178 878 1320 888 c 0,123,124
 1330 888 1330 888 1339 888 c 0,125,126
 1489 888 1489 888 1499 781 c 1,127,-1
 1499 767 l 2,128,129
 1499 723 1499 723 1468 677 c 0,130,131
 1423 608 1423 608 1339 608 c 0,0,1
EndSplineSet
EndChar

StartChar: uniEC62
Encoding: 60514 60514 55
Width: 0
Flags: W
LayerCount: 2
Fore
SplineSet
-780 1307 m 0,0,1
 -780 1319 -780 1319 -703 1397 c 0,2,3
 -639 1460 -639 1460 -627 1460 c 0,4,5
 -610 1460 -610 1460 -528 1373 c 0,6,7
 -473 1316 -473 1316 -473 1307 c 0,8,9
 -473 1292 -473 1292 -555 1212 c 0,10,11
 -616 1153 -616 1153 -627 1153 c 0,12,13
 -641 1153 -641 1153 -720 1235 c 0,14,15
 -780 1296 -780 1296 -780 1307 c 0,0,1
EndSplineSet
EndChar

StartChar: uniEC82
Encoding: 60546 60546 56
Width: 0
Flags: W
LayerCount: 2
Fore
SplineSet
-678 1574 m 2,0,1
 -694 1574 -694 1574 -694 1594 c 0,2,3
 -694 1625 -694 1625 -644 1685 c 0,4,5
 -561 1786 -561 1786 -457 1810 c 0,6,7
 -443 1813 -443 1813 -429 1815 c 2,8,-1
 -404 1815 l 2,9,10
 -314 1815 -314 1815 -267 1746 c 0,11,12
 -238 1703 -238 1703 -238 1642 c 0,13,14
 -238 1496 -238 1496 -402 1357 c 0,15,16
 -429 1333 -429 1333 -460 1312 c 0,17,18
 -547 1251 -547 1251 -716 1155 c 0,19,20
 -811 1101 -811 1101 -825 1101 c 0,21,22
 -848 1106 -848 1106 -852 1126 c 1,23,24
 -852 1147 -852 1147 -813 1178 c 2,25,-1
 -654 1299 l 1,26,-1
 -553 1382 l 2,27,28
 -476 1447 -476 1447 -449 1484 c 0,29,30
 -418 1527 -418 1527 -418 1565 c 0,31,32
 -418 1612 -418 1612 -471 1631 c 0,33,34
 -495 1640 -495 1640 -524 1640 c 0,35,36
 -577 1640 -577 1640 -621 1603 c 0,37,38
 -652 1577 -652 1577 -668 1575 c 0,39,40
 -672 1574 -672 1574 -676 1574 c 2,41,-1
 -678 1574 l 2,0,1
EndSplineSet
EndChar

StartChar: uniEC50
Encoding: 60496 60496 57
Width: 0
Flags: W
LayerCount: 2
Fore
SplineSet
-452 1089 m 0,0,1
 -481 1096 -481 1096 -485 1124 c 0,2,3
 -485 1152 -485 1152 -282 1410 c 0,4,5
 -130 1604 -130 1604 -71 1662 c 0,6,7
 -39 1694 -39 1694 -1 1694 c 0,8,9
 44 1694 44 1694 62 1654 c 0,10,11
 69 1640 69 1640 69 1623 c 0,12,13
 69 1589 69 1589 42 1556 c 0,14,15
 -25 1469 -25 1469 -323 1191 c 0,16,17
 -414 1105 -414 1105 -425 1098 c 0,18,19
 -438 1089 -438 1089 -452 1089 c 0,0,1
EndSplineSet
EndChar

StartChar: uniE01D
Encoding: 57373 57373 58
Width: 1978
Flags: W
LayerCount: 2
Fore
SplineSet
877 10 m 0,0,1
 624 10 624 10 426 -2 c 0,2,3
 398 -4 398 -4 374 -4 c 1,4,5
 346 -506 346 -506 244 -730 c 0,6,7
 213 -797 213 -797 170 -855 c 0,8,9
 98 -952 98 -952 25 -1000 c 0,10,11
 -8 -1022 -8 -1022 -29 -1022 c 0,12,13
 -47 -1022 -47 -1022 -47 -1005 c 0,14,15
 -47 -981 -47 -981 9 -907 c 0,16,17
 38 -867 38 -867 45 -853 c 0,18,19
 161 -598 161 -598 168 337 c 0,20,21
 169 410 169 410 169 492 c 0,22,23
 169 1004 169 1004 197 1205 c 0,24,25
 208 1285 208 1285 228 1368 c 0,26,27
 290 1612 290 1612 468 1761 c 0,28,29
 523 1807 523 1807 556 1807 c 0,30,31
 573 1807 573 1807 573 1791 c 0,32,33
 573 1761 573 1761 547 1732 c 0,34,35
 506 1686 506 1686 488 1649 c 0,36,37
 423 1522 423 1522 400 1233 c 0,38,39
 387 1077 387 1077 387 758 c 2,40,-1
 387 620 l 1,41,-1
 409 642 l 2,42,43
 649 877 649 877 851 888 c 1,44,-1
 867 888 l 2,45,46
 983 888 983 888 1065 798 c 0,47,48
 1124 733 1124 733 1150 629 c 1,49,-1
 1177 656 l 2,50,51
 1323 799 1323 799 1468 858 c 0,52,53
 1545 889 1545 889 1611 889 c 0,54,55
 1723 889 1723 889 1800 804 c 0,56,57
 1880 717 1880 717 1880 585 c 0,58,59
 1880 429 1880 429 1732 244 c 0,60,61
 1713 219 1713 219 1692 196 c 1,62,-1
 1718 196 l 2,63,64
 1886 196 1886 196 1926 230 c 0,65,66
 1983 278 1983 278 2014 278 c 0,67,68
 2034 278 2034 278 2034 259 c 0,69,70
 2034 199 2034 199 1921 109 c 0,71,72
 1860 62 1860 62 1816 42 c 0,73,74
 1720 0 1720 0 1545 1 c 0,75,76
 1511 2 1511 2 1507 2 c 2,77,-1
 1075 8 l 2,78,79
 1015 10 1015 10 877 10 c 0,0,1
940 367 m 0,80,81
 940 472 940 472 878 561 c 0,82,83
 814 651 814 651 716 668 c 0,84,85
 704 670 704 670 677 670 c 0,86,87
 592 670 592 670 496 601 c 0,88,89
 483 592 483 592 474 584 c 0,90,91
 399 517 399 517 388 359 c 1,92,-1
 382 186 l 1,93,-1
 382 181 l 1,94,95
 448 192 448 192 665 196 c 0,96,97
 853 199 853 199 906 218 c 1,98,99
 940 293 940 293 940 367 c 0,80,81
1661 407 m 0,100,101
 1661 524 1661 524 1586 601 c 0,102,103
 1518 670 1518 670 1416 670 c 0,104,105
 1363 670 1363 670 1295 634 c 0,106,107
 1247 609 1247 609 1221 574 c 0,108,109
 1187 528 1187 528 1143 424 c 0,110,111
 1089 299 1089 299 1027 218 c 2,112,-1
 1017 205 l 1,113,-1
 1093 205 l 1,114,-1
 1474 198 l 2,115,116
 1603 198 1603 198 1642 290 c 0,117,118
 1661 336 1661 336 1661 407 c 0,100,101
EndSplineSet
EndChar

StartChar: uniE01F
Encoding: 57375 57375 59
Width: 1998
Flags: W
LayerCount: 2
Fore
SplineSet
311 1012 m 0,0,1
 311 997 311 997 294 964 c 0,2,3
 289 956 289 956 289 951 c 0,4,5
 289 919 289 919 314 887 c 0,6,7
 317 882 317 882 319 881 c 0,8,9
 372 846 372 846 992 846 c 0,10,11
 1463 846 1463 846 1634 857 c 0,12,13
 1653 858 1653 858 1667 859 c 1,14,-1
 1668 893 l 2,15,16
 1679 1194 1679 1194 1718 1350 c 0,17,18
 1774 1575 1774 1575 1925 1726 c 0,19,20
 2005 1802 2005 1802 2049 1807 c 0,21,22
 2067 1807 2067 1807 2067 1790 c 0,23,24
 2067 1761 2067 1761 2019 1702 c 0,25,26
 1990 1667 1990 1667 1983 1654 c 0,27,28
 1904 1509 1904 1509 1888 1069 c 0,29,30
 1883 941 1883 941 1882 778 c 0,31,32
 1882 584 1882 584 1880 530 c 0,33,34
 1880 320 1880 320 1867 -116 c 0,35,36
 1862 -268 1862 -268 1858 -316 c 0,37,38
 1832 -598 1832 -598 1750 -758 c 0,39,40
 1689 -878 1689 -878 1585 -969 c 0,41,42
 1522 -1022 1522 -1022 1489 -1022 c 0,43,44
 1472 -1022 1472 -1022 1472 -1005 c 0,45,46
 1472 -977 1472 -977 1499 -945 c 0,47,48
 1543 -894 1543 -894 1563 -851 c 0,49,50
 1609 -757 1609 -757 1630 -587 c 0,51,52
 1648 -441 1648 -441 1651 -248 c 0,53,54
 1656 89 1656 89 1659 205 c 1,55,56
 1561 107 1561 107 1427 44 c 0,57,58
 1299 -16 1299 -16 1179 -16 c 0,59,60
 1060 -16 1060 -16 977 83 c 0,61,62
 934 134 934 134 909 207 c 1,63,-1
 820 133 l 2,64,65
 747 77 747 77 673 43 c 0,66,67
 549 -16 549 -16 423 -16 c 128,-1,68
 297 -16 297 -16 216 81 c 0,69,70
 143 168 143 168 143 291 c 0,71,72
 143 473 143 473 307 663 c 1,73,74
 246 663 246 663 177 680 c 0,75,76
 147 687 147 687 137 695 c 0,77,78
 115 713 115 713 101 758 c 0,79,80
 95 779 95 779 95 799 c 0,81,82
 95 871 95 871 173 955 c 0,83,84
 235 1021 235 1021 282 1030 c 0,85,86
 287 1031 287 1031 292 1031 c 0,87,88
 311 1031 311 1031 311 1012 c 0,0,1
1110 507 m 0,89,90
 1110 374 1110 374 1191 284 c 0,91,92
 1265 202 1265 202 1369 202 c 0,93,94
 1471 202 1471 202 1569 253 c 0,95,96
 1611 275 1611 275 1624 294 c 0,97,98
 1668 361 1668 361 1665 523 c 0,99,100
 1664 567 1664 567 1664 572 c 0,101,102
 1664 681 1664 681 1663 681 c 2,103,-1
 1588 670 l 1,104,105
 1480 660 1480 660 1267 654 c 0,106,107
 1188 653 1188 653 1139 645 c 1,108,109
 1110 587 1110 587 1110 507 c 0,89,90
799 652 m 2,110,111
 562 652 562 652 541 653 c 0,112,113
 416 653 416 653 400 628 c 0,114,115
 362 559 362 559 362 477 c 0,116,117
 362 349 362 349 449 266 c 0,118,119
 503 215 503 215 570 204 c 0,120,121
 579 202 579 202 604 202 c 0,122,123
 727 202 727 202 822 260 c 0,124,125
 860 283 860 283 864 285 c 0,126,127
 880 301 880 301 891 364 c 0,128,129
 912 475 912 475 952 550 c 0,130,131
 976 596 976 596 1012 641 c 0,132,133
 1019 650 1019 650 1019 651 c 2,134,-1
 799 652 l 2,110,111
EndSplineSet
EndChar

StartChar: uniEC72
Encoding: 60530 60530 60
Width: 0
Flags: W
LayerCount: 2
Fore
SplineSet
-284 1486 m 0,0,1
 -284 1547 -284 1547 -324 1575 c 0,2,3
 -341 1587 -341 1587 -361 1587 c 0,4,5
 -441 1587 -441 1587 -615 1365 c 2,6,-1
 -783 1146 l 2,7,8
 -804 1120 -804 1120 -817 1108 c 0,9,10
 -827 1099 -827 1099 -841 1099 c 0,11,12
 -861 1099 -861 1099 -865 1119 c 0,13,14
 -866 1122 -866 1122 -866 1125 c 0,15,16
 -866 1137 -866 1137 -844 1174 c 2,17,-1
 -792 1264 l 2,18,19
 -654 1503 -654 1503 -563 1608 c 0,20,21
 -425 1765 -425 1765 -293 1765 c 0,22,23
 -162 1765 -162 1765 -121 1665 c 0,24,25
 -108 1633 -108 1633 -108 1597 c 0,26,27
 -108 1479 -108 1479 -213 1379 c 0,28,29
 -273 1322 -273 1322 -318 1312 c 0,30,31
 -323 1311 -323 1311 -327 1311 c 2,32,-1
 -333 1311 l 2,33,34
 -352 1311 -352 1311 -352 1327 c 0,35,36
 -352 1346 -352 1346 -327 1376 c 0,37,38
 -291 1420 -291 1420 -285 1464 c 0,39,40
 -284 1474 -284 1474 -284 1486 c 0,0,1
EndSplineSet
EndChar

StartChar: uniE01B
Encoding: 57371 57371 61
Width: 1357
Flags: W
LayerCount: 2
Fore
SplineSet
739 846 m 0,0,1
 952 846 952 846 1019 853 c 0,2,3
 1024 853 1024 853 1024 856 c 2,4,-1
 1026 896 l 1,5,6
 1036 1201 1036 1201 1078 1363 c 0,7,8
 1136 1580 1136 1580 1283 1726 c 0,9,10
 1364 1802 1364 1802 1407 1807 c 0,11,12
 1425 1807 1425 1807 1425 1790 c 0,13,14
 1425 1762 1425 1762 1399 1732 c 0,15,16
 1355 1680 1355 1680 1334 1634 c 0,17,18
 1264 1483 1264 1483 1247 1140 c 0,19,20
 1241 1031 1241 1031 1240 778 c 0,21,22
 1240 387 1240 387 1226 -83 c 0,23,24
 1221 -252 1221 -252 1215 -316 c 0,25,26
 1191 -594 1191 -594 1110 -755 c 0,27,28
 1049 -877 1049 -877 943 -969 c 0,29,30
 880 -1022 880 -1022 847 -1022 c 0,31,32
 830 -1022 830 -1022 830 -1005 c 0,33,34
 830 -983 830 -983 869 -930 c 0,35,36
 925 -853 925 -853 944 -800 c 0,37,38
 990 -661 990 -661 1002 -395 c 1,39,-1
 1017 218 l 2,40,41
 1016 218 1016 218 968 178 c 0,42,43
 734 -16 734 -16 482 -16 c 0,44,45
 333 -16 333 -16 243 89 c 0,46,47
 168 177 168 177 168 302 c 0,48,49
 168 466 168 466 306 633 c 1,50,-1
 326 656 l 1,51,-1
 320 656 l 2,52,53
 241 656 241 656 168 681 c 0,54,55
 150 687 150 687 140 694 c 0,56,57
 108 716 108 716 96 777 c 0,58,59
 94 788 94 788 94 796 c 0,60,61
 94 864 94 864 168 947 c 0,62,63
 231 1018 231 1018 281 1029 c 0,64,65
 288 1031 288 1031 294 1031 c 0,66,67
 313 1031 313 1031 313 1012 c 0,68,69
 313 997 313 997 294 962 c 0,70,71
 289 952 289 952 289 947 c 0,72,73
 289 917 289 917 315 886 c 0,74,75
 319 880 319 880 323 878 c 0,76,77
 383 845 383 845 739 846 c 0,0,1
386 484 m 2,78,79
 386 359 386 359 474 276 c 0,80,81
 552 202 552 202 663 202 c 0,82,83
 788 202 788 202 912 261 c 0,84,85
 976 291 976 291 991 316 c 0,86,87
 1026 373 1026 373 1023 509 c 0,88,89
 1022 542 1022 542 1022 551 c 0,90,91
 1022 678 1022 678 1020 678 c 2,92,-1
 933 663 l 1,93,94
 828 651 828 651 626 651 c 0,95,96
 515 651 515 651 463 640 c 0,97,98
 442 636 442 636 422 629 c 1,99,100
 387 555 387 555 386 490 c 2,101,-1
 386 484 l 2,78,79
EndSplineSet
EndChar

StartChar: uniEC21
Encoding: 60449 60449 62
Width: 0
Flags: W
LayerCount: 2
Fore
SplineSet
-1056 1018 m 0,0,1
 -1056 1062 -1056 1062 -989 1120 c 0,2,3
 -939 1162 -939 1162 -915 1162 c 0,4,5
 -910 1162 -910 1162 -870 1148 c 0,6,7
 -843 1138 -843 1138 -814 1133 c 128,-1,8
 -785 1128 -785 1128 -662 1128 c 2,9,-1
 -556 1128 l 2,10,11
 -486 1128 -486 1128 -426 1128 c 2,12,-1
 -316 1128 l 1,13,14
 -259 1133 -259 1133 -209 1155 c 0,15,16
 -196 1161 -196 1161 -188 1161 c 0,17,18
 -184 1162 -184 1162 -180 1162 c 0,19,20
 -162 1162 -162 1162 -162 1145 c 0,21,22
 -162 1096 -162 1096 -223 1045 c 0,23,24
 -302 980 -302 980 -424 966 c 0,25,26
 -439 964 -439 964 -672 964 c 0,27,28
 -917 964 -917 964 -963 972 c 0,29,30
 -993 977 -993 977 -1039 997 c 1,31,32
 -1054 1009 -1054 1009 -1056 1018 c 0,0,1
EndSplineSet
EndChar

StartChar: uni605C
Encoding: 24668 24668 63
Width: 1062
Flags: W
LayerCount: 2
Fore
SplineSet
737 533 m 0,0,1
 808 533 808 533 849 566 c 0,2,3
 876 588 876 588 890 591 c 0,4,5
 898 593 898 593 907 593 c 0,6,7
 925 593 925 593 925 575 c 0,8,9
 925 543 925 543 875 488 c 0,10,11
 789 393 789 393 670 373 c 0,12,13
 644 369 644 369 617 369 c 0,14,15
 557 369 557 369 430 396 c 0,16,17
 340 415 340 415 288 415 c 0,18,19
 280 415 280 415 271 415 c 0,20,21
 217 415 217 415 178 383 c 0,22,23
 149 359 149 359 131 356 c 0,24,25
 125 355 125 355 118 355 c 0,26,27
 101 355 101 355 101 372 c 2,28,-1
 101 376 l 2,29,30
 101 406 101 406 150 460 c 0,31,32
 238 555 238 555 358 575 c 0,33,34
 384 580 384 580 410 580 c 0,35,36
 450 580 450 580 616 549 c 0,37,38
 705 533 705 533 737 533 c 0,0,1
EndSplineSet
EndChar

StartChar: uniE032
Encoding: 57394 57394 64
Width: 1099
Flags: W
LayerCount: 2
Fore
SplineSet
680 202 m 0,0,1
 852 202 852 202 962 286 c 2,2,-1
 1031 341 l 2,3,4
 1056 358 1056 358 1079 358 c 0,5,6
 1095 358 1095 358 1096 342 c 0,7,8
 1096 309 1096 309 1033 237 c 0,9,10
 922 108 922 108 761 39 c 0,11,12
 638 -13 638 -13 509 -16 c 2,13,-1
 497 -16 l 2,14,15
 360 -16 360 -16 260 66 c 0,16,17
 203 113 203 113 167 183 c 0,18,19
 129 259 129 259 129 344 c 0,20,21
 129 453 129 453 190 558 c 0,22,23
 260 680 260 680 382 774 c 0,24,25
 402 790 402 790 422 803 c 0,26,27
 550 889 550 889 681 889 c 0,28,29
 814 889 814 889 887 835 c 0,30,31
 944 792 944 792 942 723 c 0,32,33
 939 634 939 634 863 591 c 0,34,35
 825 570 825 570 784 570 c 0,36,37
 740 570 740 570 701 601 c 0,38,39
 656 637 656 637 629 648 c 0,40,41
 576 670 576 670 491 670 c 0,42,43
 431 670 431 670 372 645 c 1,44,45
 348 588 348 588 348 531 c 0,46,47
 348 376 348 376 469 276 c 0,48,49
 559 202 559 202 680 202 c 0,0,1
EndSplineSet
EndChar

StartChar: uniEC73
Encoding: 60531 60531 65
Width: 0
Flags: W
LayerCount: 2
Fore
SplineSet
-1226 1100 m 0,0,1
 -1251 1100 -1251 1100 -1251 1125 c 0,2,3
 -1251 1138 -1251 1138 -1239 1155 c 2,4,-1
 -1071 1372 l 2,5,6
 -966 1506 -966 1506 -905 1568 c 0,7,8
 -712 1767 -712 1767 -556 1767 c 0,9,10
 -458 1767 -458 1767 -408 1698 c 0,11,12
 -379 1657 -379 1657 -379 1605 c 0,13,14
 -379 1514 -379 1514 -459 1420 c 0,15,16
 -529 1337 -529 1337 -603 1320 c 0,17,18
 -615 1317 -615 1317 -625 1317 c 0,19,20
 -650 1317 -650 1317 -650 1335 c 0,21,22
 -650 1348 -650 1348 -621 1382 c 0,23,24
 -572 1442 -572 1442 -569 1497 c 0,25,26
 -569 1503 -569 1503 -569 1508 c 0,27,28
 -569 1568 -569 1568 -606 1590 c 0,29,30
 -620 1599 -620 1599 -640 1599 c 0,31,32
 -694 1599 -694 1599 -789 1515 c 0,33,34
 -851 1461 -851 1461 -1001 1307 c 2,35,-1
 -1144 1163 l 2,36,37
 -1204 1105 -1204 1105 -1215 1101 c 0,38,39
 -1219 1100 -1219 1100 -1226 1100 c 0,0,1
EndSplineSet
EndChar

StartChar: uniEBD9
Encoding: 60377 60377 66
Width: 870
Flags: W
LayerCount: 2
Fore
SplineSet
44 43 m 2,0,-1
 -330 36 l 2,1,2
 -354 36 -354 36 -357 46 c 0,3,4
 -358 49 -358 49 -358 55 c 0,5,6
 -358 105 -358 105 -279 174 c 0,7,8
 -223 223 -223 223 -192 229 c 1,9,10
 -105 234 -105 234 122 238 c 0,11,12
 135 238 135 238 174 238 c 2,13,-1
 342 240 l 1,14,15
 821 229 821 229 887 -87 c 0,16,17
 895 -125 895 -125 895 -163 c 0,18,19
 895 -294 895 -294 797 -434 c 0,20,21
 695 -580 695 -580 546 -645 c 0,22,23
 457 -684 457 -684 366 -684 c 0,24,25
 273 -684 273 -684 186 -639 c 0,26,27
 75 -581 75 -581 43 -469 c 0,28,29
 35 -440 35 -440 35 -413 c 0,30,31
 35 -332 35 -332 113 -235 c 0,32,33
 177 -156 177 -156 233 -139 c 0,34,35
 243 -136 243 -136 252 -136 c 0,36,37
 271 -136 271 -136 271 -155 c 0,38,39
 271 -177 271 -177 247 -210 c 0,40,41
 230 -235 230 -235 230 -253 c 0,42,43
 230 -328 230 -328 295 -397 c 0,44,45
 385 -490 385 -490 525 -490 c 0,46,47
 592 -490 592 -490 646 -465 c 0,48,49
 662 -458 662 -458 666 -452 c 0,50,51
 689 -419 689 -419 698 -352 c 0,52,53
 700 -335 700 -335 700 -319 c 0,54,55
 700 -192 700 -192 613 -95 c 0,56,57
 540 -13 540 -13 429 14 c 0,58,59
 327 38 327 38 145 43 c 0,60,61
 122 43 122 43 101 43 c 0,62,63
 78 43 78 43 44 43 c 2,0,-1
EndSplineSet
EndChar

StartChar: uniE02E
Encoding: 57390 57390 67
Width: 667
Flags: W
LayerCount: 2
Fore
SplineSet
60 598 m 0,0,1
 60 636 60 636 128 709 c 0,2,3
 226 814 226 814 341 854 c 0,4,5
 379 868 379 868 414 871 c 2,6,-1
 435 871 l 2,7,8
 513 871 513 871 535 771 c 0,9,10
 537 759 537 759 539 745 c 0,11,12
 540 736 540 736 540 703 c 0,13,14
 540 367 540 367 523 282 c 0,15,16
 513 231 513 231 478 173 c 0,17,18
 420 79 420 79 338 18 c 0,19,20
 293 -16 293 -16 267 -16 c 0,21,22
 249 -16 249 -16 249 1 c 0,23,24
 249 27 249 27 270 52 c 0,25,26
 301 90 301 90 311 141 c 0,27,28
 315 165 315 165 317 196 c 0,29,30
 322 268 322 268 322 527 c 1,31,32
 314 645 314 645 249 653 c 1,33,34
 194 653 194 653 149 616 c 0,35,36
 115 588 115 588 99 583 c 0,37,38
 89 580 89 580 78 580 c 0,39,40
 60 580 60 580 60 598 c 0,0,1
EndSplineSet
EndChar

StartChar: uniE002
Encoding: 57346 57346 68
Width: 1294
Flags: W
LayerCount: 2
Fore
SplineSet
417 -16 m 0,0,1
 277 -16 277 -16 183 84 c 0,2,3
 92 182 92 182 92 325 c 0,4,5
 92 461 92 461 198 614 c 0,6,7
 302 763 302 763 445 838 c 0,8,9
 528 881 528 881 609 888 c 1,10,-1
 641 888 l 1,11,12
 792 884 792 884 795 768 c 0,13,14
 795 667 795 667 703 625 c 0,15,16
 667 608 667 608 638 608 c 0,17,18
 598 608 598 608 564 634 c 0,19,20
 526 661 526 661 493 667 c 0,21,22
 474 670 474 670 449 670 c 0,23,24
 353 670 353 670 337 634 c 0,25,26
 311 575 311 575 311 507 c 0,27,28
 311 398 311 398 380 309 c 0,29,30
 401 283 401 283 425 264 c 0,31,32
 504 202 504 202 599 202 c 0,33,34
 715 202 715 202 841 260 c 0,35,36
 911 292 911 292 926 317 c 0,37,38
 959 374 959 374 957 498 c 0,39,40
 957 514 957 514 957 520 c 0,41,42
 957 659 957 659 1082 789 c 0,43,44
 1152 862 1152 862 1209 884 c 0,45,46
 1221 889 1221 889 1228 889 c 0,47,48
 1245 889 1245 889 1245 870 c 0,49,50
 1243 843 1243 843 1203 792 c 0,51,52
 1181 763 1181 763 1178 751 c 0,53,54
 1173 731 1173 731 1173 519 c 1,55,-1
 1167 265 l 1,56,57
 1167 -292 1167 -292 1124 -519 c 0,58,59
 1107 -608 1107 -608 1081 -677 c 0,60,61
 1025 -825 1025 -825 909 -940 c 0,62,63
 829 -1020 829 -1020 784 -1022 c 0,64,65
 766 -1022 766 -1022 766 -1003 c 0,66,67
 766 -977 766 -977 792 -946 c 0,68,69
 837 -893 837 -893 859 -844 c 0,70,71
 924 -701 924 -701 939 -396 c 0,72,73
 943 -326 943 -326 949 92 c 0,74,75
 951 165 951 165 952 218 c 1,76,-1
 886 163 l 1,77,78
 663 -12 663 -12 428 -16 c 0,79,80
 422 -16 422 -16 417 -16 c 0,0,1
EndSplineSet
EndChar

StartChar: uniE013
Encoding: 57363 57363 69
Width: 2037
Flags: W
LayerCount: 2
Fore
SplineSet
90 799 m 0,0,1
 90 869 90 869 167 953 c 0,2,3
 229 1020 229 1020 276 1030 c 0,4,5
 282 1031 282 1031 287 1031 c 0,6,7
 306 1031 306 1031 306 1012 c 0,8,9
 306 990 306 990 288 963 c 0,10,11
 285 959 285 959 284 956 c 0,12,13
 290 903 290 903 313 882 c 0,14,15
 315 880 315 880 317 879 c 0,16,17
 383 846 383 846 1004 846 c 0,18,19
 1830 846 1830 846 1908 882 c 0,20,21
 1912 884 1912 884 1914 886 c 0,22,23
 1959 923 1959 923 1990 923 c 0,24,25
 2009 923 2009 923 2009 904 c 0,26,27
 2009 856 2009 856 1901 758 c 0,28,29
 1898 755 1898 755 1897 754 c 0,30,31
 1882 723 1882 723 1878 612 c 0,32,33
 1877 603 1877 603 1877 596 c 0,34,35
 1877 500 1877 500 1906 285 c 0,36,37
 1917 210 1917 210 1917 182 c 0,38,39
 1917 149 1917 149 1853 78 c 0,40,41
 1780 -4 1780 -4 1728 -15 c 0,42,43
 1721 -16 1721 -16 1716 -16 c 0,44,45
 1702 -16 1702 -16 1698 4 c 2,46,-1
 1672 222 l 1,47,-1
 1657 208 l 2,48,49
 1436 0 1436 0 1211 -15 c 0,50,51
 1196 -16 1196 -16 1182 -16 c 0,52,53
 1047 -16 1047 -16 963 94 c 0,54,55
 927 142 927 142 904 207 c 1,56,57
 797 100 797 100 657 38 c 0,58,59
 536 -16 536 -16 419 -16 c 0,60,61
 295 -16 295 -16 213 81 c 0,62,63
 139 169 139 169 139 292 c 0,64,65
 139 472 139 472 295 653 c 0,66,67
 302 660 302 660 302 662 c 0,68,69
 302 663 302 663 283 665 c 0,70,71
 223 665 223 665 162 682 c 0,72,73
 135 690 135 690 127 699 c 0,74,75
 102 726 102 726 93 773 c 0,76,77
 90 787 90 787 90 799 c 0,0,1
1659 443 m 0,78,79
 1669 598 1669 598 1716 678 c 1,80,81
 1704 666 1704 666 1357 656 c 0,82,83
 1313 654 1313 654 1287 654 c 0,84,85
 1147 652 1147 652 1136 644 c 0,86,87
 1133 642 1133 642 1131 636 c 0,88,89
 1105 578 1105 578 1105 507 c 0,90,91
 1105 366 1105 366 1199 274 c 0,92,93
 1258 217 1258 217 1330 204 c 0,94,95
 1339 202 1339 202 1363 202 c 0,96,97
 1472 202 1472 202 1568 256 c 0,98,99
 1607 277 1607 277 1620 296 c 0,100,101
 1653 346 1653 346 1659 443 c 0,78,79
358 477 m 0,102,103
 358 353 358 353 437 272 c 0,104,105
 505 202 505 202 600 202 c 0,106,107
 715 202 715 202 817 256 c 0,108,109
 846 272 846 272 860 286 c 0,110,111
 878 304 878 304 887 358 c 0,112,113
 902 455 902 455 936 524 c 0,114,115
 965 585 965 585 1015 651 c 1,116,-1
 824 651 l 1,117,-1
 560 653 l 2,118,119
 420 653 420 653 401 634 c 0,120,121
 398 632 398 632 396 628 c 0,122,123
 358 558 358 558 358 477 c 0,102,103
EndSplineSet
EndChar

StartChar: uniE00B
Encoding: 57355 57355 70
Width: 1361
Flags: W
LayerCount: 2
Fore
SplineSet
757 846 m 0,0,1
 868 846 868 846 1004 852 c 0,2,3
 1015 853 1015 853 1025 853 c 1,4,-1
 1027 891 l 1,5,6
 1037 1197 1037 1197 1076 1353 c 0,7,8
 1133 1577 1133 1577 1288 1731 c 0,9,10
 1366 1808 1366 1808 1408 1808 c 0,11,12
 1426 1808 1426 1808 1426 1790 c 0,13,14
 1426 1763 1426 1763 1400 1733 c 0,15,16
 1355 1680 1355 1680 1334 1632 c 0,17,18
 1274 1503 1274 1503 1254 1237 c 0,19,20
 1239 1045 1239 1045 1239 587 c 0,21,22
 1239 367 1239 367 1262 238 c 0,23,24
 1268 205 1268 205 1268 182 c 0,25,26
 1268 149 1268 149 1205 78 c 0,27,28
 1132 -3 1132 -3 1080 -15 c 0,29,30
 1073 -16 1073 -16 1068 -16 c 0,31,32
 1054 -16 1054 -16 1050 2 c 0,33,34
 1050 4 1050 4 1049 10 c 0,35,36
 1031 123 1031 123 1024 221 c 1,37,-1
 1024 225 l 1,38,39
 758 -3 758 -3 519 -15 c 0,40,41
 501 -16 501 -16 482 -16 c 0,42,43
 334 -16 334 -16 244 87 c 0,44,45
 167 175 167 175 167 301 c 0,46,47
 167 474 167 474 325 656 c 1,48,-1
 320 656 l 1,49,50
 190 666 190 666 145 693 c 0,51,52
 94 724 94 724 94 795 c 128,-1,53
 94 866 94 866 171 950 c 0,54,55
 233 1019 233 1019 283 1029 c 0,56,57
 289 1031 289 1031 294 1031 c 0,58,59
 313 1031 313 1031 313 1011 c 0,60,61
 313 996 313 996 294 962 c 0,62,63
 288 951 288 951 288 946 c 0,64,65
 288 923 288 923 308 893 c 0,66,67
 316 883 316 883 323 878 c 0,68,69
 378 845 378 845 740 846 c 0,70,71
 751 846 751 846 757 846 c 0,0,1
385 485 m 0,72,73
 385 356 385 356 473 275 c 0,74,75
 551 202 551 202 668 202 c 0,76,77
 748 202 748 202 854 237 c 0,78,79
 975 277 975 277 999 332 c 0,80,81
 1017 371 1017 371 1020 426 c 0,82,83
 1023 476 1023 476 1023 652 c 0,84,85
 1023 678 1023 678 1021 678 c 2,86,-1
 940 664 l 1,87,88
 836 651 836 651 625 651 c 0,89,90
 484 651 484 651 437 634 c 0,91,92
 424 629 424 629 421 628 c 0,93,94
 388 556 388 556 386 501 c 0,95,96
 385 493 385 493 385 485 c 0,72,73
EndSplineSet
EndChar

StartChar: uniE00A
Encoding: 57354 57354 71
Width: 1294
Flags: W
LayerCount: 2
Fore
SplineSet
633 609 m 0,0,1
 593 609 593 609 558 634 c 0,2,3
 520 662 520 662 485 668 c 0,4,5
 468 670 468 670 446 670 c 0,6,7
 394 670 394 670 339 648 c 1,8,9
 308 579 308 579 307 523 c 0,10,11
 306 516 306 516 306 510 c 0,12,13
 306 398 306 398 376 309 c 0,14,15
 397 283 397 283 421 264 c 0,16,17
 500 202 500 202 595 202 c 0,18,19
 729 202 729 202 848 262 c 0,20,21
 906 291 906 291 923 317 c 0,22,23
 956 368 956 368 959 575 c 2,24,-1
 960 915 l 1,25,26
 970 1323 970 1323 1074 1534 c 0,27,28
 1093 1572 1093 1572 1115 1606 c 0,29,30
 1181 1706 1181 1706 1263 1769 c 0,31,32
 1311 1808 1311 1808 1339 1808 c 0,33,34
 1357 1808 1357 1808 1357 1790 c 0,35,36
 1357 1761 1357 1761 1330 1730 c 0,37,38
 1288 1681 1288 1681 1268 1641 c 0,39,40
 1206 1514 1206 1514 1185 1237 c 0,41,42
 1171 1038 1171 1038 1171 582 c 0,43,44
 1171 365 1171 365 1194 237 c 0,45,46
 1200 204 1200 204 1200 182 c 0,47,48
 1200 149 1200 149 1136 78 c 0,49,50
 1064 -3 1064 -3 1011 -15 c 0,51,52
 1004 -16 1004 -16 999 -16 c 0,53,54
 985 -16 985 -16 982 0 c 0,55,56
 981 2 981 2 980 10 c 0,57,58
 963 125 963 125 955 225 c 1,59,60
 763 60 763 60 596 11 c 0,61,62
 504 -16 504 -16 406 -16 c 0,63,64
 301 -16 301 -16 211 55 c 0,65,66
 184 76 184 76 166 100 c 0,67,68
 88 199 88 199 88 326 c 0,69,70
 88 484 88 484 214 644 c 0,71,72
 323 782 323 782 466 849 c 0,73,74
 552 889 552 889 627 889 c 0,75,76
 791 889 791 889 791 767 c 0,77,78
 791 680 791 680 709 631 c 0,79,80
 686 617 686 617 667 612 c 0,81,82
 655 609 655 609 633 609 c 0,0,1
EndSplineSet
EndChar

StartChar: uniE009
Encoding: 57353 57353 72
Width: 1353
Flags: W
LayerCount: 2
Fore
SplineSet
918 1 m 2,0,-1
 525 10 l 1,1,2
 325 10 325 10 180 -11 c 0,3,4
 144 -16 144 -16 119 -16 c 0,5,6
 103 -16 103 -16 103 1 c 0,7,8
 103 33 103 33 123 54 c 0,9,10
 149 82 149 82 158 115 c 0,11,12
 168 147 168 147 171 197 c 0,13,14
 174 237 174 237 174 567 c 0,15,16
 174 814 174 814 182 961 c 0,17,18
 197 1254 197 1254 244 1407 c 0,19,20
 301 1592 301 1592 441 1731 c 0,21,22
 518 1808 518 1808 561 1808 c 0,23,24
 579 1808 579 1808 579 1790 c 0,25,26
 579 1756 579 1756 513 1679 c 0,27,28
 501 1666 501 1666 499 1662 c 0,29,30
 394 1481 394 1481 394 847 c 0,31,32
 393 774 393 774 393 659 c 2,33,-1
 392 604 l 1,34,-1
 413 624 l 2,35,36
 528 739 528 739 667 813 c 0,37,38
 808 888 808 888 928 888 c 0,39,40
 1077 888 1077 888 1166 783 c 0,41,42
 1241 695 1241 695 1241 572 c 0,43,44
 1241 401 1241 401 1092 226 c 1,45,-1
 1064 196 l 1,46,-1
 1088 196 l 2,47,48
 1095 196 1095 196 1105 196 c 0,49,50
 1261 196 1261 196 1301 230 c 0,51,52
 1357 278 1357 278 1388 278 c 0,53,54
 1408 278 1408 278 1408 259 c 0,55,56
 1408 199 1408 199 1295 109 c 0,57,58
 1234 62 1234 62 1190 42 c 0,59,60
 1112 9 1112 9 999 3 c 0,61,62
 963 1 963 1 918 1 c 2,0,-1
1023 388 m 0,63,64
 1023 516 1023 516 936 597 c 0,65,66
 857 670 857 670 739 670 c 0,67,68
 639 670 639 670 527 601 c 0,69,70
 475 568 475 568 454 540 c 0,71,72
 408 477 408 477 393 384 c 0,73,74
 377 287 377 287 369 259 c 0,75,76
 358 222 358 222 339 186 c 1,77,-1
 372 189 l 2,78,79
 532 205 532 205 684 205 c 2,80,-1
 846 201 l 2,81,82
 914 201 914 201 968 229 c 0,83,84
 1008 249 1008 249 1021 360 c 0,85,86
 1023 378 1023 378 1023 388 c 0,63,64
EndSplineSet
EndChar

StartChar: uniE00E
Encoding: 57358 57358 73
Width: 1941
Flags: W
LayerCount: 2
Fore
SplineSet
1342 608 m 0,0,1
 1306 608 1306 608 1270 634 c 0,2,3
 1230 663 1230 663 1192 668 c 0,4,5
 1176 670 1176 670 1157 670 c 0,6,7
 1095 670 1095 670 1082 652 c 0,8,9
 1079 648 1079 648 1074 636 c 0,10,11
 1048 576 1048 576 1048 505 c 0,12,13
 1048 366 1048 366 1142 274 c 0,14,15
 1201 217 1201 217 1272 204 c 0,16,17
 1282 202 1282 202 1306 202 c 0,18,19
 1408 202 1408 202 1507 253 c 0,20,21
 1550 275 1550 275 1563 294 c 0,22,23
 1596 343 1596 343 1601 441 c 2,24,-1
 1607 855 l 2,25,26
 1607 876 1607 876 1608 897 c 0,27,28
 1618 1202 1618 1202 1659 1361 c 0,29,30
 1716 1582 1716 1582 1869 1731 c 0,31,32
 1947 1808 1947 1808 1989 1808 c 0,33,34
 2006 1808 2006 1808 2006 1790 c 0,35,36
 2006 1761 2006 1761 1980 1730 c 0,37,38
 1937 1681 1937 1681 1918 1640 c 0,39,40
 1856 1513 1856 1513 1835 1237 c 0,41,42
 1820 1045 1820 1045 1820 582 c 0,43,44
 1820 365 1820 365 1843 237 c 0,45,46
 1849 204 1849 204 1849 182 c 0,47,48
 1849 148 1849 148 1786 78 c 0,49,50
 1714 -2 1714 -2 1661 -14 c 0,51,52
 1654 -16 1654 -16 1648 -16 c 0,53,54
 1618 -16 1618 -16 1608 160 c 0,55,56
 1606 189 1606 189 1606 206 c 2,57,-1
 1605 212 l 1,58,59
 1356 -16 1356 -16 1125 -16 c 0,60,61
 994 -16 994 -16 910 89 c 0,62,63
 869 140 869 140 846 210 c 1,64,65
 645 9 645 9 413 -14 c 0,66,67
 387 -16 387 -16 363 -16 c 0,68,69
 225 -16 225 -16 141 105 c 0,70,71
 92 175 92 175 80 261 c 0,72,73
 76 289 76 289 76 318 c 0,74,75
 76 474 76 474 197 638 c 0,76,77
 301 777 301 777 437 846 c 0,78,79
 520 888 520 888 592 888 c 0,80,81
 753 888 753 888 753 767 c 0,82,83
 753 718 753 718 720 672 c 0,84,85
 676 609 676 609 595 609 c 0,86,87
 554 609 554 609 519 635 c 0,88,89
 482 662 482 662 447 667 c 0,90,91
 429 670 429 670 408 670 c 0,92,93
 345 670 345 670 330 650 c 0,94,95
 327 645 327 645 323 636 c 0,96,97
 294 572 294 572 294 502 c 0,98,99
 294 377 294 377 373 286 c 0,100,101
 380 278 380 278 387 271 c 0,102,103
 458 202 458 202 546 202 c 0,104,105
 654 202 654 202 745 248 c 0,106,107
 781 266 781 266 792 283 c 0,108,109
 811 312 811 312 833 394 c 0,110,111
 864 513 864 513 917 595 c 0,112,113
 957 656 957 656 1017 717 c 0,114,115
 1153 856 1153 856 1275 881 c 0,116,117
 1307 888 1307 888 1341 888 c 0,118,119
 1495 880 1495 880 1501 772 c 1,120,121
 1501 686 1501 686 1435 638 c 0,122,123
 1393 608 1393 608 1342 608 c 0,0,1
EndSplineSet
EndChar

StartChar: uniE012
Encoding: 57362 57362 74
Width: 1966
Flags: W
LayerCount: 2
Fore
SplineSet
1857 182 m 0,0,1
 1857 132 1857 132 1772 55 c 0,2,3
 1703 -7 1703 -7 1663 -15 c 0,4,5
 1660 -16 1660 -16 1657 -16 c 0,6,7
 1643 -16 1643 -16 1638 4 c 2,8,-1
 1621 158 l 2,9,10
 1614 218 1614 218 1613 219 c 2,11,-1
 1613 222 l 1,12,-1
 1598 208 l 2,13,14
 1389 11 1389 11 1172 -13 c 0,15,16
 1147 -16 1147 -16 1123 -16 c 0,17,18
 928 -16 928 -16 844 210 c 1,19,-1
 828 195 l 2,20,21
 622 -1 622 -1 395 -16 c 0,22,23
 379 -17 379 -17 364 -17 c 0,24,25
 215 -17 215 -17 130 119 c 0,26,27
 119 136 119 136 110 155 c 0,28,29
 74 229 74 229 74 314 c 0,30,31
 74 466 74 466 192 631 c 0,32,33
 295 772 295 772 428 844 c 0,34,35
 495 883 495 883 569 888 c 0,36,37
 572 888 572 888 582 888 c 0,38,39
 718 888 718 888 745 816 c 0,40,41
 753 795 753 795 753 768 c 0,42,43
 753 707 753 707 706 657 c 0,44,45
 660 609 660 609 596 609 c 0,46,47
 586 608 586 608 582 608 c 0,48,49
 553 608 553 608 521 633 c 0,50,51
 480 663 480 663 439 669 c 0,52,53
 425 670 425 670 409 670 c 0,54,55
 337 670 337 670 324 642 c 1,56,57
 331 658 331 658 320 634 c 0,58,59
 292 571 292 571 292 501 c 0,60,61
 292 359 292 359 389 269 c 0,62,63
 451 210 451 210 523 203 c 0,64,65
 531 202 531 202 545 202 c 0,66,67
 646 202 646 202 741 246 c 0,68,69
 771 260 771 260 784 273 c 0,70,71
 808 297 808 297 826 370 c 0,72,73
 855 482 855 482 888 546 c 0,74,75
 936 638 936 638 1022 724 c 0,76,77
 1182 884 1182 884 1326 888 c 1,78,-1
 1338 888 l 2,79,80
 1500 888 1500 888 1500 766 c 0,81,82
 1500 680 1500 680 1417 631 c 0,83,84
 1394 617 1394 617 1374 612 c 0,85,86
 1363 609 1363 609 1341 609 c 0,87,88
 1301 609 1301 609 1267 635 c 0,89,90
 1230 662 1230 662 1196 667 c 0,91,92
 1179 670 1179 670 1158 670 c 2,93,-1
 1146 670 l 2,94,95
 1069 670 1069 670 1053 589 c 0,96,97
 1046 559 1046 559 1046 508 c 0,98,99
 1046 364 1046 364 1141 273 c 0,100,101
 1199 217 1199 217 1270 204 c 0,102,103
 1280 202 1280 202 1305 202 c 0,104,105
 1411 202 1411 202 1508 254 c 0,106,107
 1548 275 1548 275 1560 294 c 0,108,109
 1595 345 1595 345 1600 424 c 0,110,111
 1606 521 1606 521 1613 554 c 0,112,113
 1618 580 1618 580 1626 605 c 0,114,115
 1651 681 1651 681 1719 768 c 0,116,117
 1793 861 1793 861 1865 886 c 0,118,119
 1872 888 1872 888 1881 888 c 0,120,121
 1898 888 1898 888 1898 871 c 0,122,123
 1898 850 1898 850 1876 819 c 0,124,125
 1837 767 1837 767 1825 699 c 0,126,127
 1818 653 1818 653 1818 593 c 0,128,129
 1818 498 1818 498 1846 291 c 0,130,131
 1857 212 1857 212 1857 182 c 0,0,1
EndSplineSet
EndChar

StartChar: uniE016
Encoding: 57366 57366 75
Width: 1316
Flags: W
LayerCount: 2
Fore
SplineSet
418 -16 m 0,0,1
 275 -16 275 -16 180 87 c 0,2,3
 90 186 90 186 90 326 c 0,4,5
 90 479 90 479 216 641 c 0,6,7
 321 776 321 776 455 844 c 0,8,9
 526 880 526 880 607 888 c 1,10,-1
 637 888 l 2,11,12
 773 888 773 888 791 794 c 0,13,14
 793 782 793 782 793 769 c 0,15,16
 793 707 793 707 745 656 c 0,17,18
 699 608 699 608 634 608 c 0,19,20
 596 608 596 608 561 633 c 0,21,22
 522 662 522 662 486 667 c 0,23,24
 468 670 468 670 447 670 c 0,25,26
 357 670 357 670 338 639 c 0,27,28
 334 634 334 634 325 610 c 0,29,30
 308 562 308 562 308 509 c 0,31,32
 308 402 308 402 374 315 c 0,33,34
 444 221 444 221 558 204 c 0,35,36
 575 202 575 202 599 202 c 0,37,38
 678 202 678 202 784 236 c 0,39,40
 903 275 903 275 930 330 c 0,41,42
 947 364 947 364 954 453 c 0,43,44
 963 570 963 570 993 641 c 0,45,46
 1032 730 1032 730 1116 814 c 0,47,48
 1191 888 1191 888 1235 888 c 0,49,50
 1252 888 1252 888 1252 871 c 0,51,52
 1252 850 1252 850 1230 819 c 0,53,54
 1191 767 1191 767 1179 699 c 0,55,56
 1172 653 1172 653 1172 593 c 0,57,58
 1172 505 1172 505 1201 285 c 0,59,60
 1211 209 1211 209 1211 183 c 0,61,62
 1211 131 1211 131 1125 54 c 0,63,64
 1057 -8 1057 -8 1017 -15 c 0,65,66
 1014 -16 1014 -16 1011 -16 c 0,67,68
 998 -16 998 -16 994 -1 c 0,69,70
 992 5 992 5 974 158 c 2,71,-1
 966 229 l 1,72,-1
 965 234 l 1,73,74
 692 -16 692 -16 418 -16 c 0,0,1
EndSplineSet
EndChar

StartChar: uniE025
Encoding: 57381 57381 76
Width: 1224
Flags: W
LayerCount: 2
Fore
SplineSet
111 335 m 0,0,1
 111 511 111 511 261 678 c 0,2,3
 385 816 385 816 550 884 c 0,4,5
 647 923 647 923 730 923 c 0,6,7
 920 923 920 923 1031 805 c 0,8,9
 1124 705 1124 705 1124 563 c 0,10,11
 1124 383 1124 383 967 133 c 0,12,13
 938 89 938 89 905 41 c 2,14,-1
 622 -362 l 1,15,16
 501 -545 501 -545 490 -639 c 0,17,18
 489 -652 489 -652 489 -665 c 0,19,20
 489 -720 489 -720 523 -761 c 0,21,22
 538 -778 538 -778 538 -786 c 0,23,24
 538 -820 538 -820 475 -891 c 0,25,26
 403 -974 403 -974 349 -986 c 0,27,28
 342 -987 342 -987 336 -987 c 0,29,30
 315 -987 315 -987 292 -940 c 0,31,32
 270 -893 270 -893 270 -848 c 0,33,34
 270 -709 270 -709 443 -446 c 0,35,36
 477 -394 477 -394 651 -149 c 0,37,38
 744 -18 744 -18 792 62 c 0,39,40
 906 253 906 253 906 379 c 0,41,42
 906 501 906 501 821 594 c 0,43,44
 746 676 746 676 628 699 c 0,45,46
 596 705 596 705 560 705 c 0,47,48
 492 705 492 705 421 683 c 0,49,50
 367 666 367 666 356 643 c 0,51,52
 329 589 329 589 329 519 c 0,53,54
 329 433 329 433 368 381 c 0,55,56
 396 343 396 343 401 331 c 0,57,58
 409 312 409 312 409 287 c 0,59,60
 409 206 409 206 337 157 c 0,61,62
 294 128 294 128 250 128 c 0,63,64
 152 128 152 128 122 247 c 0,65,66
 111 288 111 288 111 335 c 0,0,1
EndSplineSet
EndChar

StartChar: uniE022
Encoding: 57378 57378 77
Width: 1976
Flags: W
LayerCount: 2
Fore
SplineSet
665 699 m 0,0,1
 568 708 568 708 465 709 c 0,2,3
 255 709 255 709 168 646 c 2,4,-1
 126 615 l 2,5,6
 110 606 110 606 92 606 c 128,-1,7
 74 606 74 606 74 625 c 0,8,9
 75 665 75 665 147 740 c 0,10,11
 160 753 160 753 174 766 c 0,12,13
 305 886 305 886 468 914 c 0,14,15
 541 927 541 927 643 927 c 0,16,17
 791 927 791 927 1107 888 c 0,18,19
 1415 850 1415 850 1561 850 c 0,20,21
 1767 850 1767 850 1852 913 c 2,22,-1
 1893 945 l 2,23,24
 1908 954 1908 954 1927 954 c 0,25,26
 1945 954 1945 954 1945 937 c 0,27,28
 1945 892 1945 892 1863 810 c 0,29,30
 1816 763 1816 763 1763 728 c 0,31,32
 1639 645 1639 645 1452 634 c 0,33,34
 1416 632 1416 632 1374 632 c 0,35,36
 1242 632 1242 632 940 667 c 2,37,-1
 785 686 l 1,38,-1
 767 671 l 1,39,40
 546 474 546 474 463 306 c 0,41,42
 400 178 400 178 400 47 c 0,43,44
 400 -202 400 -202 564 -376 c 0,45,46
 707 -529 707 -529 924 -572 c 0,47,48
 995 -587 995 -587 1068 -587 c 0,49,50
 1231 -587 1231 -587 1375 -519 c 0,51,52
 1444 -486 1444 -486 1498 -440 c 0,53,54
 1551 -394 1551 -394 1603 -308 c 0,55,56
 1666 -204 1666 -204 1666 -122 c 0,57,58
 1666 -61 1666 -61 1633 -17 c 0,59,60
 1606 17 1606 17 1601 36 c 0,61,62
 1597 50 1597 50 1597 68 c 0,63,64
 1597 170 1597 170 1691 213 c 0,65,66
 1726 229 1726 229 1755 229 c 0,67,68
 1840 229 1840 229 1870 147 c 0,69,70
 1884 109 1884 109 1884 56 c 0,71,72
 1884 -112 1884 -112 1686 -361 c 0,73,74
 1604 -463 1604 -463 1530 -530 c 0,75,76
 1225 -805 1225 -805 885 -805 c 0,77,78
 634 -805 634 -805 443 -663 c 0,79,80
 267 -533 267 -533 207 -329 c 0,81,82
 181 -242 181 -242 181 -150 c 0,83,84
 181 181 181 181 528 558 c 0,85,86
 586 621 586 621 654 686 c 0,87,88
 665 697 665 697 665 699 c 0,0,1
EndSplineSet
EndChar

StartChar: uniE026
Encoding: 57382 57382 78
Width: 1224
Flags: W
LayerCount: 2
Fore
SplineSet
732 1607 m 0,0,1
 732 1658 732 1658 817 1736 c 1,2,3
 892 1799 892 1799 932 1807 c 0,4,5
 952 1807 952 1807 973 1767 c 0,6,7
 996 1725 996 1725 996 1671 c 0,8,9
 996 1555 996 1555 851 1337 c 0,10,11
 784 1235 784 1235 666 1081 c 0,12,13
 458 809 458 809 402 688 c 0,14,15
 363 603 363 603 363 527 c 0,16,17
 363 380 363 380 480 284 c 0,18,19
 563 217 563 217 665 204 c 0,20,21
 678 202 678 202 706 202 c 0,22,23
 801 202 801 202 877 237 c 0,24,25
 893 244 893 244 906 252 c 0,26,27
 921 261 921 261 934 329 c 0,28,29
 941 362 941 362 941 389 c 0,30,31
 941 475 941 475 901 527 c 0,32,33
 874 562 874 562 869 573 c 0,34,35
 860 593 860 593 860 620 c 0,36,37
 860 678 860 678 906 728 c 0,38,39
 953 779 953 779 1020 779 c 0,40,41
 1088 779 1088 779 1127 715 c 0,42,43
 1159 662 1159 662 1159 573 c 0,44,45
 1159 431 1159 431 1046 277 c 0,46,47
 932 121 932 121 765 42 c 0,48,49
 644 -16 644 -16 523 -16 c 0,50,51
 484 -16 484 -16 443 -9 c 1,52,53
 396 -65 396 -65 366 -183 c 0,54,55
 345 -263 345 -263 345 -337 c 0,56,57
 345 -476 345 -476 445 -572 c 0,58,59
 546 -668 546 -668 693 -668 c 0,60,61
 791 -668 791 -668 869 -629 c 0,62,63
 884 -621 884 -621 889 -619 c 0,64,65
 909 -599 909 -599 920 -529 c 0,66,67
 924 -504 924 -504 924 -483 c 0,68,69
 924 -396 924 -396 884 -344 c 0,70,71
 856 -308 856 -308 852 -297 c 0,72,73
 843 -277 843 -277 843 -250 c 0,74,75
 843 -173 843 -173 911 -124 c 0,76,77
 956 -91 956 -91 1002 -91 c 0,78,79
 1083 -91 1083 -91 1119 -171 c 0,80,81
 1141 -221 1141 -221 1141 -297 c 0,82,83
 1141 -467 1141 -467 996 -635 c 0,84,85
 888 -761 888 -761 750 -828 c 0,86,87
 633 -886 633 -886 513 -886 c 0,88,89
 339 -886 339 -886 229 -775 c 0,90,91
 127 -673 127 -673 127 -524 c 0,92,93
 127 -243 127 -243 337 7 c 0,94,95
 349 21 349 21 349 23 c 2,96,-1
 309 43 l 1,97,98
 278 63 278 63 243 99 c 0,99,100
 145 199 145 199 145 343 c 0,101,102
 145 519 145 519 334 794 c 0,103,104
 382 865 382 865 552 1087 c 0,105,106
 708 1290 708 1290 751 1387 c 0,107,108
 778 1448 778 1448 778 1493 c 0,109,110
 778 1542 778 1542 746 1582 c 0,111,112
 732 1599 732 1599 732 1607 c 0,0,1
EndSplineSet
EndChar

StartChar: uniE02A
Encoding: 57386 57386 79
Width: 1257
Flags: W
LayerCount: 2
Fore
SplineSet
228 636 m 0,0,1
 228 672 228 672 294 743 c 0,2,3
 386 843 386 843 488 876 c 0,4,5
 515 886 515 886 546 888 c 0,6,7
 550 889 550 889 559 889 c 0,8,9
 663 889 663 889 724 815 c 0,10,11
 730 808 730 808 735 800 c 0,12,13
 742 790 742 790 882 524 c 2,14,-1
 1000 298 l 1,15,16
 1052 209 1052 209 1098 188 c 0,17,18
 1119 178 1119 178 1145 178 c 0,19,20
 1173 178 1173 178 1214 214 c 128,-1,21
 1255 250 1255 250 1278 255 c 0,22,23
 1285 256 1285 256 1292 256 c 0,24,25
 1311 256 1311 256 1311 235 c 0,26,27
 1311 199 1311 199 1243 126 c 0,28,29
 1151 28 1151 28 1053 -5 c 0,30,31
 1018 -16 1018 -16 988 -16 c 0,32,33
 892 -16 892 -16 837 77 c 0,34,35
 826 95 826 95 740 257 c 2,36,-1
 649 428 l 1,37,-1
 630 402 l 2,38,39
 540 274 540 274 520 248 c 0,40,41
 314 -16 314 -16 156 -16 c 0,42,43
 102 -16 102 -16 58 38 c 0,44,45
 38 62 38 62 39 73 c 0,46,47
 44 128 44 128 131 205 c 0,48,49
 200 266 200 266 240 271 c 0,50,51
 249 271 249 271 276 242 c 0,52,53
 312 202 312 202 338 202 c 0,54,55
 348 202 348 202 365 205 c 1,56,-1
 379 223 l 2,57,58
 464 335 464 335 582 507 c 0,59,60
 596 528 596 528 596 529 c 2,61,-1
 545 623 l 1,62,63
 503 685 503 685 423 693 c 0,64,65
 414 694 414 694 405 694 c 0,66,67
 369 694 369 694 325 657 c 0,68,69
 285 623 285 623 264 618 c 0,70,71
 257 617 257 617 250 617 c 0,72,73
 247 617 247 617 245 617 c 0,74,75
 228 617 228 617 228 636 c 0,0,1
EndSplineSet
EndChar

StartChar: uniE023
Encoding: 57379 57379 80
Width: 1912
Flags: W
LayerCount: 2
Fore
SplineSet
644 928 m 0,0,1
 803 928 803 928 1091 890 c 0,2,3
 1380 852 1380 852 1533 850 c 2,4,-1
 1559 850 l 2,5,6
 1762 850 1762 850 1850 914 c 2,7,-1
 1892 946 l 2,8,9
 1907 954 1907 954 1925 954 c 128,-1,10
 1943 954 1943 954 1943 937 c 0,11,12
 1943 896 1943 896 1872 821 c 0,13,14
 1808 754 1808 754 1730 709 c 0,15,16
 1597 632 1597 632 1371 632 c 0,17,18
 1217 632 1217 632 840 680 c 0,19,20
 752 691 752 691 728 692 c 1,21,22
 624 635 624 635 575 589 c 0,23,24
 477 494 477 494 477 369 c 0,25,26
 477 207 477 207 607 103 c 0,27,28
 740 -3 740 -3 944 -5 c 2,29,-1
 950 -5 l 2,30,31
 1041 -5 1041 -5 1161 24 c 0,32,33
 1288 54 1288 54 1387 54 c 0,34,35
 1391 54 1391 54 1394 54 c 0,36,37
 1680 54 1680 54 1750 -107 c 0,38,39
 1769 -152 1769 -152 1769 -204 c 0,40,41
 1769 -333 1769 -333 1671 -479 c 0,42,43
 1591 -598 1591 -598 1473 -694 c 0,44,45
 1325 -814 1325 -814 1179 -837 c 0,46,47
 1159 -840 1159 -840 1124 -840 c 0,48,49
 915 -840 915 -840 842 -749 c 0,50,51
 821 -722 821 -722 821 -701 c 0,52,53
 821 -667 821 -667 881 -597 c 0,54,55
 953 -513 953 -513 1009 -501 c 0,56,57
 1017 -500 1017 -500 1023 -500 c 0,58,59
 1033 -500 1033 -500 1043 -519 c 0,60,61
 1064 -562 1064 -562 1099 -582 c 0,62,63
 1134 -603 1134 -603 1191 -613 c 0,64,65
 1241 -621 1241 -621 1308 -621 c 0,66,67
 1393 -621 1393 -621 1456 -586 c 0,68,69
 1476 -575 1476 -575 1490 -561 c 0,70,71
 1539 -512 1539 -512 1550 -412 c 0,72,73
 1551 -399 1551 -399 1551 -388 c 0,74,75
 1551 -241 1551 -241 1383 -187 c 0,76,77
 1307 -163 1307 -163 1213 -163 c 0,78,79
 1120 -163 1120 -163 995 -192 c 0,80,81
 861 -222 861 -222 764 -222 c 0,82,83
 526 -222 526 -222 385 -99 c 0,84,85
 258 12 258 12 258 186 c 0,86,87
 258 431 258 431 577 705 c 1,88,89
 549 709 549 709 448 709 c 0,90,91
 251 709 251 709 167 647 c 2,92,-1
 125 616 l 2,93,94
 109 606 109 606 90 606 c 0,95,96
 72 606 72 606 72 622 c 0,97,98
 72 668 72 668 149 744 c 0,99,100
 160 755 160 755 172 766 c 0,101,102
 294 878 294 878 442 910 c 0,103,104
 527 928 527 928 644 928 c 0,0,1
EndSplineSet
EndChar

StartChar: uniE017
Encoding: 57367 57367 81
Width: 1396
Flags: W
LayerCount: 2
Fore
SplineSet
320 656 m 1,0,-1
 297 658 l 1,1,-1
 296 658 l 1,2,3
 159 670 159 670 129 698 c 0,4,5
 126 700 126 700 124 703 c 0,6,7
 88 746 88 746 88 797 c 0,8,9
 88 866 88 866 165 950 c 0,10,11
 227 1019 227 1019 275 1030 c 0,12,13
 281 1031 281 1031 287 1031 c 0,14,15
 306 1031 306 1031 306 1012 c 0,16,17
 306 996 306 996 288 962 c 0,18,19
 283 953 283 953 283 948 c 0,20,21
 283 918 283 918 308 888 c 0,22,23
 313 881 313 881 317 879 c 0,24,25
 377 845 377 845 757 846 c 0,26,27
 1206 846 1206 846 1275 888 c 1,28,-1
 1306 913 l 2,29,30
 1317 919 1317 919 1337 922 c 0,31,32
 1342 923 1342 923 1346 923 c 0,33,34
 1366 923 1366 923 1366 904 c 0,35,36
 1366 861 1366 861 1287 786 c 0,37,38
 1252 752 1252 752 1250 746 c 0,39,40
 1233 681 1233 681 1233 594 c 0,41,42
 1233 499 1233 499 1262 291 c 0,43,44
 1273 213 1273 213 1273 182 c 0,45,46
 1273 150 1273 150 1209 78 c 0,47,48
 1135 -4 1135 -4 1083 -15 c 0,49,50
 1077 -16 1077 -16 1072 -16 c 0,51,52
 1058 -16 1058 -16 1053 4 c 2,53,-1
 1031 196 l 1,54,-1
 1027 234 l 1,55,-1
 1014 223 l 1,56,57
 787 14 787 14 539 -13 c 0,58,59
 508 -16 508 -16 479 -16 c 0,60,61
 330 -16 330 -16 239 87 c 0,62,63
 162 175 162 175 162 300 c 0,64,65
 162 439 162 439 265 588 c 0,66,67
 293 629 293 629 320 656 c 1,0,-1
380 484 m 0,68,69
 380 416 380 416 418 343 c 0,70,71
 492 202 492 202 658 202 c 0,72,73
 781 202 781 202 902 259 c 0,74,75
 966 290 966 290 984 317 c 0,76,77
 1011 359 1011 359 1013 406 c 0,78,79
 1021 576 1021 576 1064 662 c 0,80,81
 1069 672 1069 672 1069 674 c 2,82,-1
 997 663 l 1,83,84
 887 653 887 653 649 651 c 0,85,86
 483 650 483 650 447 640 c 0,87,88
 437 637 437 637 416 629 c 1,89,90
 380 553 380 553 380 484 c 0,68,69
EndSplineSet
EndChar

StartChar: uniE029
Encoding: 57385 57385 82
Width: 1376
Flags: W
LayerCount: 2
Fore
SplineSet
658 877 m 0,0,1
 740 877 740 877 831 838 c 1,2,-1
 835 836 l 1,3,-1
 836 842 l 1,4,5
 836 1072 836 1072 891 1292 c 0,6,7
 937 1476 937 1476 1014 1591 c 0,8,9
 1102 1723 1102 1723 1192 1783 c 0,10,11
 1220 1801 1220 1801 1242 1807 c 1,12,-1
 1251 1807 l 2,13,14
 1267 1807 1267 1807 1267 1790 c 0,15,16
 1267 1765 1267 1765 1236 1727 c 0,17,18
 1183 1660 1183 1660 1157 1604 c 0,19,20
 1069 1417 1069 1417 1055 1034 c 0,21,22
 1051 945 1051 945 1051 727 c 0,23,24
 1049 497 1049 497 1049 468 c 0,25,26
 1049 453 1049 453 1049 439 c 0,27,28
 1049 313 1049 313 1069 232 c 1,29,-1
 1125 221 l 2,30,31
 1226 201 1226 201 1279 201 c 0,32,33
 1429 201 1429 201 1504 253 c 0,34,35
 1539 277 1539 277 1547 280 c 0,36,37
 1557 284 1557 284 1568 284 c 0,38,39
 1585 284 1585 284 1585 266 c 0,40,41
 1585 227 1585 227 1511 150 c 0,42,43
 1428 62 1428 62 1338 24 c 0,44,45
 1244 -16 1244 -16 1098 -16 c 0,46,47
 1033 -16 1033 -16 914 7 c 0,48,49
 837 22 837 22 787 22 c 0,50,51
 742 22 742 22 627 0 c 0,52,53
 545 -16 545 -16 490 -16 c 0,54,55
 347 -16 347 -16 243 77 c 0,56,57
 129 180 129 180 128 345 c 0,58,59
 128 480 128 480 231 624 c 0,60,61
 334 769 334 769 479 836 c 0,62,63
 569 877 569 877 658 877 c 0,0,1
832 442 m 1,64,65
 783 600 783 600 626 659 c 0,66,67
 576 678 576 678 529 682 c 0,68,69
 520 683 520 683 503 683 c 0,70,71
 435 683 435 683 373 652 c 1,72,73
 345 596 345 596 345 529 c 0,74,75
 345 451 345 451 388 369 c 0,76,77
 472 211 472 211 662 202 c 1,78,-1
 672 202 l 2,79,80
 719 202 719 202 805 219 c 2,81,-1
 830 224 l 1,82,-1
 831 304 l 2,83,84
 832 348 832 348 832 413 c 2,85,-1
 832 442 l 1,64,65
EndSplineSet
EndChar

StartChar: uniEC31
Encoding: 60465 60465 83
Width: 0
Flags: W
LayerCount: 2
Fore
SplineSet
-354 1109 m 0,0,1
 -274 1109 -274 1109 -229 1148 c 0,2,3
 -201 1172 -201 1172 -192 1176 c 0,4,5
 -180 1182 -180 1182 -164 1182 c 0,6,7
 -145 1182 -145 1182 -145 1162 c 0,8,9
 -145 1132 -145 1132 -193 1078 c 0,10,11
 -282 976 -282 976 -415 952 c 0,12,13
 -450 946 -450 946 -486 946 c 0,14,15
 -552 946 -552 946 -699 977 c 0,16,17
 -815 1001 -815 1001 -875 1001 c 0,18,19
 -963 1001 -963 1001 -1008 962 c 0,20,21
 -1035 938 -1035 938 -1043 934 c 0,22,23
 -1056 929 -1056 929 -1072 929 c 0,24,25
 -1091 929 -1091 929 -1091 949 c 0,26,27
 -1091 977 -1091 977 -1045 1031 c 0,28,29
 -956 1134 -956 1134 -826 1158 c 0,30,31
 -791 1164 -791 1164 -756 1164 c 0,32,33
 -679 1164 -679 1164 -538 1134 c 0,34,35
 -421 1109 -421 1109 -354 1109 c 0,0,1
EndSplineSet
EndChar

StartChar: uniE001
Encoding: 57345 57345 84
Width: 1464
Flags: W
LayerCount: 2
Fore
SplineSet
1035 1 m 2,0,-1
 664 10 l 2,1,2
 526 10 526 10 493 4 c 1,3,-1
 487 4 l 1,4,-1
 487 -1 l 1,5,6
 456 -506 456 -506 361 -723 c 0,7,8
 339 -774 339 -774 310 -817 c 0,9,10
 240 -923 240 -923 157 -987 c 0,11,12
 111 -1022 111 -1022 83 -1022 c 0,13,14
 66 -1022 66 -1022 66 -1005 c 0,15,16
 66 -978 66 -978 90 -948 c 0,17,18
 133 -898 133 -898 154 -854 c 0,19,20
 193 -772 193 -772 218 -631 c 0,21,22
 262 -379 262 -379 273 -82 c 0,23,24
 282 133 282 133 282 468 c 0,25,26
 282 607 282 607 247 639 c 0,27,28
 232 653 232 653 209 653 c 0,29,30
 155 653 155 653 112 617 c 0,31,32
 78 588 78 588 62 583 c 0,33,34
 51 579 51 579 38 579 c 0,35,36
 21 579 21 579 21 598 c 0,37,38
 21 638 21 638 97 717 c 0,39,40
 174 797 174 797 259 838 c 0,41,42
 330 871 330 871 391 871 c 0,43,44
 461 871 461 871 487 797 c 0,45,46
 494 777 494 777 499 749 c 1,47,-1
 499 676 l 1,48,-1
 500 603 l 1,49,-1
 516 619 l 2,50,51
 636 736 636 736 778 812 c 0,52,53
 899 877 899 877 1001 887 c 2,54,-1
 1017 888 l 1,55,-1
 1046 888 l 2,56,57
 1178 888 1178 888 1267 794 c 0,58,59
 1352 704 1352 704 1352 571 c 0,60,61
 1352 406 1352 406 1207 233 c 2,62,-1
 1175 195 l 1,63,-1
 1220 196 l 2,64,65
 1372 198 1372 198 1413 231 c 0,66,67
 1467 278 1467 278 1500 278 c 0,68,69
 1519 278 1519 278 1519 258 c 0,70,71
 1519 225 1519 225 1469 166 c 0,72,73
 1373 54 1373 54 1218 17 c 0,74,75
 1179 8 1179 8 1138 4 c 0,76,77
 1100 1 1100 1 1035 1 c 2,0,-1
497 185 m 0,78,79
 656 203 656 203 833 205 c 1,80,-1
 962 202 l 2,81,82
 1035 202 1035 202 1081 229 c 0,83,84
 1093 236 1093 236 1097 243 c 0,85,86
 1134 308 1134 308 1134 391 c 0,87,88
 1134 496 1134 496 1064 577 c 0,89,90
 993 659 993 659 881 670 c 0,91,92
 870 671 870 671 859 671 c 0,93,94
 747 671 747 671 626 592 c 0,95,96
 573 558 573 558 552 529 c 0,97,98
 520 485 520 485 510 435 c 0,99,100
 495 363 495 363 495 188 c 2,101,-1
 495 186 l 2,102,103
 495 185 495 185 497 185 c 0,78,79
EndSplineSet
EndChar

StartChar: uniE00D
Encoding: 57357 57357 85
Width: 1984
Flags: W
LayerCount: 2
Fore
SplineSet
1503 2 m 1,0,-1
 855 10 l 1,1,2
 491 10 491 10 227 -11 c 1,3,-1
 120 -16 l 2,4,5
 103 -16 103 -16 103 3 c 0,6,7
 103 32 103 32 122 53 c 0,8,9
 150 82 150 82 160 120 c 0,10,11
 168 151 168 151 171 197 c 0,12,13
 174 237 174 237 174 567 c 0,14,15
 174 814 174 814 182 961 c 0,16,17
 197 1254 197 1254 244 1407 c 0,18,19
 301 1592 301 1592 441 1731 c 0,20,21
 518 1808 518 1808 561 1808 c 0,22,23
 579 1808 579 1808 579 1790 c 0,24,25
 579 1756 579 1756 513 1679 c 0,26,27
 501 1666 501 1666 499 1662 c 0,28,29
 394 1481 394 1481 394 821 c 0,30,31
 393 733 393 733 393 642 c 1,32,-1
 392 622 l 1,33,-1
 417 647 l 2,34,35
 555 785 555 785 699 848 c 0,36,37
 790 888 790 888 868 888 c 0,38,39
 984 888 984 888 1066 798 c 0,40,41
 1125 733 1125 733 1151 629 c 1,42,-1
 1178 656 l 2,43,44
 1324 799 1324 799 1469 858 c 0,45,46
 1546 889 1546 889 1612 889 c 0,47,48
 1724 889 1724 889 1801 804 c 0,49,50
 1881 717 1881 717 1881 585 c 0,51,52
 1881 408 1881 408 1693 196 c 1,53,-1
 1720 196 l 2,54,55
 1889 196 1889 196 1927 230 c 0,56,57
 1982 278 1982 278 2015 278 c 0,58,59
 2035 278 2035 278 2035 259 c 0,60,61
 2035 228 2035 228 1982 167 c 0,62,63
 1887 59 1887 59 1755 21 c 0,64,65
 1728 13 1728 13 1700 9 c 0,66,67
 1650 2 1650 2 1520 2 c 2,68,-1
 1503 2 l 1,0,-1
941 365 m 0,69,70
 941 480 941 480 874 570 c 0,71,72
 812 652 812 652 717 668 c 0,73,74
 705 670 705 670 678 670 c 0,75,76
 599 670 599 670 509 609 c 0,77,78
 484 592 484 592 473 579 c 0,79,80
 417 514 417 514 396 399 c 2,81,-1
 376 281 l 1,82,83
 362 225 362 225 337 183 c 1,84,-1
 340 183 l 1,85,-1
 858 206 l 2,86,87
 902 211 902 211 911 226 c 2,88,-1
 922 253 l 2,89,90
 941 305 941 305 941 365 c 0,69,70
1662 409 m 0,91,92
 1662 531 1662 531 1582 607 c 0,93,94
 1515 670 1515 670 1417 670 c 0,95,96
 1364 670 1364 670 1296 634 c 0,97,98
 1248 609 1248 609 1222 574 c 0,99,100
 1188 528 1188 528 1144 424 c 0,101,102
 1090 299 1090 299 1028 218 c 2,103,-1
 1018 205 l 1,104,-1
 1079 205 l 1,105,-1
 1465 198 l 2,106,107
 1594 198 1594 198 1625 257 c 2,108,-1
 1632 272 l 2,109,110
 1662 336 1662 336 1662 409 c 0,91,92
EndSplineSet
EndChar

StartChar: uniE006
Encoding: 57350 57350 86
Width: 1943
Flags: W
LayerCount: 2
Fore
SplineSet
78 320 m 0,0,1
 78 470 78 470 196 632 c 0,2,3
 298 773 298 773 430 844 c 0,4,5
 499 883 499 883 573 888 c 0,6,7
 578 889 578 889 597 889 c 0,8,9
 734 889 734 889 754 794 c 0,10,11
 756 781 756 781 756 767 c 0,12,13
 756 704 756 704 706 654 c 0,14,15
 660 608 660 608 596 608 c 0,16,17
 558 608 558 608 524 633 c 0,18,19
 486 661 486 661 452 667 c 0,20,21
 433 670 433 670 411 670 c 0,22,23
 372 670 372 670 334 655 c 1,24,25
 296 585 296 585 296 502 c 0,26,27
 296 396 296 396 357 309 c 0,28,29
 423 213 423 213 528 203 c 0,30,31
 536 202 536 202 548 202 c 0,32,33
 656 202 656 202 747 247 c 0,34,35
 784 266 784 266 794 282 c 0,36,37
 822 326 822 326 839 401 c 0,38,39
 859 491 859 491 897 558 c 0,40,41
 909 579 909 579 924 601 c 0,42,43
 1000 714 1000 714 1106 795 c 0,44,45
 1209 873 1209 873 1308 887 c 0,46,47
 1318 888 1318 888 1341 888 c 0,48,49
 1495 888 1495 888 1504 778 c 0,50,51
 1504 773 1504 773 1504 767 c 0,52,53
 1504 709 1504 709 1459 660 c 0,54,55
 1413 609 1413 609 1348 609 c 0,56,57
 1338 608 1338 608 1334 608 c 0,58,59
 1304 608 1304 608 1271 633 c 0,60,61
 1232 663 1232 663 1194 668 c 0,62,63
 1181 670 1181 670 1167 670 c 2,64,-1
 1157 670 l 2,65,66
 1119 670 1119 670 1086 657 c 1,67,68
 1050 585 1050 585 1050 505 c 0,69,70
 1050 363 1050 363 1146 272 c 0,71,72
 1203 217 1203 217 1274 204 c 0,73,74
 1284 202 1284 202 1309 202 c 0,75,76
 1442 202 1442 202 1549 279 c 0,77,78
 1607 320 1607 320 1605 490 c 0,79,80
 1605 516 1605 516 1605 520 c 0,81,82
 1605 628 1605 628 1676 724 c 0,83,84
 1700 756 1700 756 1737 795 c 0,85,86
 1807 869 1807 869 1859 886 c 0,87,88
 1868 889 1868 889 1875 889 c 0,89,90
 1892 889 1892 889 1892 870 c 0,91,92
 1892 846 1892 846 1855 798 c 0,93,94
 1830 766 1830 766 1826 751 c 0,95,96
 1820 729 1820 729 1813 143 c 0,97,98
 1813 131 1813 131 1813 123 c 0,99,100
 1808 -354 1808 -354 1766 -548 c 0,101,102
 1752 -616 1752 -616 1729 -677 c 0,103,104
 1674 -822 1674 -822 1558 -939 c 0,105,106
 1477 -1020 1477 -1020 1431 -1022 c 0,107,108
 1413 -1022 1413 -1022 1413 -1003 c 0,109,110
 1413 -981 1413 -981 1453 -927 c 0,111,112
 1506 -857 1506 -857 1522 -812 c 0,113,114
 1587 -633 1587 -633 1594 -150 c 2,115,-1
 1599 195 l 1,116,-1
 1599 205 l 1,117,118
 1505 111 1505 111 1377 48 c 0,119,120
 1247 -16 1247 -16 1127 -16 c 0,121,122
 1015 -16 1015 -16 931 70 c 0,123,124
 875 127 875 127 848 210 c 1,125,126
 647 9 647 9 415 -14 c 0,127,128
 389 -16 389 -16 365 -16 c 0,129,130
 244 -16 244 -16 161 82 c 128,-1,131
 78 180 78 180 78 320 c 0,0,1
EndSplineSet
EndChar

StartChar: uniE011
Encoding: 57361 57361 87
Width: 2095
Flags: W
LayerCount: 2
Fore
SplineSet
1589 1 m 2,0,-1
 968 10 l 1,1,2
 635 10 635 10 238 -16 c 0,3,4
 217 -17 217 -17 215 -3 c 0,5,6
 214 -1 214 -1 214 2 c 0,7,8
 214 26 214 26 239 59 c 0,9,10
 270 100 270 100 277 141 c 0,11,12
 286 202 286 202 286 501 c 0,13,14
 286 639 286 639 228 652 c 0,15,16
 221 653 221 653 214 653 c 0,17,18
 160 653 160 653 115 616 c 0,19,20
 81 587 81 587 65 583 c 0,21,22
 54 579 54 579 43 579 c 0,23,24
 25 579 25 579 25 596 c 0,25,26
 25 644 25 644 107 724 c 0,27,28
 206 821 206 821 315 857 c 0,29,30
 359 871 359 871 396 871 c 0,31,32
 480 871 480 871 500 770 c 0,33,34
 505 742 505 742 505 678 c 2,35,-1
 504 622 l 1,36,-1
 529 647 l 2,37,38
 731 849 731 849 929 884 c 0,39,40
 943 886 943 886 958 888 c 2,41,-1
 984 888 l 2,42,43
 1093 888 1093 888 1174 802 c 0,44,45
 1236 735 1236 735 1263 629 c 1,46,-1
 1290 656 l 2,47,48
 1420 786 1420 786 1557 848 c 0,49,50
 1647 889 1647 889 1724 889 c 0,51,52
 1824 889 1824 889 1900 816 c 0,53,54
 1973 747 1973 747 1990 636 c 0,55,56
 1992 620 1992 620 1992 593 c 0,57,58
 1992 401 1992 401 1804 196 c 1,59,-1
 1831 196 l 2,60,61
 1999 196 1999 196 2039 230 c 0,62,63
 2093 276 2093 276 2126 278 c 0,64,65
 2146 278 2146 278 2146 258 c 0,66,67
 2146 226 2146 226 2091 164 c 0,68,69
 1996 57 1996 57 1861 20 c 0,70,71
 1836 13 1836 13 1811 9 c 0,72,73
 1755 1 1755 1 1589 1 c 2,0,-1
1053 365 m 0,74,75
 1053 438 1053 438 1016 518 c 0,76,77
 945 670 945 670 790 670 c 0,78,79
 711 670 711 670 622 610 c 0,80,81
 596 593 596 593 584 579 c 0,82,83
 530 518 530 518 510 405 c 2,84,-1
 488 285 l 2,85,86
 474 226 474 226 449 183 c 1,87,-1
 452 183 l 1,88,-1
 969 206 l 2,89,90
 1015 211 1015 211 1024 229 c 2,91,-1
 1034 253 l 2,92,93
 1053 305 1053 305 1053 365 c 0,74,75
1774 409 m 0,94,95
 1774 524 1774 524 1700 600 c 0,96,97
 1631 670 1631 670 1529 670 c 0,98,99
 1455 670 1455 670 1376 614 c 0,100,101
 1360 603 1360 603 1350 593 c 0,102,103
 1314 558 1314 558 1271 459 c 0,104,105
 1216 331 1216 331 1178 272 c 0,106,107
 1155 237 1155 237 1129 205 c 1,108,-1
 1191 205 l 1,109,-1
 1576 198 l 2,110,111
 1704 198 1704 198 1735 256 c 0,112,113
 1736 257 1736 257 1743 272 c 0,114,115
 1774 336 1774 336 1774 409 c 0,94,95
EndSplineSet
EndChar

StartChar: uniE021
Encoding: 57377 57377 88
Width: 1298
Flags: W
LayerCount: 2
Fore
SplineSet
556 -19 m 1,0,-1
 482 218 l 1,1,2
 466 218 466 218 319 113 c 0,3,4
 253 66 253 66 226 42 c 1,5,6
 232 -15 232 -15 269 -41 c 0,7,8
 287 -54 287 -54 288 -63 c 0,9,10
 288 -98 288 -98 226 -168 c 0,11,12
 155 -249 155 -249 101 -261 c 0,13,14
 94 -263 94 -263 88 -263 c 0,15,16
 61 -263 61 -263 34 -226 c 0,17,18
 8 -191 8 -191 8 -146 c 0,19,20
 8 -10 8 -10 254 174 c 0,21,22
 348 245 348 245 440 295 c 0,23,24
 451 301 451 301 451 303 c 2,25,-1
 396 447 l 2,26,27
 391 459 391 459 389 459 c 0,28,29
 388 459 388 459 385 458 c 2,30,-1
 381 458 l 1,31,-1
 390 465 l 1,32,-1
 374 502 l 2,33,34
 329 608 329 608 320 623 c 0,35,36
 293 669 293 669 245 675 c 0,37,38
 235 676 235 676 222 676 c 0,39,40
 173 676 173 676 135 644 c 0,41,42
 106 620 106 620 87 616 c 0,43,44
 80 615 80 615 72 615 c 0,45,46
 53 615 53 615 53 634 c 0,47,48
 53 686 53 686 133 758 c 0,49,50
 226 841 226 841 326 865 c 0,51,52
 354 871 354 871 379 871 c 0,53,54
 468 871 468 871 515 789 c 1,55,-1
 567 674 l 1,56,-1
 632 731 l 2,57,58
 666 758 666 758 710 789 c 0,59,60
 850 886 850 886 974 886 c 0,61,62
 1095 886 1095 886 1168 803 c 0,63,64
 1227 735 1227 735 1227 637 c 0,65,66
 1227 389 1227 389 960 152 c 0,67,68
 847 53 847 53 699 -32 c 0,69,70
 556 -116 556 -116 448 -217 c 0,71,72
 326 -331 326 -331 326 -463 c 0,73,74
 326 -527 326 -527 366 -597 c 0,75,76
 437 -722 437 -722 580 -722 c 0,77,78
 614 -722 614 -722 657 -708 c 1,79,80
 741 -630 741 -630 779 -630 c 0,81,82
 796 -630 796 -630 796 -648 c 0,83,84
 796 -685 796 -685 728 -761 c 0,85,86
 628 -872 628 -872 509 -918 c 0,87,88
 468 -933 468 -933 430 -938 c 0,89,90
 418 -940 418 -940 394 -940 c 0,91,92
 246 -940 246 -940 161 -815 c 0,93,94
 140 -784 140 -784 128 -754 c 0,95,96
 107 -703 107 -703 107 -646 c 0,97,98
 107 -532 107 -532 198 -382 c 0,99,100
 315 -189 315 -189 538 -32 c 2,101,-1
 556 -19 l 1,0,-1
1009 446 m 0,102,103
 1009 567 1009 567 916 631 c 0,104,105
 853 674 853 674 766 674 c 0,106,107
 701 674 701 674 618 637 c 0,108,109
 589 624 589 624 589 619 c 128,-1,110
 589 614 589 614 611 562 c 0,111,112
 669 426 669 426 748 151 c 2,113,-1
 760 107 l 1,114,115
 861 172 861 172 930 242 c 0,116,117
 941 253 941 253 947 261 c 0,118,119
 1003 331 1003 331 1009 434 c 0,120,121
 1009 441 1009 441 1009 446 c 0,102,103
EndSplineSet
EndChar

StartChar: uniE00F
Encoding: 57359 57359 89
Width: 2004
Flags: W
LayerCount: 2
Fore
SplineSet
312 1011 m 0,0,1
 312 997 312 997 293 963 c 0,2,3
 289 955 289 955 289 951 c 0,4,5
 289 922 289 922 308 894 c 0,6,7
 318 881 318 881 329 877 c 0,8,9
 415 846 415 846 978 846 c 0,10,11
 1289 846 1289 846 1424 849 c 0,12,13
 1651 853 1651 853 1668 859 c 1,14,-1
 1670 894 l 1,15,16
 1680 1199 1680 1199 1720 1356 c 0,17,18
 1776 1578 1776 1578 1931 1731 c 0,19,20
 2009 1808 2009 1808 2051 1808 c 0,21,22
 2069 1808 2069 1808 2069 1790 c 0,23,24
 2069 1761 2069 1761 2042 1730 c 0,25,26
 2000 1681 2000 1681 1980 1641 c 0,27,28
 1918 1514 1918 1514 1897 1237 c 0,29,30
 1882 1045 1882 1045 1882 587 c 0,31,32
 1882 367 1882 367 1905 238 c 0,33,34
 1912 205 1912 205 1912 182 c 0,35,36
 1912 149 1912 149 1848 78 c 0,37,38
 1775 -3 1775 -3 1723 -15 c 0,39,40
 1716 -16 1716 -16 1711 -16 c 0,41,42
 1686 -16 1686 -16 1678 103 c 0,43,44
 1672 191 1672 191 1668 206 c 1,45,-1
 1668 212 l 1,46,47
 1515 83 1515 83 1409 34 c 0,48,49
 1300 -16 1300 -16 1188 -16 c 0,50,51
 1030 -16 1030 -16 945 129 c 0,52,53
 925 164 925 164 910 207 c 1,54,55
 735 54 735 54 588 9 c 0,56,57
 508 -16 508 -16 424 -16 c 0,58,59
 297 -16 297 -16 216 82 c 0,60,61
 145 169 145 169 145 293 c 0,62,63
 145 439 145 439 250 589 c 0,64,65
 273 623 273 623 302 656 c 0,66,67
 307 660 307 660 307 663 c 1,68,69
 247 663 247 663 177 680 c 0,70,71
 148 687 148 687 137 695 c 0,72,73
 115 713 115 713 101 759 c 0,74,75
 94 781 94 781 94 800 c 0,76,77
 94 869 94 869 172 953 c 0,78,79
 234 1019 234 1019 282 1030 c 0,80,81
 287 1031 287 1031 292 1031 c 0,82,83
 312 1031 312 1031 312 1011 c 0,0,1
1666 593 m 0,84,85
 1666 681 1666 681 1665 681 c 2,86,-1
 1590 670 l 1,87,88
 1482 660 1482 660 1269 654 c 0,89,90
 1158 652 1158 652 1144 644 c 0,91,92
 1139 642 1139 642 1137 638 c 0,93,94
 1110 588 1110 588 1110 506 c 0,95,96
 1110 367 1110 367 1204 276 c 0,97,98
 1263 217 1263 217 1335 204 c 0,99,100
 1344 202 1344 202 1368 202 c 0,101,102
 1471 202 1471 202 1569 253 c 0,103,104
 1612 275 1612 275 1625 294 c 0,105,106
 1651 330 1651 330 1658 386 c 128,-1,107
 1665 442 1665 442 1666 593 c 0,84,85
813 651 m 1,108,-1
 553 653 l 2,109,110
 463 653 463 653 420 640 c 2,111,-1
 406 636 l 1,112,113
 376 594 376 594 366 519 c 0,114,115
 363 497 363 497 363 477 c 0,116,117
 363 357 363 357 437 277 c 0,118,119
 505 202 505 202 606 202 c 0,120,121
 725 202 725 202 826 258 c 0,122,123
 852 273 852 273 865 286 c 0,124,125
 880 296 880 296 900 406 c 0,126,127
 904 426 904 426 906 433 c 0,128,129
 933 535 933 535 1020 651 c 1,130,-1
 813 651 l 1,108,-1
EndSplineSet
EndChar

StartChar: uniE005
Encoding: 57349 57349 90
Width: 2088
Flags: W
LayerCount: 2
Fore
SplineSet
38 579 m 0,0,1
 21 579 21 579 21 598 c 0,2,3
 21 638 21 638 97 717 c 0,4,5
 174 797 174 797 259 838 c 0,6,7
 330 871 330 871 391 871 c 0,8,9
 476 871 476 871 496 764 c 0,10,11
 499 749 499 749 499 685 c 2,12,-1
 500 620 l 1,13,-1
 523 643 l 2,14,15
 681 797 681 797 833 858 c 0,16,17
 894 884 894 884 959 888 c 0,18,19
 962 888 962 888 971 888 c 0,20,21
 1122 888 1122 888 1205 764 c 0,22,23
 1243 708 1243 708 1263 629 c 1,24,-1
 1290 656 l 2,25,26
 1419 785 1419 785 1555 848 c 0,27,28
 1645 889 1645 889 1722 889 c 0,29,30
 1861 889 1861 889 1942 764 c 0,31,32
 1966 728 1966 728 1977 692 c 0,33,34
 1992 644 1992 644 1992 590 c 0,35,36
 1992 405 1992 405 1804 195 c 1,37,-1
 1847 196 l 2,38,39
 2001 198 2001 198 2040 231 c 0,40,41
 2095 278 2095 278 2126 278 c 0,42,43
 2146 278 2146 278 2146 258 c 0,44,45
 2144 221 2144 221 2091 161 c 0,46,47
 1990 46 1990 46 1828 13 c 0,48,49
 1797 7 1797 7 1765 4 c 0,50,51
 1725 1 1725 1 1644 1 c 2,52,-1
 983 10 l 1,53,-1
 979 10 l 2,54,55
 734 9 734 9 487 -4 c 0,56,57
 485 -5 485 -5 481 -83 c 0,58,59
 471 -278 471 -278 424 -516 c 0,60,61
 388 -696 388 -696 314 -810 c 0,62,63
 277 -867 277 -867 219 -930 c 0,64,65
 148 -1005 148 -1005 97 -1020 c 0,66,67
 89 -1022 89 -1022 83 -1022 c 0,68,69
 66 -1022 66 -1022 66 -1005 c 0,70,71
 66 -978 66 -978 90 -948 c 0,72,73
 133 -898 133 -898 154 -854 c 0,74,75
 193 -772 193 -772 218 -631 c 0,76,77
 262 -379 262 -379 273 -82 c 0,78,79
 282 133 282 133 282 468 c 0,80,81
 282 607 282 607 247 639 c 0,82,83
 232 653 232 653 209 653 c 0,84,85
 155 653 155 653 112 617 c 0,86,87
 78 588 78 588 62 583 c 0,88,89
 51 579 51 579 38 579 c 0,0,1
1052 365 m 0,90,91
 1052 501 1052 501 969 590 c 0,92,93
 894 670 894 670 787 670 c 0,94,95
 701 670 701 670 607 600 c 0,96,97
 576 576 576 576 562 557 c 0,98,99
 524 504 524 504 512 441 c 0,100,101
 496 364 496 364 496 208 c 1,102,-1
 495 182 l 1,103,-1
 497 182 l 1,104,105
 681 196 681 196 895 200 c 0,106,107
 969 201 969 201 1018 217 c 1,108,109
 1052 291 1052 291 1052 365 c 0,90,91
1172 205 m 1,110,-1
 1608 198 l 1,111,112
 1715 201 1715 201 1746 277 c 0,113,114
 1772 336 1772 336 1774 405 c 0,115,116
 1774 511 1774 511 1710 588 c 0,117,118
 1651 659 1651 659 1559 670 c 0,119,120
 1550 671 1550 671 1541 671 c 0,121,122
 1443 671 1443 671 1355 598 c 0,123,124
 1318 568 1318 568 1272 463 c 0,125,126
 1215 332 1215 332 1186 285 c 0,127,128
 1163 247 1163 247 1138 216 c 0,129,130
 1129 207 1129 207 1129 205 c 2,131,-1
 1172 205 l 1,110,-1
EndSplineSet
EndChar

StartChar: uniE007
Encoding: 57351 57351 91
Width: 2023
Flags: W
LayerCount: 2
Fore
SplineSet
95 798 m 0,0,1
 95 869 95 869 170 952 c 0,2,3
 232 1020 232 1020 281 1030 c 0,4,5
 287 1031 287 1031 292 1031 c 0,6,7
 312 1031 312 1031 312 1010 c 0,8,9
 310 987 310 987 289 955 c 1,10,-1
 289 947 l 2,11,12
 289 917 289 917 311 892 c 0,13,14
 323 878 323 878 340 874 c 0,15,16
 447 846 447 846 1023 846 c 0,17,18
 1596 846 1596 846 1777 861 c 0,19,20
 1890 871 1890 871 1909 886 c 0,21,22
 1957 923 1957 923 1985 923 c 0,23,24
 2004 923 2004 923 2004 903 c 0,25,26
 2004 868 2004 868 1946 804 c 0,27,28
 1919 775 1919 775 1890 754 c 0,29,30
 1885 749 1885 749 1885 747 c 0,31,32
 1882 732 1882 732 1882 671 c 0,33,34
 1882 314 1882 314 1867 -115 c 0,35,36
 1861 -288 1861 -288 1854 -353 c 0,37,38
 1831 -590 1831 -590 1768 -725 c 0,39,40
 1718 -833 1718 -833 1626 -930 c 0,41,42
 1555 -1005 1555 -1005 1504 -1020 c 0,43,44
 1496 -1022 1496 -1022 1490 -1022 c 0,45,46
 1473 -1022 1473 -1022 1473 -1005 c 0,47,48
 1473 -974 1473 -974 1499 -945 c 0,49,50
 1538 -900 1538 -900 1556 -868 c 0,51,52
 1621 -747 1621 -747 1642 -462 c 0,53,54
 1651 -344 1651 -344 1656 49 c 2,55,-1
 1658 177 l 1,56,-1
 1659 205 l 1,57,58
 1567 113 1567 113 1441 50 c 0,59,60
 1308 -16 1308 -16 1186 -16 c 0,61,62
 1055 -16 1055 -16 971 92 c 0,63,64
 933 140 933 140 909 207 c 0,65,66
 907 207 907 207 863 168 c 0,67,68
 652 -16 652 -16 423 -16 c 0,69,70
 296 -16 296 -16 216 83 c 0,71,72
 145 170 145 170 145 292 c 0,73,74
 145 466 145 466 288 639 c 1,75,-1
 301 654 l 1,76,-1
 307 662 l 2,77,78
 307 664 307 664 296 664 c 0,79,80
 184 671 184 671 146 693 c 0,81,82
 95 722 95 722 95 798 c 0,0,1
1705 677 m 1,83,84
 1522 655 1522 655 1266 653 c 0,85,86
 1144 653 1144 653 1139 642 c 0,87,88
 1121 619 1121 619 1113 544 c 0,89,90
 1111 525 1111 525 1111 507 c 0,91,92
 1111 357 1111 357 1212 266 c 0,93,94
 1269 215 1269 215 1334 204 c 0,95,96
 1348 202 1348 202 1367 202 c 0,97,98
 1472 202 1472 202 1570 254 c 0,99,100
 1613 277 1613 277 1626 297 c 0,101,102
 1663 353 1663 353 1663 443 c 0,103,104
 1663 538 1663 538 1666 560 c 0,105,106
 1674 619 1674 619 1703 670 c 2,107,-1
 1706 676 l 1,108,-1
 1705 677 l 1,83,84
363 478 m 0,109,110
 363 360 363 360 436 279 c 0,111,112
 506 202 506 202 608 202 c 0,113,114
 729 202 729 202 822 260 c 0,115,116
 859 283 859 283 864 285 c 0,117,118
 881 308 881 308 894 375 c 0,119,120
 915 484 915 484 962 566 c 0,121,122
 986 608 986 608 1020 651 c 1,123,-1
 827 651 l 1,124,-1
 565 653 l 1,125,-1
 491 653 l 1,126,127
 416 644 416 644 405 633 c 0,128,129
 401 630 401 630 390 607 c 0,130,131
 363 548 363 548 363 478 c 0,109,110
EndSplineSet
EndChar

StartChar: uniE015
Encoding: 57365 57365 92
Width: 1464
Flags: W
LayerCount: 2
Fore
SplineSet
1030 1 m 2,0,-1
 637 10 l 1,1,2
 423 10 423 10 282 -12 c 0,3,4
 251 -16 251 -16 231 -16 c 0,5,6
 214 -16 214 -16 214 2 c 0,7,8
 214 26 214 26 239 59 c 0,9,10
 270 100 270 100 277 141 c 0,11,12
 287 200 287 200 287 521 c 1,13,14
 279 645 279 645 214 653 c 1,15,16
 160 653 160 653 115 616 c 0,17,18
 81 587 81 587 65 583 c 0,19,20
 54 579 54 579 43 579 c 0,21,22
 25 579 25 579 25 596 c 0,23,24
 25 644 25 644 107 724 c 0,25,26
 206 821 206 821 315 857 c 0,27,28
 359 871 359 871 396 871 c 0,29,30
 480 871 480 871 500 770 c 0,31,32
 505 747 505 747 505 668 c 2,33,-1
 504 604 l 1,34,-1
 525 624 l 2,35,36
 623 722 623 722 752 798 c 0,37,38
 907 888 907 888 1028 888 c 0,39,40
 1190 888 1190 888 1281 780 c 0,41,42
 1353 695 1353 695 1353 573 c 0,43,44
 1353 397 1353 397 1196 218 c 2,45,-1
 1177 197 l 1,46,-1
 1177 196 l 2,47,48
 1177 195 1177 195 1197 195 c 0,49,50
 1373 195 1373 195 1412 230 c 0,51,52
 1465 276 1465 276 1499 278 c 0,53,54
 1520 278 1520 278 1520 259 c 0,55,56
 1520 225 1520 225 1469 166 c 0,57,58
 1375 54 1375 54 1223 18 c 0,59,60
 1185 8 1185 8 1144 5 c 0,61,62
 1102 1 1102 1 1030 1 c 2,0,-1
796 205 m 2,63,-1
 958 201 l 2,64,65
 1026 201 1026 201 1080 229 c 0,66,67
 1120 249 1120 249 1133 358 c 0,68,69
 1135 376 1135 376 1135 387 c 0,70,71
 1135 516 1135 516 1047 597 c 0,72,73
 968 670 968 670 850 670 c 0,74,75
 751 670 751 670 637 600 c 0,76,77
 585 567 585 567 565 540 c 0,78,79
 518 476 518 476 504 383 c 0,80,81
 489 287 489 287 481 259 c 0,82,83
 470 222 470 222 451 186 c 1,84,-1
 483 189 l 2,85,86
 644 205 644 205 796 205 c 2,63,-1
EndSplineSet
EndChar

StartChar: uniE003
Encoding: 57347 57347 93
Width: 1376
Flags: W
LayerCount: 2
Fore
SplineSet
323 656 m 1,0,1
 313 658 313 658 300 658 c 2,2,-1
 299 658 l 1,3,4
 181 667 181 667 139 695 c 0,5,6
 92 727 92 727 92 796 c 0,7,8
 92 864 92 864 168 949 c 0,9,10
 230 1019 230 1019 280 1030 c 0,11,12
 286 1031 286 1031 291 1031 c 0,13,14
 311 1031 311 1031 311 1011 c 0,15,16
 311 993 311 993 286 953 c 1,17,18
 293 899 293 899 324 879 c 0,19,20
 367 852 367 852 536 848 c 0,21,22
 606 846 606 846 755 846 c 0,23,24
 1212 846 1212 846 1263 885 c 0,25,26
 1312 923 1312 923 1341 923 c 0,27,28
 1359 923 1359 923 1359 904 c 0,29,30
 1359 868 1359 868 1304 807 c 0,31,32
 1276 777 1276 777 1245 754 c 0,33,34
 1240 749 1240 749 1240 747 c 0,35,36
 1237 732 1237 732 1237 671 c 0,37,38
 1237 341 1237 341 1222 -95 c 0,39,40
 1216 -286 1216 -286 1209 -353 c 0,41,42
 1186 -590 1186 -590 1123 -725 c 0,43,44
 1073 -833 1073 -833 981 -930 c 0,45,46
 911 -1005 911 -1005 859 -1020 c 0,47,48
 851 -1022 851 -1022 845 -1022 c 0,49,50
 829 -1022 829 -1022 827 -1007 c 0,51,52
 827 -976 827 -976 854 -946 c 0,53,54
 895 -899 895 -899 914 -862 c 0,55,56
 969 -754 969 -754 991 -532 c 0,57,58
 1010 -341 1010 -341 1014 174 c 0,59,60
 1014 196 1014 196 1014 210 c 0,61,62
 1014 218 1014 218 1013 218 c 0,63,64
 1011 218 1011 218 962 178 c 0,65,66
 728 -16 728 -16 479 -16 c 0,67,68
 330 -16 330 -16 240 90 c 0,69,70
 165 177 165 177 165 301 c 0,71,72
 165 475 165 475 323 656 c 1,0,1
383 484 m 0,73,74
 383 366 383 366 463 284 c 0,75,76
 542 202 542 202 662 202 c 0,77,78
 789 202 789 202 911 262 c 0,79,80
 973 292 973 292 989 318 c 0,81,82
 1020 367 1020 367 1019 457 c 0,83,84
 1018 550 1018 550 1025 583 c 0,85,86
 1036 632 1036 632 1059 672 c 1,87,-1
 1057 673 l 1,88,-1
 940 660 l 2,89,90
 842 653 842 653 667 652 c 0,91,92
 462 651 462 651 431 635 c 0,93,94
 420 629 420 629 412 614 c 0,95,96
 383 556 383 556 383 484 c 0,73,74
EndSplineSet
EndChar

StartChar: uniEC22
Encoding: 60450 60450 94
Width: 0
Flags: W
LayerCount: 2
Fore
SplineSet
-1735 1017 m 0,0,1
 -1735 1063 -1735 1063 -1666 1121 c 0,2,3
 -1617 1162 -1617 1162 -1592 1162 c 0,4,5
 -1588 1162 -1588 1162 -1536 1151 c 0,6,7
 -1468 1136 -1468 1136 -1351 1129 c 0,8,9
 -1328 1128 -1328 1128 -885 1128 c 0,10,11
 -436 1128 -436 1128 -358 1134 c 0,12,13
 -295 1138 -295 1138 -204 1158 c 0,14,15
 -185 1162 -185 1162 -179 1162 c 0,16,17
 -161 1162 -161 1162 -161 1143 c 0,18,19
 -161 1114 -161 1114 -198 1070 c 0,20,21
 -248 1009 -248 1009 -318 995 c 0,22,23
 -430 972 -430 972 -510 968 c 0,24,25
 -598 964 -598 964 -1011 964 c 0,26,27
 -1480 964 -1480 964 -1575 973 c 0,28,29
 -1615 977 -1615 977 -1723 999 c 0,30,31
 -1735 1002 -1735 1002 -1735 1017 c 0,0,1
EndSplineSet
EndChar

StartChar: uniEBD0
Encoding: 60368 60368 95
Width: 0
Flags: W
LayerCount: 2
Fore
SplineSet
-894 -636 m 1,0,1
 -985 -636 -985 -636 -1029 -560 c 0,2,3
 -1054 -516 -1054 -516 -1054 -459 c 0,4,5
 -1054 -308 -1054 -308 -895 -148 c 0,6,7
 -834 -86 -834 -86 -682 36 c 2,8,-1
 -609 95 l 2,9,10
 -582 118 -582 118 -571 120 c 0,11,12
 -568 121 -568 121 -564 121 c 0,13,14
 -540 121 -540 121 -539 96 c 0,15,16
 -539 73 -539 73 -585 23 c 2,17,-1
 -707 -107 l 2,18,19
 -771 -179 -771 -179 -836 -260 c 0,20,21
 -889 -327 -889 -327 -889 -376 c 0,22,23
 -889 -429 -889 -429 -827 -441 c 0,24,25
 -814 -444 -814 -444 -801 -444 c 0,26,27
 -740 -444 -740 -444 -677 -392 c 0,28,29
 -634 -360 -634 -360 -622 -358 c 1,30,31
 -607 -367 -607 -367 -606 -386 c 0,32,33
 -606 -456 -606 -456 -685 -535 c 0,34,35
 -767 -617 -767 -617 -861 -634 c 1,36,-1
 -894 -636 l 1,0,1
EndSplineSet
EndChar

StartChar: uniEBD1
Encoding: 60369 60369 96
Width: 0
Flags: W
LayerCount: 2
Fore
SplineSet
-613 -613 m 0,0,1
 -700 -613 -700 -613 -745 -540 c 0,2,3
 -774 -495 -774 -495 -774 -435 c 0,4,5
 -774 -282 -774 -282 -610 -126 c 0,6,7
 -558 -76 -558 -76 -408 40 c 2,8,-1
 -337 96 l 2,9,10
 -307 120 -307 120 -295 120 c 0,11,12
 -266 120 -266 120 -266 96 c 0,13,14
 -266 75 -266 75 -301 38 c 2,15,-1
 -414 -79 l 2,16,17
 -476 -147 -476 -147 -544 -229 c 0,18,19
 -605 -303 -605 -303 -605 -353 c 0,20,21
 -605 -400 -605 -400 -555 -417 c 0,22,23
 -538 -423 -538 -423 -517 -423 c 0,24,25
 -455 -423 -455 -423 -391 -370 c 0,26,27
 -354 -340 -354 -340 -340 -338 c 0,28,29
 -324 -338 -324 -338 -324 -365 c 0,30,31
 -324 -436 -324 -436 -405 -514 c 0,32,33
 -487 -594 -487 -594 -580 -611 c 0,34,35
 -592 -613 -592 -613 -613 -613 c 0,0,1
EndSplineSet
EndChar

StartChar: uniE02C
Encoding: 57388 57388 97
Width: 677
Flags: W
LayerCount: 2
Fore
SplineSet
62 598 m 0,0,1
 62 636 62 636 137 714 c 0,2,3
 236 817 236 817 338 855 c 0,4,5
 381 871 381 871 416 871 c 2,6,-1
 436 871 l 2,7,8
 506 871 506 871 532 794 c 0,9,10
 540 770 540 770 540 749 c 2,11,-1
 540 611 l 2,12,13
 540 578 540 578 540 547 c 0,14,15
 540 -238 540 -238 456 -564 c 0,16,17
 407 -752 407 -752 306 -877 c 0,18,19
 286 -902 286 -902 260 -930 c 0,20,21
 189 -1005 189 -1005 138 -1020 c 0,22,23
 130 -1022 130 -1022 124 -1022 c 0,24,25
 107 -1022 107 -1022 107 -1005 c 0,26,27
 107 -980 107 -980 162 -907 c 0,28,29
 189 -870 189 -870 196 -857 c 0,30,31
 322 -589 322 -589 322 439 c 0,32,33
 322 560 322 560 315 591 c 0,34,35
 305 632 305 632 275 647 c 0,36,37
 263 653 263 653 250 653 c 0,38,39
 196 653 196 653 153 617 c 0,40,41
 119 588 119 588 103 583 c 0,42,43
 92 579 92 579 79 579 c 0,44,45
 62 579 62 579 62 598 c 0,0,1
EndSplineSet
EndChar

StartChar: uni801A
Encoding: 32794 32794 98
Width: 0
Flags: W
LayerCount: 2
Fore
SplineSet
-1201 -249 m 0,0,1
 -1259 -249 -1259 -249 -1270 -198 c 0,2,3
 -1272 -189 -1272 -189 -1272 -181 c 0,4,5
 -1272 -142 -1272 -142 -1225 -97 c 0,6,7
 -1165 -39 -1165 -39 -895 150 c 0,8,9
 -786 227 -786 227 -782 229 c 0,10,11
 -770 235 -770 235 -755 235 c 0,12,13
 -727 234 -727 234 -723 209 c 0,14,15
 -722 206 -722 206 -722 203 c 0,16,17
 -722 182 -722 182 -756 148 c 2,18,-1
 -829 72 l 2,19,20
 -982 -86 -982 -86 -1010 -113 c 0,21,22
 -1133 -232 -1133 -232 -1177 -246 c 0,23,24
 -1185 -249 -1185 -249 -1201 -249 c 0,0,1
EndSplineSet
EndChar

StartChar: uniEDC3
Encoding: 60867 60867 99
Width: 0
Flags: W
LayerCount: 2
Fore
SplineSet
-1306 1674 m 0,0,1
 -1306 1722 -1306 1722 -1266 1739 c 0,2,3
 -1252 1744 -1252 1744 -1236 1744 c 0,4,5
 -1192 1744 -1192 1744 -1139 1684 c 2,6,-1
 -1102 1640 l 2,7,8
 -980 1500 -980 1500 -789 1253 c 0,9,10
 -723 1166 -723 1166 -711 1146 c 0,11,12
 -706 1137 -706 1137 -706 1123 c 0,13,14
 -712 1094 -712 1094 -739 1089 c 0,15,16
 -760 1089 -760 1089 -802 1127 c 2,17,-1
 -890 1212 l 1,18,19
 -1236 1538 -1236 1538 -1293 1628 c 0,20,21
 -1298 1636 -1298 1636 -1300 1641 c 0,22,23
 -1306 1658 -1306 1658 -1306 1674 c 0,0,1
EndSplineSet
EndChar

StartChar: uniEDC2
Encoding: 60866 60866 100
Width: 0
Flags: W
LayerCount: 2
Fore
SplineSet
-979 1665 m 0,0,1
 -979 1710 -979 1710 -942 1729 c 0,2,3
 -928 1736 -928 1736 -912 1736 c 0,4,5
 -877 1736 -877 1736 -849 1709 c 0,6,7
 -804 1667 -804 1667 -668 1450 c 0,8,9
 -537 1241 -537 1241 -512 1195 c 0,10,11
 -479 1137 -479 1137 -479 1123 c 0,12,13
 -479 1088 -479 1088 -513 1088 c 0,14,15
 -530 1088 -530 1088 -542 1100 c 0,16,17
 -556 1110 -556 1110 -734 1319 c 2,18,-1
 -758 1347 l 1,19,-1
 -921 1550 l 2,20,21
 -956 1597 -956 1597 -960 1605 c 0,22,23
 -979 1638 -979 1638 -979 1665 c 0,0,1
EndSplineSet
EndChar

StartChar: uniEDC1
Encoding: 60865 60865 101
Width: 0
Flags: W
LayerCount: 2
Fore
SplineSet
-923 1674 m 0,0,1
 -923 1722 -923 1722 -883 1739 c 0,2,3
 -869 1744 -869 1744 -853 1744 c 0,4,5
 -809 1744 -809 1744 -756 1684 c 2,6,-1
 -719 1640 l 2,7,8
 -597 1500 -597 1500 -406 1253 c 0,9,10
 -340 1166 -340 1166 -328 1146 c 0,11,12
 -323 1137 -323 1137 -323 1123 c 0,13,14
 -329 1094 -329 1094 -356 1089 c 0,15,16
 -377 1089 -377 1089 -419 1127 c 2,17,-1
 -507 1212 l 1,18,19
 -853 1538 -853 1538 -910 1628 c 0,20,21
 -915 1636 -915 1636 -917 1641 c 0,22,23
 -923 1658 -923 1658 -923 1674 c 0,0,1
EndSplineSet
EndChar

StartChar: uniEDC0
Encoding: 60864 60864 102
Width: 0
Flags: W
LayerCount: 2
Fore
SplineSet
-649 1665 m 0,0,1
 -649 1711 -649 1711 -611 1729 c 0,2,3
 -598 1736 -598 1736 -582 1736 c 0,4,5
 -547 1736 -547 1736 -519 1709 c 0,6,7
 -474 1667 -474 1667 -338 1450 c 0,8,9
 -184 1204 -184 1204 -159 1149 c 0,10,11
 -150 1130 -150 1130 -150 1123 c 0,12,13
 -156 1092 -156 1092 -183 1088 c 0,14,15
 -201 1088 -201 1088 -213 1100 c 0,16,17
 -227 1110 -227 1110 -413 1329 c 1,18,-1
 -591 1550 l 2,19,20
 -632 1606 -632 1606 -640 1624 c 0,21,22
 -649 1645 -649 1645 -649 1665 c 0,0,1
EndSplineSet
EndChar

StartChar: uni8021
Encoding: 32801 32801 103
Width: 1099
Flags: W
LayerCount: 2
Fore
SplineSet
688 12 m 1,0,1
 589 -13 589 -13 531 -15 c 0,2,3
 515 -16 515 -16 497 -16 c 0,4,5
 360 -16 360 -16 260 66 c 0,6,7
 203 113 203 113 167 183 c 0,8,9
 129 259 129 259 129 344 c 0,10,11
 129 453 129 453 190 558 c 0,12,13
 260 680 260 680 382 774 c 0,14,15
 402 790 402 790 422 803 c 0,16,17
 550 889 550 889 681 889 c 0,18,19
 814 889 814 889 887 835 c 0,20,21
 944 792 944 792 942 723 c 0,22,23
 939 634 939 634 863 591 c 0,24,25
 825 570 825 570 784 570 c 0,26,27
 740 570 740 570 701 601 c 0,28,29
 656 637 656 637 629 648 c 0,30,31
 576 670 576 670 491 670 c 0,32,33
 431 670 431 670 372 645 c 1,34,35
 348 588 348 588 348 531 c 0,36,37
 348 376 348 376 469 276 c 0,38,39
 559 202 559 202 680 202 c 0,40,41
 852 202 852 202 962 286 c 2,42,-1
 1031 341 l 2,43,44
 1056 358 1056 358 1079 358 c 0,45,46
 1095 358 1095 358 1096 342 c 0,47,48
 1096 297 1096 297 972 171 c 2,49,-1
 811 12 l 1,50,-1
 649 -154 l 2,51,52
 511 -290 511 -290 464 -290 c 0,53,54
 448 -290 448 -290 448 -275 c 0,55,56
 448 -236 448 -236 515 -163 c 0,57,58
 535 -142 535 -142 597 -79 c 2,59,-1
 688 12 l 1,0,1
EndSplineSet
EndChar

StartChar: uni205D
Encoding: 8285 8285 104
Width: 487
Flags: W
LayerCount: 2
Fore
SplineSet
260 674 m 0,0,1
 247 674 247 674 167 755 c 0,2,3
 107 816 107 816 107 827 c 128,-1,4
 107 838 107 838 178 913 c 0,5,6
 244 982 244 982 260 982 c 0,7,8
 270 982 270 982 342 913 c 0,9,10
 413 844 413 844 413 827 c 0,11,12
 413 812 413 812 327 729 c 0,13,14
 269 674 269 674 260 674 c 0,0,1
260 283 m 0,15,16
 245 283 245 283 164 367 c 0,17,18
 107 426 107 426 107 436 c 2,19,-1
 107 437 l 2,20,21
 107 446 107 446 178 519 c 0,22,23
 245 589 245 589 261 589 c 0,24,25
 276 589 276 589 360 501 c 0,26,27
 414 445 414 445 414 436 c 0,28,29
 414 422 414 422 330 341 c 0,30,31
 270 283 270 283 260 283 c 0,15,16
260 -110 m 0,32,33
 248 -110 248 -110 167 -28 c 0,34,35
 107 33 107 33 107 44 c 0,36,37
 107 56 107 56 182 133 c 0,38,39
 246 199 246 199 260 199 c 0,40,41
 272 199 272 199 346 126 c 0,42,43
 413 59 413 59 413 44 c 0,44,45
 413 28 413 28 323 -57 c 0,46,47
 268 -110 268 -110 260 -110 c 0,32,33
EndSplineSet
EndChar

StartChar: uniECA3
Encoding: 60579 60579 105
Width: 0
Flags: W
LayerCount: 2
Fore
SplineSet
-1370 -748 m 0,0,1
 -1418 -748 -1418 -748 -1435 -708 c 0,2,3
 -1441 -695 -1441 -695 -1441 -679 c 0,4,5
 -1441 -630 -1441 -630 -1377 -588 c 0,6,7
 -1226 -482 -1226 -482 -977 -332 c 0,8,9
 -788 -218 -788 -218 -763 -218 c 0,10,11
 -730 -220 -730 -220 -730 -251 c 0,12,13
 -730 -274 -730 -274 -754 -294 c 2,14,-1
 -1039 -528 l 2,15,16
 -1219 -671 -1219 -671 -1306 -728 c 0,17,18
 -1310 -730 -1310 -730 -1313 -732 c 0,19,20
 -1340 -748 -1340 -748 -1370 -748 c 0,0,1
EndSplineSet
EndChar

StartChar: uniECA2
Encoding: 60578 60578 106
Width: 0
Flags: W
LayerCount: 2
Fore
SplineSet
-892 -702 m 0,0,1
 -937 -702 -937 -702 -955 -665 c 0,2,3
 -962 -650 -962 -650 -962 -634 c 0,4,5
 -962 -600 -962 -600 -934 -569 c 0,6,7
 -903 -536 -903 -536 -787 -447 c 1,8,-1
 -587 -304 l 1,9,-1
 -481 -229 l 2,10,11
 -461 -217 -461 -217 -444 -217 c 0,12,13
 -417 -219 -417 -219 -413 -244 c 0,14,15
 -412 -247 -412 -247 -412 -250 c 0,16,17
 -412 -270 -412 -270 -442 -301 c 2,18,-1
 -526 -388 l 2,19,20
 -784 -658 -784 -658 -846 -691 c 0,21,22
 -870 -702 -870 -702 -892 -702 c 0,0,1
EndSplineSet
EndChar

StartChar: uniECA1
Encoding: 60577 60577 107
Width: 0
Flags: W
LayerCount: 2
Fore
SplineSet
-810 -702 m 0,0,1
 -857 -702 -857 -702 -874 -662 c 0,2,3
 -880 -649 -880 -649 -880 -634 c 0,4,5
 -880 -600 -880 -600 -852 -569 c 0,6,7
 -821 -536 -821 -536 -705 -447 c 1,8,-1
 -505 -304 l 1,9,-1
 -399 -229 l 2,10,11
 -379 -217 -379 -217 -362 -217 c 0,12,13
 -335 -219 -335 -219 -331 -244 c 0,14,15
 -330 -247 -330 -247 -330 -250 c 0,16,17
 -330 -270 -330 -270 -360 -301 c 2,18,-1
 -444 -388 l 2,19,20
 -702 -658 -702 -658 -764 -691 c 0,21,22
 -788 -702 -788 -702 -810 -702 c 0,0,1
EndSplineSet
EndChar

StartChar: parenleft
Encoding: 40 40 108
Width: 731
Flags: W
LayerCount: 2
Fore
SplineSet
631 -430 m 0,0,1
 631 -464 631 -464 569 -535 c 0,2,3
 498 -616 498 -616 444 -628 c 0,4,5
 437 -630 437 -630 431 -630 c 2,6,-1
 421 -629 l 2,7,8
 415 -625 415 -625 353 -557 c 0,9,10
 106 -274 106 -274 39 98 c 0,11,12
 16 221 16 221 16 345 c 0,13,14
 16 835 16 835 337 1249 c 0,15,16
 404 1337 404 1337 485 1418 c 0,17,18
 570 1503 570 1503 613 1503 c 0,19,20
 631 1503 631 1503 631 1485 c 0,21,22
 631 1449 631 1449 557 1368 c 2,23,-1
 502 1308 l 1,24,25
 324 1097 324 1097 262 792 c 0,26,27
 235 660 235 660 235 525 c 0,28,29
 235 153 235 153 429 -164 c 0,30,31
 508 -294 508 -294 616 -405 c 0,32,33
 629 -418 629 -418 629 -420 c 0,34,35
 631 -424 631 -424 631 -430 c 0,0,1
EndSplineSet
EndChar

StartChar: uniECD3
Encoding: 60627 60627 109
Width: 0
Flags: W
LayerCount: 2
Fore
SplineSet
-1279 -696 m 0,0,1
 -1279 -765 -1279 -765 -1236 -793 c 0,2,3
 -1219 -803 -1219 -803 -1199 -803 c 0,4,5
 -1146 -803 -1146 -803 -1076 -728 c 0,6,7
 -999 -644 -999 -644 -847 -415 c 0,8,9
 -759 -281 -759 -281 -735 -255 c 0,10,11
 -711 -227 -711 -227 -697 -227 c 0,12,13
 -677 -227 -677 -227 -673 -246 c 0,14,15
 -672 -250 -672 -250 -672 -253 c 0,16,17
 -672 -264 -672 -264 -709 -335 c 2,18,-1
 -749 -413 l 2,19,20
 -885 -679 -885 -679 -979 -797 c 0,21,22
 -1127 -986 -1127 -986 -1279 -986 c 0,23,24
 -1365 -986 -1365 -986 -1415 -922 c 0,25,26
 -1450 -876 -1450 -876 -1450 -814 c 0,27,28
 -1450 -696 -1450 -696 -1347 -597 c 0,29,30
 -1288 -541 -1288 -541 -1244 -531 c 0,31,32
 -1239 -530 -1239 -530 -1235 -530 c 0,33,34
 -1217 -530 -1217 -530 -1217 -547 c 0,35,36
 -1217 -570 -1217 -570 -1241 -598 c 0,37,38
 -1273 -634 -1273 -634 -1278 -671 c 0,39,40
 -1279 -683 -1279 -683 -1279 -696 c 0,0,1
EndSplineSet
EndChar

StartChar: uniECD2
Encoding: 60626 60626 110
Width: 0
Flags: W
LayerCount: 2
Fore
SplineSet
-957 -648 m 0,0,1
 -957 -735 -957 -735 -896 -765 c 0,2,3
 -880 -773 -880 -773 -868 -773 c 0,4,5
 -786 -773 -786 -773 -681 -595 c 1,6,-1
 -592 -426 l 2,7,8
 -511 -267 -511 -267 -497 -248 c 0,9,10
 -481 -226 -481 -226 -466 -226 c 0,11,12
 -444 -226 -444 -226 -441 -250 c 0,13,14
 -440 -252 -440 -252 -440 -255 c 0,15,16
 -440 -259 -440 -259 -441 -262 c 2,17,-1
 -454 -300 l 1,18,-1
 -547 -553 l 1,19,20
 -617 -727 -617 -727 -681 -810 c 0,21,22
 -769 -925 -769 -925 -878 -956 c 0,23,24
 -908 -965 -908 -965 -937 -965 c 0,25,26
 -1019 -965 -1019 -965 -1071 -903 c 0,27,28
 -1112 -854 -1112 -854 -1112 -786 c 0,29,30
 -1112 -702 -1112 -702 -1042 -603 c 0,31,32
 -985 -522 -985 -522 -935 -508 c 0,33,34
 -929 -506 -929 -506 -923 -506 c 0,35,36
 -904 -506 -904 -506 -904 -525 c 0,37,38
 -904 -554 -904 -554 -932 -590 c 0,39,40
 -957 -623 -957 -623 -957 -648 c 0,0,1
EndSplineSet
EndChar

StartChar: uniECD1
Encoding: 60625 60625 111
Width: 0
Flags: W
LayerCount: 2
Fore
SplineSet
-847 -708 m 2,0,1
 -847 -773 -847 -773 -807 -804 c 0,2,3
 -789 -818 -789 -818 -767 -818 c 0,4,5
 -718 -818 -718 -818 -662 -762 c 0,6,7
 -580 -681 -580 -681 -406 -414 c 0,8,9
 -314 -274 -314 -274 -284 -244 c 0,10,11
 -266 -227 -266 -227 -255 -227 c 0,12,13
 -237 -227 -237 -227 -231 -245 c 0,14,15
 -230 -249 -230 -249 -230 -253 c 0,16,17
 -230 -262 -230 -262 -255 -312 c 2,18,-1
 -306 -409 l 1,19,20
 -441 -675 -441 -675 -530 -792 c 0,21,22
 -686 -1000 -686 -1000 -848 -1000 c 0,23,24
 -937 -1000 -937 -1000 -987 -930 c 0,25,26
 -1018 -885 -1018 -885 -1018 -830 c 0,27,28
 -1018 -716 -1018 -716 -918 -615 c 0,29,30
 -858 -556 -858 -556 -814 -545 c 0,31,32
 -809 -544 -809 -544 -805 -544 c 0,33,34
 -788 -544 -788 -544 -785 -558 c 0,35,36
 -785 -559 -785 -559 -786 -564 c 0,37,38
 -786 -585 -786 -585 -811 -615 c 0,39,40
 -844 -655 -844 -655 -847 -696 c 2,41,-1
 -847 -708 l 2,0,1
EndSplineSet
EndChar

StartChar: uniECD0
Encoding: 60624 60624 112
Width: 0
Flags: W
LayerCount: 2
Fore
SplineSet
-576 -669 m 0,0,1
 -576 -726 -576 -726 -539 -764 c 0,2,3
 -516 -788 -516 -788 -485 -788 c 0,4,5
 -405 -788 -405 -788 -303 -616 c 0,6,7
 -251 -526 -251 -526 -205 -431 c 0,8,9
 -122 -265 -122 -265 -103 -242 c 0,10,11
 -90 -226 -90 -226 -77 -226 c 0,12,13
 -55 -226 -55 -226 -52 -250 c 0,14,15
 -52 -253 -52 -253 -52 -255 c 0,16,17
 -52 -265 -52 -265 -59 -282 c 2,18,-1
 -104 -406 l 2,19,20
 -207 -692 -207 -692 -281 -800 c 2,21,-1
 -296 -821 l 1,22,23
 -417 -979 -417 -979 -556 -979 c 0,24,25
 -649 -979 -649 -979 -700 -905 c 0,26,27
 -731 -859 -731 -859 -731 -802 c 0,28,29
 -731 -714 -731 -714 -658 -615 c 0,30,31
 -602 -538 -602 -538 -553 -524 c 0,32,33
 -548 -522 -548 -522 -543 -522 c 0,34,35
 -523 -520 -523 -520 -522 -541 c 0,36,37
 -522 -566 -522 -566 -550 -605 c 0,38,39
 -576 -641 -576 -641 -576 -669 c 0,0,1
EndSplineSet
EndChar

StartChar: uniE03C
Encoding: 57404 57404 113
Width: 1097
Flags: W
LayerCount: 2
Fore
SplineSet
633 -639 m 0,0,1
 650 -639 650 -639 650 -656 c 0,2,3
 650 -699 650 -699 570 -780 c 0,4,5
 491 -859 491 -859 403 -903 c 0,6,7
 322 -941 322 -941 246 -941 c 0,8,9
 113 -941 113 -941 26 -842 c 0,10,11
 -1 -812 -1 -812 -20 -774 c 0,12,13
 -51 -712 -51 -712 -51 -638 c 0,14,15
 -51 -507 -51 -507 51 -343 c 0,16,17
 109 -250 109 -250 196 -158 c 2,18,-1
 211 -142 l 1,19,-1
 212 -105 l 1,20,21
 221 53 221 53 221 483 c 2,22,-1
 224 869 l 1,23,-1
 224 870 l 1,24,25
 233 1181 233 1181 281 1368 c 0,26,27
 338 1601 338 1601 507 1750 c 1,28,-1
 520 1761 l 2,29,30
 575 1807 575 1807 608 1807 c 0,31,32
 625 1807 625 1807 625 1790 c 0,33,34
 625 1761 625 1761 581 1708 c 0,35,36
 546 1666 546 1666 537 1647 c 0,37,38
 439 1447 439 1447 439 838 c 2,39,-1
 439 802 l 1,40,-1
 440 728 l 1,41,-1
 460 744 l 1,42,43
 650 887 650 887 810 889 c 0,44,45
 943 891 943 891 993 762 c 0,46,47
 1014 707 1014 707 1014 646 c 0,48,49
 1014 522 1014 522 926 375 c 0,50,51
 849 247 849 247 717 136 c 0,52,53
 663 91 663 91 553 18 c 0,54,55
 435 -60 435 -60 316 -161 c 0,56,57
 207 -253 207 -253 176 -379 c 0,58,59
 167 -417 167 -417 167 -455 c 0,60,61
 167 -517 167 -517 205 -588 c 0,62,63
 278 -723 278 -723 428 -723 c 0,64,65
 497 -723 497 -723 554 -679 c 0,66,67
 594 -648 594 -648 608 -643 c 0,68,69
 620 -639 620 -639 633 -639 c 0,0,1
795 466 m 0,70,71
 795 536 795 536 761 596 c 0,72,73
 719 670 719 670 639 670 c 2,74,-1
 618 670 l 1,75,76
 517 663 517 663 440 608 c 1,77,-1
 439 474 l 2,78,79
 438 227 438 227 430 75 c 0,80,81
 430 56 430 56 429 39 c 1,82,83
 448 39 448 39 594 152 c 0,84,85
 685 221 685 221 717 254 c 0,86,87
 795 332 795 332 795 466 c 0,70,71
EndSplineSet
EndChar

StartChar: uniE802
Encoding: 59394 59394 114
Width: 1968
Flags: W
LayerCount: 2
Fore
SplineSet
425 -16 m 0,0,1
 285 -16 285 -16 197 107 c 0,2,3
 111 226 111 226 111 407 c 0,4,5
 111 750 111 750 349 1070 c 0,6,7
 551 1343 551 1343 870 1525 c 0,8,9
 943 1567 943 1567 1019 1601 c 0,10,11
 1385 1766 1385 1766 1821 1801 c 0,12,13
 1907 1807 1907 1807 1983 1807 c 0,14,15
 2027 1807 2027 1807 2031 1800 c 0,16,17
 2033 1797 2033 1797 2033 1790 c 0,18,19
 2033 1761 2033 1761 2006 1730 c 0,20,21
 1964 1681 1964 1681 1944 1641 c 0,22,23
 1882 1514 1882 1514 1861 1237 c 0,24,25
 1847 1055 1847 1055 1847 560 c 0,26,27
 1847 355 1847 355 1870 234 c 0,28,29
 1876 203 1876 203 1876 182 c 0,30,31
 1876 149 1876 149 1812 79 c 0,32,33
 1739 -4 1739 -4 1686 -15 c 0,34,35
 1680 -16 1680 -16 1675 -16 c 0,36,37
 1661 -16 1661 -16 1658 0 c 0,38,39
 1657 2 1657 2 1656 10 c 0,40,41
 1638 116 1638 116 1632 215 c 1,42,43
 1537 120 1537 120 1407 55 c 0,44,45
 1267 -17 1267 -17 1138 -17 c 0,46,47
 984 -17 984 -17 892 129 c 0,48,49
 870 164 870 164 856 200 c 1,50,-1
 840 184 l 1,51,52
 634 -16 634 -16 425 -16 c 0,0,1
1333 609 m 0,53,54
 1291 609 1291 609 1256 635 c 0,55,56
 1221 662 1221 662 1189 668 c 0,57,58
 1171 671 1171 671 1149 671 c 0,59,60
 1113 671 1113 671 1080 659 c 1,61,62
 1050 592 1050 592 1050 528 c 0,63,64
 1050 367 1050 367 1154 271 c 0,65,66
 1214 216 1214 216 1285 204 c 0,67,68
 1300 202 1300 202 1320 202 c 0,69,70
 1430 202 1430 202 1531 255 c 0,71,72
 1583 282 1583 282 1597 308 c 0,73,74
 1625 359 1625 359 1628 441 c 2,75,-1
 1630 773 l 2,76,77
 1633 880 1633 880 1639 998 c 0,78,79
 1659 1359 1659 1359 1749 1534 c 1,80,-1
 1779 1588 l 1,81,-1
 1726 1587 l 1,82,83
 1378 1572 1378 1572 1068 1468 c 0,84,85
 845 1393 845 1393 681 1279 c 0,86,87
 448 1118 448 1118 366 846 c 0,88,89
 329 722 329 722 329 589 c 0,90,91
 329 415 329 415 417 303 c 0,92,93
 495 202 495 202 608 202 c 0,94,95
 711 202 711 202 768 242 c 0,96,97
 788 256 788 256 797 273 c 0,98,99
 815 306 815 306 834 395 c 0,100,101
 860 513 860 513 911 594 c 0,102,103
 963 677 963 677 1056 762 c 0,104,105
 1199 886 1199 886 1334 888 c 0,106,107
 1474 888 1474 888 1490 790 c 0,108,109
 1492 779 1492 779 1492 768 c 0,110,111
 1492 722 1492 722 1461 676 c 0,112,113
 1416 609 1416 609 1333 609 c 0,53,54
EndSplineSet
EndChar

StartChar: uniE03E
Encoding: 57406 57406 115
Width: 1114
Flags: W
LayerCount: 2
Fore
SplineSet
723 629 m 1,0,-1
 307 653 l 1,1,2
 186 653 186 653 154 635 c 2,3,-1
 107 604 l 2,4,5
 103 601 103 601 98 599 c 0,6,7
 77 589 77 589 63 589 c 0,8,9
 48 589 48 589 48 606 c 0,10,11
 48 648 48 648 124 726 c 0,12,13
 193 797 193 797 266 833 c 0,14,15
 338 867 338 867 448 870 c 0,16,17
 467 871 467 871 491 871 c 0,18,19
 503 871 503 871 785 853 c 0,20,21
 871 847 871 847 904 847 c 0,22,23
 948 847 948 847 982 872 c 0,24,25
 1006 889 1006 889 1026 889 c 0,26,27
 1043 889 1043 889 1043 872 c 0,28,29
 1043 845 1043 845 1004 794 c 0,30,31
 981 765 981 765 978 753 c 0,32,33
 974 736 974 736 974 671 c 0,34,35
 974 362 974 362 959 -84 c 0,36,37
 953 -280 953 -280 946 -353 c 0,38,39
 923 -587 923 -587 863 -719 c 0,40,41
 814 -827 814 -827 718 -930 c 0,42,43
 648 -1005 648 -1005 596 -1020 c 0,44,45
 588 -1022 588 -1022 582 -1022 c 0,46,47
 566 -1022 566 -1022 564 -1007 c 0,48,49
 564 -978 564 -978 606 -926 c 0,50,51
 647 -873 647 -873 660 -846 c 0,52,53
 723 -707 723 -707 737 -404 c 1,54,-1
 754 333 l 1,55,-1
 758 540 l 2,56,57
 762 607 762 607 777 634 c 1,58,-1
 723 629 l 1,0,-1
EndSplineSet
EndChar

StartChar: uniED73
Encoding: 60787 60787 116
Width: 0
Flags: W
LayerCount: 2
Fore
SplineSet
-1327 -424 m 0,0,1
 -1327 -344 -1327 -344 -1255 -262 c 0,2,3
 -1180 -175 -1180 -175 -1088 -162 c 0,4,5
 -1075 -160 -1075 -160 -1062 -160 c 0,6,7
 -990 -160 -990 -160 -942 -212 c 0,8,9
 -935 -220 -935 -220 -929 -229 c 0,10,11
 -900 -271 -900 -271 -900 -322 c 0,12,13
 -900 -418 -900 -418 -987 -502 c 0,14,15
 -1063 -575 -1063 -575 -1146 -585 c 0,16,17
 -1155 -586 -1155 -586 -1164 -586 c 0,18,19
 -1250 -586 -1250 -586 -1298 -518 c 0,20,21
 -1327 -476 -1327 -476 -1327 -424 c 0,0,1
-1032 -425 m 0,22,23
 -1032 -356 -1032 -356 -1085 -317 c 0,24,25
 -1120 -291 -1120 -291 -1168 -291 c 0,26,27
 -1173 -291 -1173 -291 -1193 -294 c 1,28,29
 -1196 -309 -1196 -309 -1196 -319 c 0,30,31
 -1196 -390 -1196 -390 -1142 -430 c 0,32,33
 -1107 -455 -1107 -455 -1062 -455 c 0,34,35
 -1051 -455 -1051 -455 -1034 -452 c 1,36,37
 -1032 -438 -1032 -438 -1032 -425 c 0,22,23
EndSplineSet
EndChar

StartChar: uniED72
Encoding: 60786 60786 117
Width: 0
Flags: W
LayerCount: 2
Fore
SplineSet
-1206 -423 m 0,0,1
 -1206 -344 -1206 -344 -1135 -263 c 0,2,3
 -1060 -175 -1060 -175 -968 -162 c 0,4,5
 -955 -160 -955 -160 -942 -160 c 0,6,7
 -872 -160 -872 -160 -823 -210 c 0,8,9
 -815 -219 -815 -219 -808 -229 c 0,10,11
 -779 -271 -779 -271 -779 -322 c 0,12,13
 -779 -417 -779 -417 -866 -501 c 0,14,15
 -942 -574 -942 -574 -1023 -585 c 0,16,17
 -1033 -586 -1033 -586 -1043 -586 c 0,18,19
 -1130 -586 -1130 -586 -1177 -518 c 0,20,21
 -1206 -475 -1206 -475 -1206 -423 c 0,0,1
-911 -425 m 0,22,23
 -911 -356 -911 -356 -964 -317 c 0,24,25
 -999 -291 -999 -291 -1047 -291 c 0,26,27
 -1070 -291 -1070 -291 -1073 -299 c 0,28,29
 -1075 -304 -1075 -304 -1075 -320 c 0,30,31
 -1075 -398 -1075 -398 -1012 -436 c 0,32,33
 -980 -455 -980 -455 -941 -455 c 0,34,35
 -916 -455 -916 -455 -912 -447 c 0,36,37
 -911 -441 -911 -441 -911 -425 c 0,22,23
EndSplineSet
EndChar

StartChar: uniE03A
Encoding: 57402 57402 118
Width: 2142
Flags: W
LayerCount: 2
Fore
SplineSet
25 596 m 0,0,1
 25 644 25 644 107 724 c 0,2,3
 206 821 206 821 315 857 c 0,4,5
 359 871 359 871 396 871 c 0,6,7
 480 871 480 871 500 770 c 0,8,9
 505 742 505 742 505 678 c 2,10,-1
 504 622 l 1,11,-1
 529 647 l 2,12,13
 731 849 731 849 929 884 c 0,14,15
 943 886 943 886 958 888 c 2,16,-1
 984 888 l 2,17,18
 1093 888 1093 888 1174 802 c 0,19,20
 1236 735 1236 735 1263 629 c 1,21,-1
 1290 656 l 2,22,23
 1420 786 1420 786 1557 848 c 0,24,25
 1647 889 1647 889 1724 889 c 0,26,27
 1824 889 1824 889 1900 816 c 0,28,29
 1973 747 1973 747 1990 636 c 0,30,31
 1992 620 1992 620 1992 593 c 0,32,33
 1992 401 1992 401 1804 196 c 1,34,-1
 1808 195 l 1,35,36
 1877 195 1877 195 1960 151 c 0,37,38
 2087 85 2087 85 2132 -44 c 0,39,40
 2150 -98 2150 -98 2150 -155 c 0,41,42
 2150 -281 2150 -281 2053 -418 c 0,43,44
 1943 -574 1943 -574 1772 -647 c 0,45,46
 1660 -694 1660 -694 1538 -694 c 0,47,48
 1389 -694 1389 -694 1270 -625 c 0,49,50
 1185 -576 1185 -576 1152 -506 c 0,51,52
 1131 -464 1131 -464 1131 -423 c 0,53,54
 1131 -345 1131 -345 1209 -250 c 0,55,56
 1273 -172 1273 -172 1329 -156 c 0,57,58
 1338 -153 1338 -153 1347 -153 c 0,59,60
 1366 -153 1366 -153 1366 -173 c 0,61,62
 1366 -200 1366 -200 1326 -252 c 1,63,-1
 1326 -269 l 2,64,65
 1326 -342 1326 -342 1407 -408 c 0,66,67
 1513 -495 1513 -495 1673 -500 c 0,68,69
 1683 -501 1683 -501 1692 -501 c 0,70,71
 1806 -501 1806 -501 1882 -463 c 0,72,73
 1923 -443 1923 -443 1934 -416 c 0,74,75
 1955 -366 1955 -366 1955 -312 c 0,76,77
 1955 -160 1955 -160 1834 -69 c 0,78,79
 1763 -15 1763 -15 1675 -2 c 1,80,-1
 1299 6 l 1,81,-1
 1163 8 l 1,82,-1
 1161 8 l 2,83,84
 1096 10 1096 10 957 10 c 0,85,86
 598 10 598 10 338 -11 c 0,87,88
 271 -16 271 -16 225 -16 c 0,89,90
 214 -13 214 -13 214 2 c 0,91,92
 214 26 214 26 239 60 c 0,93,94
 270 101 270 101 277 141 c 0,95,96
 286 202 286 202 286 501 c 0,97,98
 286 639 286 639 228 652 c 0,99,100
 221 653 221 653 214 653 c 0,101,102
 160 653 160 653 115 616 c 0,103,104
 81 587 81 587 65 583 c 0,105,106
 54 579 54 579 43 579 c 0,107,108
 25 579 25 579 25 596 c 0,0,1
451 183 m 1,109,110
 675 197 675 197 908 203 c 0,111,112
 977 203 977 203 1018 218 c 1,113,114
 1052 293 1052 293 1052 362 c 0,115,116
 1052 499 1052 499 969 589 c 0,117,118
 894 670 894 670 790 670 c 0,119,120
 711 670 711 670 622 610 c 0,121,122
 596 593 596 593 584 579 c 0,123,124
 530 518 530 518 510 405 c 2,125,-1
 488 285 l 2,126,127
 474 226 474 226 449 183 c 1,128,-1
 451 183 l 1,109,110
1774 401 m 0,129,130
 1774 538 1774 538 1685 615 c 0,131,132
 1620 670 1620 670 1529 670 c 0,133,134
 1455 670 1455 670 1376 614 c 0,135,136
 1360 603 1360 603 1350 593 c 0,137,138
 1314 558 1314 558 1271 459 c 0,139,140
 1216 331 1216 331 1178 272 c 0,141,142
 1155 237 1155 237 1129 205 c 1,143,-1
 1223 204 l 2,144,145
 1325 202 1325 202 1373 202 c 0,146,147
 1558 196 1558 196 1608 198 c 0,148,149
 1749 203 1749 203 1771 350 c 0,150,151
 1774 374 1774 374 1774 401 c 0,129,130
EndSplineSet
EndChar

StartChar: uniE067
Encoding: 57447 57447 119
Width: 1009
Flags: W
LayerCount: 2
Fore
SplineSet
30 1223 m 0,0,1
 30 1263 30 1263 102 1339 c 0,2,3
 199 1442 199 1442 308 1481 c 0,4,5
 355 1497 355 1497 397 1497 c 0,6,7
 483 1497 483 1497 500 1407 c 0,8,9
 502 1394 502 1394 503 1394 c 0,10,11
 581 1437 581 1437 599 1444 c 0,12,13
 647 1463 647 1463 702 1463 c 0,14,15
 763 1463 763 1463 786 1396 c 0,16,17
 806 1339 806 1339 806 1222 c 0,18,19
 806 472 806 472 713 232 c 0,20,21
 639 44 639 44 385 -169 c 1,22,-1
 210 -312 l 2,23,24
 188 -332 188 -332 179 -344 c 0,25,26
 159 -370 159 -370 159 -406 c 0,27,28
 159 -467 159 -467 213 -499 c 0,29,30
 243 -518 243 -518 279 -518 c 0,31,32
 319 -518 319 -518 359 -486 c 1,33,34
 401 -458 401 -458 423 -456 c 0,35,36
 440 -456 440 -456 440 -474 c 0,37,38
 440 -510 440 -510 373 -583 c 0,39,40
 280 -685 280 -685 176 -722 c 0,41,42
 134 -736 134 -736 97 -736 c 0,43,44
 9 -736 9 -736 -35 -671 c 0,45,46
 -59 -635 -59 -635 -59 -589 c 0,47,48
 -59 -490 -59 -490 58 -348 c 0,49,50
 84 -316 84 -316 115 -284 c 0,51,52
 262 -129 262 -129 281 506 c 0,53,54
 292 942 292 942 292 1082 c 0,55,56
 292 1213 292 1213 268 1251 c 0,57,58
 257 1270 257 1270 239 1277 c 0,59,60
 234 1279 234 1279 218 1279 c 0,61,62
 165 1279 165 1279 121 1243 c 0,63,64
 86 1215 86 1215 67 1210 c 0,65,66
 56 1206 56 1206 42 1206 c 0,67,68
 30 1206 30 1206 30 1223 c 0,0,1
587 1008 m 0,69,70
 587 1202 587 1202 550 1235 c 0,71,72
 538 1245 538 1245 519 1245 c 2,73,-1
 510 1245 l 1,74,-1
 510 1240 l 2,75,76
 510 992 510 992 495 601 c 0,77,78
 492 514 492 514 489 469 c 0,79,80
 465 139 465 139 380 -54 c 1,81,82
 381 -54 381 -54 420 -21 c 0,83,84
 502 51 502 51 537 207 c 0,85,86
 587 426 587 426 587 1008 c 0,69,70
EndSplineSet
EndChar

StartChar: parenright
Encoding: 41 41 120
Width: 731
Flags: W
LayerCount: 2
Fore
SplineSet
66 1306 m 0,0,1
 66 1339 66 1339 129 1409 c 0,2,3
 202 1491 202 1491 254 1501 c 0,4,5
 260 1503 260 1503 265 1503 c 0,6,7
 278 1503 278 1503 304 1474 c 2,8,-1
 343 1430 l 2,9,10
 593 1143 593 1143 659 767 c 0,11,12
 680 648 680 648 680 527 c 0,13,14
 680 50 680 50 371 -360 c 0,15,16
 299 -456 299 -456 211 -545 c 0,17,18
 139 -618 139 -618 92 -629 c 0,19,20
 87 -630 87 -630 83 -630 c 0,21,22
 66 -630 66 -630 66 -612 c 0,23,24
 66 -580 66 -580 114 -525 c 2,25,-1
 196 -432 l 1,26,27
 289 -319 289 -319 352 -178 c 0,28,29
 462 65 462 65 462 345 c 0,30,31
 462 754 462 754 232 1091 c 0,32,33
 165 1190 165 1190 80 1278 c 0,34,35
 66 1292 66 1292 66 1300 c 0,36,37
 66 1302 66 1302 66 1306 c 0,0,1
EndSplineSet
EndChar

StartChar: uniECA0
Encoding: 60576 60576 121
Width: 0
Flags: W
LayerCount: 2
Fore
SplineSet
-509 -729 m 0,0,1
 -557 -729 -557 -729 -572 -687 c 0,2,3
 -577 -674 -577 -674 -577 -659 c 0,4,5
 -577 -612 -577 -612 -491 -519 c 0,6,7
 -437 -461 -437 -461 -314 -344 c 2,8,-1
 -228 -260 l 2,9,10
 -198 -230 -198 -230 -189 -225 c 0,11,12
 -176 -216 -176 -216 -165 -216 c 0,13,14
 -133 -216 -133 -216 -130 -251 c 0,15,16
 -130 -276 -130 -276 -288 -501 c 0,17,18
 -388 -642 -388 -642 -428 -686 c 0,19,20
 -466 -729 -466 -729 -509 -729 c 0,0,1
EndSplineSet
EndChar

StartChar: uniEBE0
Encoding: 60384 60384 122
Width: 784
Flags: W
LayerCount: 2
Fore
SplineSet
-334 -16 m 2,0,-1
 -607 -23 l 2,1,2
 -633 -23 -633 -23 -636 -11 c 0,3,4
 -637 -8 -637 -8 -637 -3 c 0,5,6
 -637 30 -637 30 -585 90 c 0,7,8
 -525 158 -525 158 -471 170 c 1,9,-1
 -207 178 l 2,10,11
 -192 178 -192 178 -179 178 c 0,12,13
 -93 178 -93 178 -50 212 c 0,14,15
 -36 223 -36 223 4 267 c 0,16,17
 135 410 135 410 218 464 c 0,18,19
 319 528 319 528 432 526 c 0,20,21
 640 522 640 522 739 325 c 0,22,23
 795 216 795 216 800 99 c 1,24,-1
 800 87 l 2,25,26
 800 -108 800 -108 662 -276 c 0,27,28
 556 -407 556 -407 418 -461 c 0,29,30
 353 -487 353 -487 296 -487 c 0,31,32
 230 -487 230 -487 162 -452 c 0,33,34
 48 -392 48 -392 48 -267 c 0,35,36
 48 -180 48 -180 129 -80 c 0,37,38
 192 -1 192 -1 248 18 c 0,39,40
 259 21 259 21 269 21 c 0,41,42
 289 21 289 21 289 2 c 0,43,44
 289 -20 289 -20 265 -53 c 0,45,46
 243 -85 243 -85 243 -113 c 0,47,48
 243 -159 243 -159 279 -209 c 0,49,50
 338 -292 338 -292 452 -292 c 0,51,52
 538 -292 538 -292 567 -243 c 0,53,54
 575 -229 575 -229 586 -198 c 0,55,56
 605 -139 605 -139 605 -71 c 0,57,58
 605 16 605 16 564 115 c 0,59,60
 488 299 488 299 321 327 c 0,61,62
 293 331 293 331 263 331 c 0,63,64
 190 331 190 331 135 280 c 0,65,66
 125 272 125 272 59 198 c 0,67,68
 9 144 9 144 -40 103 c 0,69,70
 -177 -11 -177 -11 -310 -16 c 0,71,72
 -320 -16 -320 -16 -334 -16 c 2,0,-1
EndSplineSet
EndChar

StartChar: uniEBDA
Encoding: 60378 60378 123
Width: 1218
Flags: W
LayerCount: 2
Fore
SplineSet
217 728 m 2,0,-1
 -250 718 l 2,1,2
 -270 718 -270 718 -270 736 c 0,3,4
 -270 770 -270 770 -221 828 c 0,5,6
 -179 877 -179 877 -129 902 c 0,7,8
 -105 914 -105 914 -31 914 c 0,9,10
 141 915 141 915 272 922 c 0,11,12
 312 923 312 923 347 923 c 0,13,14
 504 923 504 923 560 917 c 0,15,16
 848 888 848 888 945 688 c 0,17,18
 982 613 982 613 982 523 c 0,19,20
 982 385 982 385 877 243 c 0,21,22
 773 102 773 102 626 40 c 0,23,24
 542 4 542 4 459 4 c 0,25,26
 312 4 312 4 211 94 c 0,27,28
 142 156 142 156 128 234 c 0,29,30
 123 258 123 258 123 278 c 0,31,32
 123 360 123 360 204 457 c 0,33,34
 267 533 267 533 321 550 c 0,35,36
 331 553 331 553 340 553 c 0,37,38
 359 553 359 553 359 532 c 128,-1,39
 359 511 359 511 335 477 c 0,40,41
 318 453 318 453 318 436 c 0,42,43
 318 328 318 328 424 257 c 0,44,45
 512 198 512 198 611 198 c 0,46,47
 680 198 680 198 735 223 c 0,48,49
 750 230 750 230 754 236 c 0,50,51
 787 281 787 281 788 369 c 2,52,-1
 787 407 l 1,53,54
 770 533 770 533 674 620 c 0,55,56
 595 690 595 690 485 709 c 0,57,58
 372 728 372 728 217 728 c 2,0,-1
EndSplineSet
EndChar

StartChar: uniEBF8
Encoding: 60408 60408 124
Width: 905
Flags: W
LayerCount: 2
Fore
SplineSet
-377 172 m 0,0,1
 -221 172 -221 172 -87 166 c 0,2,3
 -84 166 -84 166 -42 165 c 1,4,5
 79 409 79 409 268 558 c 0,6,7
 450 703 450 703 632 703 c 0,8,9
 733 703 733 703 783 619 c 0,10,11
 814 566 814 566 814 492 c 0,12,13
 814 394 814 394 748 284 c 0,14,15
 700 203 700 203 624 139 c 0,16,17
 470 8 470 8 255 -22 c 0,18,19
 165 -35 165 -35 41 -35 c 2,20,-1
 22 -35 l 1,21,-1
 5 -87 l 2,22,23
 -90 -383 -90 -383 -165 -527 c 0,24,25
 -268 -726 -268 -726 -433 -870 c 0,26,27
 -601 -1018 -601 -1018 -744 -1018 c 0,28,29
 -847 -1018 -847 -1018 -901 -955 c 0,30,31
 -934 -918 -934 -918 -934 -867 c 0,32,33
 -934 -806 -934 -806 -865 -735 c 0,34,35
 -802 -675 -802 -675 -758 -672 c 0,36,37
 -738 -672 -738 -672 -738 -693 c 0,38,39
 -739 -704 -739 -704 -739 -712 c 0,40,41
 -739 -770 -739 -770 -678 -803 c 0,42,43
 -639 -823 -639 -823 -590 -823 c 0,44,45
 -490 -823 -490 -823 -413 -729 c 0,46,47
 -370 -676 -370 -676 -325 -587 c 0,48,49
 -266 -468 -266 -468 -197 -250 c 0,50,51
 -151 -104 -151 -104 -125 -32 c 1,52,53
 -361 -23 -361 -23 -516 -23 c 0,54,55
 -624 -23 -624 -23 -632 -16 c 0,56,57
 -636 -13 -636 -13 -636 -5 c 0,58,59
 -636 47 -636 47 -556 116 c 0,60,61
 -503 163 -503 163 -470 170 c 0,62,63
 -463 172 -463 172 -377 172 c 0,0,1
620 327 m 0,64,65
 620 428 620 428 566 477 c 0,66,67
 530 509 530 509 477 509 c 0,68,69
 354 509 354 509 269 442 c 0,70,71
 257 433 257 433 247 423 c 0,72,73
 180 356 180 356 120 228 c 0,74,75
 91 167 91 167 91 162 c 0,76,77
 91 160 91 160 172 160 c 0,78,79
 436 160 436 160 553 208 c 0,80,81
 592 224 592 224 601 243 c 0,82,83
 620 284 620 284 620 327 c 0,64,65
EndSplineSet
EndChar

StartChar: uniEBF9
Encoding: 60409 60409 125
Width: 1218
Flags: W
LayerCount: 2
Fore
SplineSet
-339 -672 m 2,0,-1
 -339 -696 l 2,1,2
 -339 -781 -339 -781 -235 -817 c 0,3,4
 -193 -831 -193 -831 -158 -831 c 0,5,6
 7 -831 7 -831 122 -592 c 0,7,8
 179 -473 179 -473 258 -202 c 0,9,10
 300 -57 300 -57 319 0 c 0,11,12
 327 24 327 24 327 26 c 0,13,14
 327 31 327 31 -12 35 c 0,15,16
 -114 36 -114 36 -219 36 c 0,17,18
 -345 36 -345 36 -354 43 c 0,19,20
 -358 46 -358 46 -358 55 c 0,21,22
 -358 88 -358 88 -310 145 c 0,23,24
 -256 207 -256 207 -193 230 c 1,25,-1
 -30 230 l 2,26,27
 165 230 165 230 381 225 c 2,28,-1
 408 224 l 1,29,30
 525 458 525 458 705 608 c 0,31,32
 893 763 893 763 1081 763 c 0,33,34
 1182 763 1182 763 1233 678 c 0,35,36
 1266 624 1266 624 1266 549 c 0,37,38
 1266 433 1266 433 1181 312 c 0,39,40
 1126 235 1126 235 1042 171 c 0,41,42
 899 62 899 62 704 37 c 0,43,44
 629 27 629 27 514 25 c 2,45,-1
 476 24 l 1,46,-1
 430 -133 l 1,47,48
 343 -415 343 -415 272 -552 c 0,49,50
 181 -724 181 -724 18 -875 c 128,-1,51
 -145 -1026 -145 -1026 -311 -1026 c 0,52,53
 -430 -1026 -430 -1026 -493 -955 c 0,54,55
 -534 -909 -534 -909 -534 -848 c 0,56,57
 -534 -765 -534 -765 -444 -692 c 0,58,59
 -390 -649 -390 -649 -358 -647 c 0,60,61
 -339 -647 -339 -647 -339 -672 c 2,0,-1
1072 394 m 0,62,63
 1072 495 1072 495 1008 542 c 0,64,65
 973 568 973 568 927 568 c 0,66,67
 762 568 762 568 657 434 c 0,68,69
 599 361 599 361 550 239 c 0,70,71
 543 222 543 222 543 220 c 2,72,-1
 577 220 l 2,73,74
 950 220 950 220 1035 283 c 0,75,76
 1047 291 1047 291 1052 301 c 0,77,78
 1072 340 1072 340 1072 394 c 0,62,63
EndSplineSet
EndChar

StartChar: uniE801
Encoding: 59393 59393 126
Width: 2152
Flags: W
LayerCount: 2
Fore
SplineSet
739 846 m 0,0,1
 952 846 952 846 1019 853 c 0,2,3
 1024 853 1024 853 1024 856 c 2,4,-1
 1026 896 l 1,5,6
 1036 1201 1036 1201 1078 1363 c 0,7,8
 1136 1580 1136 1580 1283 1726 c 0,9,10
 1364 1802 1364 1802 1407 1807 c 0,11,12
 1425 1807 1425 1807 1425 1790 c 0,13,14
 1425 1760 1425 1760 1398 1728 c 0,15,16
 1356 1680 1356 1680 1337 1643 c 0,17,18
 1302 1574 1302 1574 1282 1461 c 0,19,20
 1241 1233 1241 1233 1241 848 c 0,21,22
 1240 775 1240 775 1240 661 c 2,23,-1
 1239 607 l 1,24,-1
 1255 622 l 1,25,26
 1411 775 1411 775 1576 844 c 0,27,28
 1681 888 1681 888 1775 888 c 0,29,30
 1919 888 1919 888 2012 781 c 0,31,32
 2097 683 2097 683 2097 547 c 0,33,34
 2097 331 2097 331 1872 126 c 0,35,36
 1726 -7 1726 -7 1580 -15 c 0,37,38
 1565 -16 1565 -16 1545 -16 c 0,39,40
 1429 -16 1429 -16 1401 62 c 0,41,42
 1395 81 1395 81 1395 100 c 2,43,-1
 1395 110 l 2,44,45
 1395 168 1395 168 1442 216 c 128,-1,46
 1489 264 1489 264 1554 264 c 0,47,48
 1594 264 1594 264 1628 238 c 0,49,50
 1664 211 1664 211 1697 205 c 0,51,52
 1716 202 1716 202 1740 202 c 0,53,54
 1792 202 1792 202 1846 225 c 1,55,56
 1878 290 1878 290 1878 364 c 0,57,58
 1878 496 1878 496 1791 585 c 0,59,60
 1708 670 1708 670 1589 670 c 0,61,62
 1473 670 1473 670 1347 583 c 0,63,64
 1326 569 1326 569 1311 556 c 0,65,66
 1262 513 1262 513 1241 418 c 0,67,68
 1237 396 1237 396 1235 375 c 0,69,70
 1229 301 1229 301 1229 31 c 0,71,72
 1231 -314 1231 -314 1194 -504 c 0,73,74
 1178 -584 1178 -584 1155 -652 c 0,75,76
 1101 -813 1101 -813 979 -935 c 0,77,78
 895 -1016 895 -1016 847 -1022 c 0,79,80
 830 -1022 830 -1022 830 -1005 c 0,81,82
 830 -983 830 -983 869 -930 c 0,83,84
 925 -853 925 -853 944 -800 c 0,85,86
 990 -661 990 -661 1002 -395 c 1,87,-1
 1017 218 l 2,88,89
 1016 218 1016 218 968 178 c 0,90,91
 734 -16 734 -16 482 -16 c 0,92,93
 333 -16 333 -16 243 89 c 0,94,95
 168 177 168 177 168 302 c 0,96,97
 168 466 168 466 306 633 c 1,98,-1
 326 656 l 1,99,-1
 320 656 l 2,100,101
 241 656 241 656 168 681 c 0,102,103
 150 687 150 687 140 694 c 0,104,105
 108 716 108 716 96 777 c 0,106,107
 94 788 94 788 94 796 c 0,108,109
 94 864 94 864 168 947 c 0,110,111
 231 1018 231 1018 281 1029 c 0,112,113
 288 1031 288 1031 294 1031 c 0,114,115
 313 1031 313 1031 313 1012 c 0,116,117
 313 997 313 997 294 962 c 0,118,119
 289 952 289 952 289 947 c 0,120,121
 289 917 289 917 315 886 c 0,122,123
 319 880 319 880 323 878 c 0,124,125
 383 845 383 845 739 846 c 0,0,1
386 484 m 2,126,127
 386 359 386 359 474 276 c 0,128,129
 552 202 552 202 663 202 c 0,130,131
 788 202 788 202 912 261 c 0,132,133
 976 291 976 291 991 316 c 0,134,135
 1026 373 1026 373 1023 509 c 0,136,137
 1022 542 1022 542 1022 551 c 0,138,139
 1022 678 1022 678 1020 678 c 2,140,-1
 933 663 l 1,141,142
 828 651 828 651 626 651 c 0,143,144
 515 651 515 651 463 640 c 0,145,146
 442 636 442 636 422 629 c 1,147,148
 387 555 387 555 386 490 c 2,149,-1
 386 484 l 2,126,127
EndSplineSet
EndChar

StartChar: uniE800
Encoding: 59392 59392 127
Width: 2082
Flags: W
LayerCount: 2
Fore
SplineSet
632 609 m 0,0,1
 593 609 593 609 558 634 c 0,2,3
 520 662 520 662 485 668 c 0,4,5
 467 670 467 670 446 670 c 0,6,7
 395 670 395 670 339 648 c 1,8,9
 309 580 309 580 307 524 c 0,10,11
 306 517 306 517 306 509 c 0,12,13
 306 398 306 398 376 309 c 0,14,15
 397 283 397 283 421 264 c 0,16,17
 500 202 500 202 595 202 c 0,18,19
 713 202 713 202 837 259 c 0,20,21
 906 290 906 290 922 316 c 0,22,23
 945 354 945 354 949 408 c 0,24,25
 953 451 953 451 953 611 c 0,26,27
 956 1149 956 1149 1014 1374 c 0,28,29
 1037 1465 1037 1465 1074 1536 c 0,30,31
 1137 1658 1137 1658 1238 1748 c 0,32,33
 1304 1807 1304 1807 1338 1807 c 0,34,35
 1356 1807 1356 1807 1356 1791 c 2,36,-1
 1356 1787 l 2,37,38
 1356 1763 1356 1763 1330 1732 c 0,39,40
 1283 1675 1283 1675 1258 1616 c 0,41,42
 1189 1447 1189 1447 1176 1082 c 0,43,44
 1172 993 1172 993 1172 848 c 2,45,-1
 1171 661 l 1,46,-1
 1171 607 l 1,47,-1
 1186 622 l 2,48,49
 1330 763 1330 763 1488 835 c 0,50,51
 1604 888 1604 888 1706 888 c 0,52,53
 1853 888 1853 888 1946 778 c 0,54,55
 2028 681 2028 681 2028 547 c 0,56,57
 2028 388 2028 388 1901 227 c 0,58,59
 1793 89 1793 89 1650 23 c 0,60,61
 1587 -6 1587 -6 1529 -14 c 0,62,63
 1511 -16 1511 -16 1476 -16 c 0,64,65
 1340 -16 1340 -16 1327 85 c 0,66,67
 1326 97 1326 97 1326 110 c 0,68,69
 1329 195 1329 195 1402 240 c 0,70,71
 1442 264 1442 264 1485 264 c 0,72,73
 1525 264 1525 264 1559 238 c 0,74,75
 1596 211 1596 211 1629 205 c 0,76,77
 1648 202 1648 202 1671 202 c 0,78,79
 1723 202 1723 202 1777 225 c 1,80,81
 1809 277 1809 277 1810 364 c 0,82,83
 1810 506 1810 506 1707 597 c 0,84,85
 1641 656 1641 656 1560 668 c 0,86,87
 1548 670 1548 670 1520 670 c 0,88,89
 1405 670 1405 670 1280 584 c 0,90,91
 1258 569 1258 569 1243 556 c 0,92,93
 1194 513 1194 513 1173 426 c 0,94,95
 1167 400 1167 400 1166 375 c 0,96,97
 1162 307 1162 307 1158 -25 c 0,98,99
 1154 -373 1154 -373 1113 -554 c 0,100,101
 1101 -606 1101 -606 1086 -652 c 0,102,103
 1036 -803 1036 -803 918 -927 c 0,104,105
 836 -1014 836 -1014 785 -1021 c 0,106,107
 781 -1022 781 -1022 778 -1022 c 0,108,109
 761 -1022 761 -1022 761 -1005 c 0,110,111
 761 -977 761 -977 788 -945 c 0,112,113
 832 -893 832 -893 853 -848 c 0,114,115
 898 -754 898 -754 919 -587 c 0,116,117
 937 -448 937 -448 940 -274 c 0,118,119
 945 85 945 85 948 194 c 2,120,-1
 948 219 l 1,121,122
 858 129 858 129 723 63 c 0,123,124
 563 -16 563 -16 413 -16 c 0,125,126
 273 -16 273 -16 179 84 c 0,127,128
 88 182 88 182 88 325 c 0,129,130
 88 465 88 465 197 619 c 0,131,132
 302 766 302 766 444 840 c 0,133,134
 539 889 539 889 628 889 c 0,135,136
 783 889 783 889 791 778 c 0,137,138
 792 773 792 773 792 767 c 0,139,140
 792 723 792 723 760 676 c 0,141,142
 715 609 715 609 632 609 c 0,0,1
EndSplineSet
EndChar

StartChar: uniED71
Encoding: 60785 60785 128
Width: 0
Flags: W
LayerCount: 2
Fore
SplineSet
-839 -425 m 0,0,1
 -839 -345 -839 -345 -768 -263 c 0,2,3
 -693 -175 -693 -175 -601 -162 c 0,4,5
 -588 -160 -588 -160 -575 -160 c 0,6,7
 -503 -160 -503 -160 -455 -212 c 0,8,9
 -448 -220 -448 -220 -442 -229 c 0,10,11
 -413 -271 -413 -271 -413 -322 c 0,12,13
 -413 -416 -413 -416 -499 -501 c 0,14,15
 -575 -575 -575 -575 -657 -585 c 0,16,17
 -667 -586 -667 -586 -677 -586 c 0,18,19
 -785 -586 -785 -586 -826 -487 c 0,20,21
 -839 -453 -839 -453 -839 -425 c 0,0,1
-544 -422 m 0,22,23
 -544 -351 -544 -351 -601 -313 c 0,24,25
 -635 -291 -635 -291 -680 -291 c 0,26,27
 -702 -291 -702 -291 -706 -300 c 0,28,29
 -708 -306 -708 -306 -708 -324 c 0,30,31
 -708 -389 -708 -389 -656 -429 c 0,32,33
 -620 -455 -620 -455 -574 -455 c 0,34,35
 -564 -455 -564 -455 -547 -452 c 1,36,37
 -544 -437 -544 -437 -544 -422 c 0,22,23
EndSplineSet
EndChar

StartChar: uniED70
Encoding: 60784 60784 129
Width: 0
Flags: W
LayerCount: 2
Fore
SplineSet
-528 -432 m 4,0,1
 -528 -340 -528 -340 -442 -255 c 4,2,3
 -367 -181 -367 -181 -287 -170 c 4,4,5
 -277 -168 -277 -168 -267 -168 c 4,6,7
 -183 -168 -183 -168 -134 -232 c 4,8,9
 -101 -275 -101 -275 -101 -331 c 4,10,11
 -101 -426 -101 -426 -189 -510 c 4,12,13
 -264 -583 -264 -583 -345 -594 c 4,14,15
 -355 -595 -355 -595 -365 -595 c 4,16,17
 -415 -595 -415 -595 -462 -564 c 4,18,19
 -528 -519 -528 -519 -528 -432 c 4,0,1
-233 -434 m 4,20,21
 -233 -363 -233 -363 -288 -324 c 4,22,23
 -322 -300 -322 -300 -369 -300 c 4,24,25
 -392 -300 -392 -300 -395 -309 c 4,26,27
 -397 -314 -397 -314 -397 -329 c 4,28,29
 -397 -402 -397 -402 -341 -440 c 4,30,31
 -308 -463 -308 -463 -266 -463 c 4,32,33
 -250 -463 -250 -463 -236 -461 c 5,34,35
 -233 -449 -233 -449 -233 -434 c 4,20,21
EndSplineSet
EndChar

StartChar: uniED83
Encoding: 60803 60803 130
Width: 0
Flags: W
LayerCount: 2
Fore
SplineSet
-1106 1415 m 256,0,1
 -1122 1415 -1122 1415 -1207 1505 c 0,2,3
 -1260 1560 -1260 1560 -1260 1568 c 128,-1,4
 -1260 1576 -1260 1576 -1240 1597 c 2,5,-1
 -1118 1718 l 2,6,7
 -1111 1722 -1111 1722 -1106 1722 c 0,8,9
 -1089 1722 -1089 1722 -1004 1632 c 0,10,11
 -951 1577 -951 1577 -951 1568 c 0,12,13
 -951 1556 -951 1556 -1023 1483 c 0,14,15
 -1090 1415 -1090 1415 -1106 1415 c 256,0,1
-753 1718 m 1,16,-1
 -740 1722 l 2,17,18
 -728 1722 -728 1722 -698 1690 c 2,19,-1
 -659 1650 l 2,20,21
 -589 1581 -589 1581 -587 1574 c 0,22,23
 -586 1572 -586 1572 -586 1568 c 0,24,25
 -586 1557 -586 1557 -658 1484 c 0,26,27
 -725 1415 -725 1415 -741 1415 c 128,-1,28
 -757 1415 -757 1415 -841 1503 c 0,29,30
 -894 1559 -894 1559 -894 1568 c 128,-1,31
 -894 1577 -894 1577 -874 1597 c 2,32,-1
 -753 1718 l 1,16,-1
-1076 1307 m 0,33,34
 -1076 1319 -1076 1319 -999 1397 c 0,35,36
 -935 1460 -935 1460 -923 1460 c 0,37,38
 -906 1460 -906 1460 -824 1373 c 0,39,40
 -769 1316 -769 1316 -769 1307 c 0,41,42
 -769 1292 -769 1292 -851 1212 c 0,43,44
 -912 1153 -912 1153 -923 1153 c 0,45,46
 -937 1153 -937 1153 -1016 1235 c 0,47,48
 -1076 1296 -1076 1296 -1076 1307 c 0,33,34
EndSplineSet
EndChar

StartChar: uniE06A
Encoding: 57450 57450 131
Width: 854
Flags: W
LayerCount: 2
Fore
SplineSet
169 1486 m 1,0,1
 209 1577 209 1577 296 1641 c 0,2,3
 344 1677 344 1677 369 1677 c 2,4,-1
 370 1677 l 2,5,6
 382 1677 382 1677 385 1662 c 128,-1,7
 388 1647 388 1647 388 1533 c 0,8,9
 388 1420 388 1420 372 1353 c 0,10,11
 330 1187 330 1187 184 1068 c 0,12,13
 130 1024 130 1024 99 1024 c 0,14,15
 82 1024 82 1024 82 1041 c 0,16,17
 82 1071 82 1071 107 1099 c 0,18,19
 140 1137 140 1137 152 1175 c 0,20,21
 162 1206 162 1206 166 1250 c 0,22,23
 170 1295 170 1295 170 1400 c 2,24,-1
 169 1486 l 1,0,1
683 1677 m 0,25,26
 695 1677 695 1677 698 1662 c 128,-1,27
 701 1647 701 1647 701 1533 c 0,28,29
 701 1429 701 1429 692 1380 c 0,30,31
 668 1254 668 1254 574 1144 c 0,32,33
 502 1060 502 1060 442 1032 c 0,34,35
 425 1024 425 1024 413 1024 c 0,36,37
 395 1024 395 1024 395 1042 c 0,38,39
 395 1062 395 1062 422 1099 c 0,40,41
 466 1159 466 1159 477 1224 c 0,42,43
 479 1237 479 1237 480 1250 c 0,44,45
 483 1284 483 1284 483 1400 c 2,46,-1
 483 1486 l 1,47,48
 506 1556 506 1556 591 1626 c 0,49,50
 642 1673 642 1673 683 1677 c 0,25,26
EndSplineSet
EndChar

StartChar: uniE069
Encoding: 57449 57449 132
Width: 1044
Flags: W
LayerCount: 2
Fore
SplineSet
404 738 m 0,0,1
 466 738 466 738 592 711 c 0,2,3
 690 689 690 689 751 689 c 0,4,5
 816 689 816 689 856 723 c 0,6,7
 883 746 883 746 897 750 c 0,8,9
 905 752 905 752 915 752 c 0,10,11
 935 752 935 752 935 734 c 0,12,13
 935 701 935 701 884 645 c 0,14,15
 796 550 796 550 676 530 c 0,16,17
 650 525 650 525 623 525 c 0,18,19
 568 525 568 525 470 545 c 2,20,-1
 368 566 l 2,21,22
 316 574 316 574 280 574 c 0,23,24
 209 574 209 574 171 541 c 0,25,26
 147 519 147 519 135 515 c 0,27,28
 125 512 125 512 112 512 c 1,29,30
 95 520 95 520 93 531 c 0,31,32
 93 563 93 563 144 619 c 0,33,34
 232 715 232 715 352 734 c 0,35,36
 378 738 378 738 404 738 c 0,0,1
749 376 m 0,37,38
 817 376 817 376 858 410 c 0,39,40
 884 433 884 433 898 436 c 0,41,42
 907 439 907 439 917 439 c 0,43,44
 935 439 935 439 935 421 c 0,45,46
 935 390 935 390 885 335 c 0,47,48
 798 238 798 238 679 217 c 0,49,50
 652 212 652 212 625 212 c 0,51,52
 564 212 564 212 443 239 c 0,53,54
 345 260 345 260 280 261 c 0,55,56
 210 262 210 262 169 227 c 0,57,58
 143 204 143 204 130 200 c 0,59,60
 122 198 122 198 112 198 c 0,61,62
 94 204 94 204 93 218 c 0,63,64
 93 248 93 248 142 303 c 0,65,66
 229 399 229 399 348 420 c 0,67,68
 376 425 376 425 404 425 c 0,69,70
 445 425 445 425 611 394 c 0,71,72
 710 376 710 376 749 376 c 0,37,38
EndSplineSet
EndChar

StartChar: uni60AD
Encoding: 24749 24749 133
Width: 0
Flags: W
LayerCount: 2
Fore
SplineSet
-840 1718 m 1,0,-1
 -827 1722 l 2,1,2
 -815 1722 -815 1722 -785 1690 c 2,3,-1
 -746 1650 l 2,4,5
 -676 1581 -676 1581 -674 1574 c 0,6,7
 -673 1572 -673 1572 -673 1568 c 0,8,9
 -673 1557 -673 1557 -745 1484 c 0,10,11
 -812 1415 -812 1415 -828 1415 c 128,-1,12
 -844 1415 -844 1415 -928 1503 c 0,13,14
 -981 1559 -981 1559 -981 1568 c 128,-1,15
 -981 1577 -981 1577 -961 1597 c 2,16,-1
 -840 1718 l 1,0,-1
-462 1415 m 256,17,18
 -478 1415 -478 1415 -563 1504 c 0,19,20
 -615 1560 -615 1560 -615 1568 c 0,21,22
 -615 1577 -615 1577 -596 1597 c 2,23,-1
 -474 1718 l 2,24,25
 -467 1722 -467 1722 -462 1722 c 0,26,27
 -446 1722 -446 1722 -363 1636 c 0,28,29
 -307 1578 -307 1578 -307 1568 c 0,30,31
 -307 1556 -307 1556 -379 1483 c 0,32,33
 -446 1415 -446 1415 -462 1415 c 256,17,18
-798 1307 m 0,34,35
 -798 1318 -798 1318 -721 1396 c 0,36,37
 -657 1460 -657 1460 -644 1460 c 0,38,39
 -628 1460 -628 1460 -544 1372 c 0,40,41
 -491 1316 -491 1316 -491 1307 c 0,42,43
 -491 1292 -491 1292 -574 1211 c 0,44,45
 -633 1153 -633 1153 -644 1153 c 0,46,47
 -659 1153 -659 1153 -741 1238 c 0,48,49
 -798 1297 -798 1297 -798 1307 c 0,34,35
EndSplineSet
EndChar

StartChar: uniE07C
Encoding: 57468 57468 134
Width: 1167
Flags: W
LayerCount: 2
Fore
SplineSet
437 2 m 0,0,1
 276 2 276 2 169 104 c 0,2,3
 60 208 60 208 60 371 c 0,4,5
 60 494 60 494 157 628 c 0,6,7
 192 676 192 676 238 721 c 0,8,9
 425 906 425 906 620 906 c 2,10,-1
 623 906 l 2,11,12
 793 906 793 906 908 792 c 0,13,14
 1035 666 1035 666 1035 454 c 0,15,16
 1035 265 1035 265 974 75 c 0,17,18
 840 -349 840 -349 410 -784 c 0,19,20
 322 -874 322 -874 277 -874 c 0,21,22
 260 -874 260 -874 260 -857 c 0,23,24
 260 -821 260 -821 325 -749 c 2,25,-1
 450 -614 l 1,26,27
 613 -429 613 -429 708 -217 c 0,28,29
 801 -8 801 -8 815 201 c 1,30,-1
 815 210 l 1,31,32
 671 2 671 2 437 2 c 0,0,1
817 281 m 2,33,34
 817 448 817 448 714 565 c 0,35,36
 612 680 612 680 460 687 c 0,37,38
 450 688 450 688 441 688 c 0,39,40
 368 688 368 688 318 666 c 0,41,42
 302 659 302 659 299 652 c 0,43,44
 278 615 278 615 278 546 c 0,45,46
 278 428 278 428 359 335 c 0,47,48
 434 250 434 250 551 226 c 0,49,50
 582 220 582 220 621 220 c 0,51,52
 691 220 691 220 742 243 c 0,53,54
 788 264 788 264 817 272 c 1,55,-1
 817 281 l 2,33,34
EndSplineSet
EndChar

StartChar: uniED81
Encoding: 60801 60801 135
Width: 0
Flags: W
LayerCount: 2
Fore
SplineSet
-752 1718 m 1,0,-1
 -739 1722 l 2,1,2
 -727 1722 -727 1722 -697 1690 c 2,3,-1
 -658 1650 l 2,4,5
 -588 1581 -588 1581 -586 1574 c 0,6,7
 -585 1572 -585 1572 -585 1568 c 0,8,9
 -585 1557 -585 1557 -657 1484 c 0,10,11
 -724 1415 -724 1415 -740 1415 c 128,-1,12
 -756 1415 -756 1415 -840 1503 c 0,13,14
 -893 1559 -893 1559 -893 1568 c 128,-1,15
 -893 1577 -893 1577 -873 1597 c 2,16,-1
 -752 1718 l 1,0,-1
-374 1415 m 0,17,18
 -389 1415 -389 1415 -472 1501 c 0,19,20
 -527 1559 -527 1559 -527 1568 c 128,-1,21
 -527 1577 -527 1577 -507 1597 c 2,22,-1
 -386 1718 l 2,23,24
 -379 1722 -379 1722 -373 1722 c 0,25,26
 -358 1722 -358 1722 -275 1636 c 0,27,28
 -219 1578 -219 1578 -219 1568 c 128,-1,29
 -219 1558 -219 1558 -288 1486 c 0,30,31
 -357 1415 -357 1415 -374 1415 c 0,17,18
-710 1307 m 0,32,33
 -710 1318 -710 1318 -634 1395 c 0,34,35
 -569 1460 -569 1460 -556 1460 c 0,36,37
 -540 1460 -540 1460 -454 1370 c 0,38,39
 -402 1315 -402 1315 -402 1307 c 0,40,41
 -402 1293 -402 1293 -484 1213 c 0,42,43
 -545 1153 -545 1153 -556 1153 c 0,44,45
 -571 1153 -571 1153 -655 1240 c 0,46,47
 -710 1298 -710 1298 -710 1307 c 0,32,33
EndSplineSet
EndChar

StartChar: uniEC1F
Encoding: 60447 60447 136
Width: 0
Flags: W
LayerCount: 2
Fore
SplineSet
-552 448 m 0,0,1
 -464 448 -464 448 -417 488 c 0,2,3
 -388 512 -388 512 -378 516 c 0,4,5
 -367 520 -367 520 -354 520 c 0,6,7
 -335 520 -335 520 -335 501 c 0,8,9
 -335 473 -335 473 -381 419 c 0,10,11
 -469 317 -469 317 -599 291 c 0,12,13
 -634 284 -634 284 -671 284 c 0,14,15
 -744 284 -744 284 -890 315 c 0,16,17
 -1008 340 -1008 340 -1072 340 c 0,18,19
 -1153 340 -1153 340 -1198 301 c 0,20,21
 -1227 277 -1227 277 -1237 273 c 0,22,23
 -1249 268 -1249 268 -1264 268 c 0,24,25
 -1281 268 -1281 268 -1281 286 c 0,26,27
 -1281 318 -1281 318 -1232 373 c 0,28,29
 -1143 474 -1143 474 -1009 498 c 0,30,31
 -975 503 -975 503 -941 503 c 0,32,33
 -874 503 -874 503 -728 472 c 0,34,35
 -612 448 -612 448 -552 448 c 0,0,1
EndSplineSet
EndChar

StartChar: quoteleft
Encoding: 8216 8216 137
Width: 436
Flags: W
LayerCount: 2
Fore
SplineSet
61 1261 m 0,0,1
 61 1386 61 1386 167 1528 c 0,2,3
 241 1627 241 1627 312 1664 c 0,4,5
 336 1677 336 1677 353 1677 c 128,-1,6
 370 1677 370 1677 370 1659 c 0,7,8
 370 1635 370 1635 339 1595 c 0,9,10
 297 1542 297 1542 286 1499 c 0,11,12
 280 1473 280 1473 280 1443 c 0,13,14
 280 1328 280 1328 361 1241 c 1,15,-1
 369 1233 l 2,16,17
 370 1231 370 1231 370 1226 c 0,18,19
 370 1173 370 1173 282 1094 c 0,20,21
 208 1032 208 1032 168 1024 c 0,22,23
 152 1024 152 1024 121 1069 c 0,24,25
 61 1156 61 1156 61 1261 c 0,0,1
EndSplineSet
EndChar

StartChar: quoteright
Encoding: 8217 8217 138
Width: 436
Flags: W
LayerCount: 2
Fore
SplineSet
66 1481 m 0,0,1
 66 1513 66 1513 130 1584 c 0,2,3
 203 1665 203 1665 255 1675 c 0,4,5
 260 1677 260 1677 265 1677 c 0,6,7
 283 1677 283 1677 315 1630 c 0,8,9
 374 1545 374 1545 374 1442 c 0,10,11
 374 1295 374 1295 250 1150 c 0,12,13
 176 1063 176 1063 111 1032 c 0,14,15
 94 1024 94 1024 83 1024 c 0,16,17
 67 1024 67 1024 66 1041 c 0,18,19
 66 1068 66 1068 97 1106 c 0,20,21
 137 1157 137 1157 148 1196 c 0,22,23
 156 1224 156 1224 156 1258 c 0,24,25
 156 1373 156 1373 73 1459 c 0,26,27
 66 1467 66 1467 66 1475 c 0,28,29
 66 1477 66 1477 66 1481 c 0,0,1
EndSplineSet
EndChar

StartChar: uni60B3
Encoding: 24755 24755 139
Width: 1202
Flags: W
LayerCount: 2
Fore
SplineSet
261 210 m 0,0,1
 171 210 171 210 147 301 c 0,2,3
 139 330 139 330 139 369 c 0,4,5
 139 558 139 558 322 741 c 0,6,7
 493 912 493 912 668 927 c 0,8,9
 682 928 682 928 695 928 c 0,10,11
 883 928 883 928 991 820 c 0,12,13
 1083 728 1083 728 1083 588 c 0,14,15
 1083 266 1083 266 805 -75 c 0,16,17
 674 -236 674 -236 414 -475 c 2,18,-1
 337 -545 l 1,19,-1
 415 -540 l 2,20,21
 428 -540 428 -540 443 -540 c 0,22,23
 526 -540 526 -540 633 -558 c 2,24,-1
 735 -575 l 2,25,26
 779 -581 779 -581 819 -581 c 0,27,28
 930 -581 930 -581 1034 -500 c 2,29,-1
 1105 -444 l 2,30,31
 1133 -425 1133 -425 1153 -425 c 0,32,33
 1170 -425 1170 -425 1170 -443 c 0,34,35
 1170 -486 1170 -486 1085 -573 c 0,36,37
 969 -693 969 -693 824 -756 c 0,38,39
 724 -800 724 -800 637 -800 c 0,40,41
 585 -800 585 -800 447 -776 c 0,42,43
 337 -758 337 -758 262 -758 c 0,44,45
 156 -758 156 -758 79 -777 c 0,46,47
 60 -782 60 -782 46 -782 c 0,48,49
 30 -782 30 -782 30 -765 c 0,50,51
 30 -711 30 -711 185 -564 c 2,52,-1
 487 -287 l 2,53,54
 591 -189 591 -189 653 -116 c 0,55,56
 856 123 856 123 864 382 c 1,57,-1
 864 406 l 2,58,59
 864 538 864 538 764 625 c 0,60,61
 666 710 666 710 524 710 c 0,62,63
 450 710 450 710 385 677 c 1,64,65
 357 620 357 620 357 553 c 0,66,67
 357 494 357 494 387 453 c 0,68,69
 412 419 412 419 416 397 c 0,70,71
 419 385 419 385 419 370 c 0,72,73
 419 270 419 270 325 227 c 0,74,75
 289 210 289 210 261 210 c 0,0,1
EndSplineSet
EndChar

StartChar: uniED4F
Encoding: 60751 60751 140
Width: 0
Flags: W
LayerCount: 2
Fore
SplineSet
-1114 -153 m 0,0,1
 -1128 -153 -1128 -153 -1209 -69 c 0,2,3
 -1268 -9 -1268 -9 -1268 1 c 0,4,5
 -1268 10 -1268 10 -1196 85 c 0,6,7
 -1129 154 -1129 154 -1114 154 c 0,8,9
 -1098 154 -1098 154 -1014 66 c 0,10,11
 -961 10 -961 10 -961 1 c 0,12,13
 -961 -13 -961 -13 -1046 -96 c 0,14,15
 -1104 -153 -1104 -153 -1114 -153 c 0,0,1
-766 -153 m 0,16,17
 -780 -153 -780 -153 -864 -66 c 0,18,19
 -920 -8 -920 -8 -920 1 c 0,20,21
 -919 10 -919 10 -850 83 c 0,22,23
 -782 154 -782 154 -765 154 c 0,24,25
 -749 154 -749 154 -663 62 c 0,26,27
 -612 9 -612 9 -612 1 c 0,28,29
 -612 -13 -612 -13 -697 -96 c 0,30,31
 -756 -153 -756 -153 -766 -153 c 0,16,17
EndSplineSet
EndChar

StartChar: uniED80
Encoding: 60800 60800 141
Width: 0
Flags: W
LayerCount: 2
Fore
SplineSet
-606 1560 m 256,0,1
 -606 1572 -606 1572 -527 1651 c 0,2,3
 -465 1713 -465 1713 -453 1713 c 0,4,5
 -436 1713 -436 1713 -352 1625 c 0,6,7
 -299 1569 -299 1569 -299 1560 c 0,8,9
 -299 1545 -299 1545 -381 1465 c 0,10,11
 -442 1406 -442 1406 -453 1406 c 0,12,13
 -466 1406 -466 1406 -545 1486 c 0,14,15
 -606 1548 -606 1548 -606 1560 c 256,0,1
-258 1560 m 256,16,17
 -258 1572 -258 1572 -180 1650 c 0,18,19
 -117 1713 -117 1713 -104 1713 c 0,20,21
 -88 1713 -88 1713 -4 1625 c 0,22,23
 49 1569 49 1569 49 1560 c 0,24,25
 49 1544 49 1544 -38 1461 c 0,26,27
 -95 1406 -95 1406 -104 1406 c 0,28,29
 -119 1406 -119 1406 -199 1488 c 0,30,31
 -258 1548 -258 1548 -258 1560 c 256,16,17
-432 1307 m 0,32,33
 -432 1319 -432 1319 -355 1397 c 0,34,35
 -291 1460 -291 1460 -279 1460 c 0,36,37
 -262 1460 -262 1460 -180 1373 c 0,38,39
 -125 1316 -125 1316 -125 1307 c 0,40,41
 -125 1292 -125 1292 -207 1212 c 0,42,43
 -268 1153 -268 1153 -279 1153 c 0,44,45
 -293 1153 -293 1153 -372 1235 c 0,46,47
 -432 1296 -432 1296 -432 1307 c 0,32,33
EndSplineSet
EndChar

StartChar: uni60B7
Encoding: 24759 24759 142
Width: 487
Flags: W
LayerCount: 2
Fore
SplineSet
260 283 m 0,0,1
 245 283 245 283 164 367 c 0,2,3
 107 426 107 426 107 436 c 2,4,-1
 107 437 l 2,5,6
 107 446 107 446 178 519 c 0,7,8
 245 589 245 589 261 589 c 0,9,10
 276 589 276 589 360 501 c 0,11,12
 414 445 414 445 414 436 c 0,13,14
 414 422 414 422 330 341 c 0,15,16
 270 283 270 283 260 283 c 0,0,1
EndSplineSet
EndChar

StartChar: uniEC0F
Encoding: 60431 60431 143
Width: 0
Flags: W
LayerCount: 2
Fore
SplineSet
-1282 365 m 0,0,1
 -1282 411 -1282 411 -1213 468 c 0,2,3
 -1163 509 -1163 509 -1138 509 c 0,4,5
 -1134 509 -1134 509 -1105 498 c 0,6,7
 -1073 486 -1073 486 -1020 479 c 0,8,9
 -992 475 -992 475 -734 475 c 2,10,-1
 -532 474 l 1,11,12
 -448 478 -448 478 -372 505 c 0,13,14
 -360 509 -360 509 -353 509 c 0,15,16
 -336 509 -336 509 -335 492 c 0,17,18
 -335 459 -335 459 -372 416 c 0,19,20
 -449 328 -449 328 -623 312 c 0,21,22
 -638 311 -638 311 -872 311 c 0,23,24
 -1126 311 -1126 311 -1175 319 c 0,25,26
 -1207 324 -1207 324 -1255 341 c 0,27,28
 -1277 349 -1277 349 -1280 355 c 0,29,30
 -1282 359 -1282 359 -1282 365 c 0,0,1
EndSplineSet
EndChar

StartChar: uni60B9
Encoding: 24761 24761 144
Width: 522
Flags: W
LayerCount: 2
Fore
SplineSet
101 175 m 0,0,1
 101 207 101 207 164 277 c 0,2,3
 237 359 237 359 289 370 c 0,4,5
 295 371 295 371 300 371 c 0,6,7
 328 371 328 371 363 304 c 0,8,9
 409 217 409 217 409 136 c 0,10,11
 409 6 409 6 299 -138 c 0,12,13
 226 -234 226 -234 156 -270 c 0,14,15
 134 -282 134 -282 118 -282 c 0,16,17
 100 -282 100 -282 100 -264 c 0,18,19
 100 -240 100 -240 131 -201 c 0,20,21
 172 -149 172 -149 183 -108 c 0,22,23
 190 -80 190 -80 190 -49 c 0,24,25
 190 69 190 69 108 154 c 0,26,27
 101 161 101 161 101 169 c 0,28,29
 101 171 101 171 101 175 c 0,0,1
EndSplineSet
EndChar

StartChar: uni60BA
Encoding: 24762 24762 145
Width: 487
Flags: W
LayerCount: 2
Fore
SplineSet
259 22 m 2,0,1
 246 22 246 22 165 105 c 0,2,3
 107 164 107 164 107 175 c 2,4,-1
 107 176 l 2,5,6
 107 185 107 185 178 258 c 0,7,8
 245 328 245 328 261 328 c 0,9,10
 276 328 276 328 360 240 c 0,11,12
 414 184 414 184 414 175 c 0,13,14
 414 161 414 161 330 79 c 0,15,16
 271 22 271 22 261 22 c 2,17,-1
 260 22 l 1,18,-1
 259 22 l 2,0,1
EndSplineSet
EndChar

StartChar: uniE06B
Encoding: 57451 57451 146
Width: 854
Flags: W
LayerCount: 2
Fore
SplineSet
169 -370 m 0,0,1
 169 -293 169 -293 264 -212 c 0,2,3
 325 -159 325 -159 364 -153 c 0,4,5
 367 -152 367 -152 369 -152 c 0,6,7
 383 -152 383 -152 386 -164 c 0,8,9
 388 -174 388 -174 388 -295 c 0,10,11
 388 -397 388 -397 379 -446 c 0,12,13
 352 -583 352 -583 245 -701 c 0,14,15
 167 -786 167 -786 113 -802 c 0,16,17
 105 -804 105 -804 99 -804 c 0,18,19
 82 -804 82 -804 82 -787 c 0,20,21
 82 -762 82 -762 120 -711 c 0,22,23
 143 -681 143 -681 148 -668 c 0,24,25
 168 -610 168 -610 170 -478 c 0,26,27
 170 -457 170 -457 170 -430 c 0,28,29
 169 -375 169 -375 169 -370 c 0,0,1
483 -484 m 2,30,-1
 483 -377 l 2,31,32
 483 -339 483 -339 490 -323 c 0,33,34
 525 -249 525 -249 604 -190 c 0,35,36
 655 -152 655 -152 683 -152 c 0,37,38
 696 -152 696 -152 699 -165 c 0,39,40
 701 -176 701 -176 701 -303 c 0,41,42
 701 -481 701 -481 644 -584 c 0,43,44
 584 -690 584 -690 493 -763 c 0,45,46
 442 -804 442 -804 412 -804 c 0,47,48
 395 -804 395 -804 395 -787 c 0,49,50
 395 -765 395 -765 418 -736 c 0,51,52
 457 -686 457 -686 471 -623 c 0,53,54
 483 -566 483 -566 483 -484 c 2,30,-1
EndSplineSet
EndChar

StartChar: uniE034
Encoding: 57396 57396 147
Width: 1009
Flags: W
LayerCount: 2
Fore
SplineSet
540 636 m 1,0,1
 537 573 537 573 538 507 c 2,2,-1
 538 505 l 2,3,4
 537 352 537 352 526 297 c 0,5,6
 513 231 513 231 478 173 c 0,7,8
 420 79 420 79 338 18 c 0,9,10
 293 -16 293 -16 267 -16 c 0,11,12
 249 -16 249 -16 249 1 c 0,13,14
 249 27 249 27 270 52 c 0,15,16
 301 90 301 90 311 141 c 0,17,18
 315 165 315 165 317 196 c 0,19,20
 322 268 322 268 322 527 c 0,21,22
 322 629 322 629 272 646 c 0,23,24
 257 652 257 652 233 652 c 0,25,26
 196 652 196 652 149 615 c 0,27,28
 108 583 108 583 87 580 c 0,29,30
 82 579 82 579 78 579 c 0,31,32
 60 579 60 579 60 597 c 0,33,34
 60 636 60 636 133 712 c 0,35,36
 230 815 230 815 336 854 c 1,37,-1
 391 870 l 2,38,39
 393 871 393 871 423 871 c 0,40,41
 597 853 597 853 820 854 c 0,42,43
 1021 854 1021 854 1214 870 c 2,44,-1
 1244 872 l 1,45,46
 1256 861 1256 861 1257 853 c 0,47,48
 1257 820 1257 820 1197 752 c 0,49,50
 1142 689 1142 689 1089 663 c 0,51,52
 1037 639 1037 639 640 636 c 2,53,-1
 540 636 l 1,0,1
EndSplineSet
EndChar

StartChar: uniE02D
Encoding: 57389 57389 148
Width: 600
Flags: W
LayerCount: 2
Fore
SplineSet
596 1808 m 0,0,1
 614 1808 614 1808 614 1790 c 0,2,3
 614 1762 614 1762 588 1732 c 0,4,5
 544 1680 544 1680 522 1634 c 0,6,7
 453 1483 453 1483 435 1140 c 0,8,9
 423 923 423 923 429 583 c 0,10,11
 433 382 433 382 415 300 c 0,12,13
 391 183 391 183 297 82 c 1,14,-1
 278 63 l 2,15,16
 209 -6 209 -6 164 -15 c 0,17,18
 159 -16 159 -16 155 -16 c 0,19,20
 138 -16 138 -16 138 1 c 0,21,22
 138 28 138 28 158 51 c 0,23,24
 187 83 187 83 197 124 c 0,25,26
 204 154 204 154 206 196 c 0,27,28
 207 218 207 218 211 678 c 0,29,30
 212 878 212 878 217 961 c 0,31,32
 232 1252 232 1252 278 1403 c 0,33,34
 335 1591 335 1591 476 1731 c 0,35,36
 553 1808 553 1808 596 1808 c 0,0,1
EndSplineSet
EndChar

StartChar: uniE031
Encoding: 57393 57393 149
Width: 1202
Flags: W
LayerCount: 2
Fore
SplineSet
191 535 m 0,0,1
 191 576 191 576 273 666 c 0,2,3
 387 791 387 791 525 858 c 0,4,5
 616 902 616 902 694 906 c 0,6,7
 947 917 947 917 1013 783 c 0,8,9
 1031 745 1031 745 1031 700 c 0,10,11
 1031 461 1031 461 763 235 c 2,12,-1
 736 212 l 1,13,-1
 742 212 l 1,14,15
 833 202 833 202 906 202 c 0,16,17
 1004 202 1004 202 1102 281 c 2,18,-1
 1172 338 l 2,19,20
 1201 358 1201 358 1222 358 c 0,21,22
 1239 358 1239 358 1239 341 c 0,23,24
 1239 301 1239 301 1160 216 c 0,25,26
 1046 93 1046 93 907 29 c 0,27,28
 814 -14 814 -14 732 -16 c 2,29,-1
 714 -16 l 2,30,31
 685 -16 685 -16 517 -3 c 0,32,33
 445 2 445 2 393 2 c 0,34,35
 314 2 314 2 204 -13 c 0,36,37
 184 -16 184 -16 172 -16 c 0,38,39
 157 -16 157 -16 156 2 c 0,40,41
 156 33 156 33 208 95 c 0,42,43
 284 188 284 188 368 204 c 0,44,45
 550 235 550 235 683 302 c 0,46,47
 763 342 763 342 783 380 c 0,48,49
 812 437 812 437 812 514 c 0,50,51
 812 521 812 521 812 526 c 0,52,53
 812 598 812 598 726 645 c 0,54,55
 647 688 647 688 536 688 c 0,56,57
 432 688 432 688 347 614 c 2,58,-1
 276 549 l 2,59,60
 241 521 241 521 210 519 c 0,61,62
 192 519 192 519 191 535 c 0,0,1
EndSplineSet
EndChar

StartChar: uni60BF
Encoding: 24767 24767 150
Width: 1357
Flags: W
LayerCount: 2
Fore
SplineSet
278 976 m 0,0,1
 200 976 200 976 170 1047 c 0,2,3
 156 1082 156 1082 156 1132 c 0,4,5
 156 1297 156 1297 292 1460 c 0,6,7
 398 1587 398 1587 532 1651 c 0,8,9
 625 1695 625 1695 719 1695 c 0,10,11
 868 1695 868 1695 972 1604 c 0,12,13
 1083 1506 1083 1506 1083 1351 c 0,14,15
 1083 993 1083 993 737 582 c 2,16,-1
 712 552 l 1,17,18
 793 536 793 536 877 426 c 2,19,-1
 978 287 l 1,20,21
 1045 202 1045 202 1105 202 c 0,22,23
 1180 202 1180 202 1252 264 c 2,24,-1
 1306 311 l 2,25,26
 1335 332 1335 332 1360 332 c 0,27,28
 1379 332 1379 332 1379 315 c 0,29,30
 1379 277 1379 277 1300 193 c 0,31,32
 1190 76 1190 76 1063 19 c 0,33,34
 986 -16 986 -16 921 -16 c 0,35,36
 841 -16 841 -16 758 89 c 0,37,38
 751 98 751 98 675 204 c 0,39,40
 607 300 607 300 558 323 c 0,41,42
 535 334 535 334 513 334 c 0,43,44
 508 334 508 334 506 333 c 0,45,46
 504 333 504 333 455 284 c 2,47,-1
 253 89 l 2,48,49
 147 -17 147 -17 103 -17 c 0,50,51
 86 -17 86 -17 86 0 c 0,52,53
 86 37 86 37 145 104 c 1,54,-1
 315 271 l 2,55,56
 513 461 513 461 592 550 c 0,57,58
 789 774 789 774 842 986 c 0,59,60
 865 1078 865 1078 865 1176 c 0,61,62
 865 1316 865 1316 743 1408 c 0,63,64
 720 1425 720 1425 698 1436 c 0,65,66
 621 1476 621 1476 533 1476 c 0,67,68
 467 1476 467 1476 403 1447 c 1,69,70
 374 1389 374 1389 374 1320 c 0,71,72
 374 1261 374 1261 405 1218 c 0,73,74
 430 1184 430 1184 434 1163 c 0,75,76
 437 1151 437 1151 437 1136 c 0,77,78
 437 1035 437 1035 342 992 c 0,79,80
 306 976 306 976 278 976 c 0,0,1
EndSplineSet
EndChar

StartChar: uniE066
Encoding: 57446 57446 151
Width: 1132
Flags: W
LayerCount: 2
Fore
SplineSet
13 1135 m 0,0,1
 13 1187 13 1187 96 1268 c 0,2,3
 195 1363 195 1363 304 1397 c 0,4,5
 349 1412 349 1412 388 1411 c 0,6,7
 483 1409 483 1409 492 1251 c 1,8,9
 635 1365 635 1365 775 1365 c 0,10,11
 873 1365 873 1365 934 1289 c 0,12,13
 983 1228 983 1228 983 1146 c 0,14,15
 983 1000 983 1000 849 842 c 0,16,17
 807 793 807 793 806 792 c 1,18,19
 916 758 916 758 946 653 c 0,20,21
 956 618 956 618 956 576 c 0,22,23
 956 413 956 413 814 244 c 0,24,25
 671 72 671 72 449 -24 c 0,26,27
 424 -35 424 -35 399 -44 c 1,28,-1
 360 -145 l 1,29,30
 307 -268 307 -268 212 -376 c 0,31,32
 126 -474 126 -474 68 -496 c 0,33,34
 57 -500 57 -500 48 -500 c 0,35,36
 31 -500 31 -500 31 -484 c 0,37,38
 31 -450 31 -450 62 -414 c 0,39,40
 110 -358 110 -358 127 -330 c 0,41,42
 240 -148 240 -148 260 314 c 1,43,-1
 261 353 l 1,44,-1
 261 354 l 1,45,46
 274 809 274 809 274 1007 c 0,47,48
 274 1137 274 1137 246 1172 c 0,49,50
 236 1184 236 1184 221 1190 c 0,51,52
 216 1192 216 1192 200 1192 c 0,53,54
 148 1192 148 1192 104 1157 c 0,55,56
 68 1128 68 1128 50 1123 c 0,57,58
 38 1119 38 1119 25 1119 c 0,59,60
 13 1119 13 1119 13 1135 c 0,0,1
765 961 m 0,61,62
 765 1052 765 1052 700 1106 c 0,63,64
 652 1146 652 1146 584 1146 c 0,65,66
 539 1146 539 1146 501 1131 c 1,67,68
 492 1096 492 1096 491 1070 c 2,69,-1
 484 692 l 1,70,-1
 484 682 l 2,71,72
 485 681 485 681 503 696 c 0,73,74
 541 728 541 728 607 762 c 0,75,76
 683 801 683 801 704 818 c 0,77,78
 765 868 765 868 765 961 c 0,61,62
738 395 m 0,79,80
 738 490 738 490 674 543 c 0,81,82
 631 578 631 578 570 578 c 0,83,84
 563 578 563 578 559 578 c 0,85,86
 538 578 538 578 499 566 c 0,87,88
 493 564 493 564 492 563 c 0,89,90
 478 521 478 521 473 421 c 0,91,92
 467 287 467 287 447 166 c 0,93,94
 443 146 443 146 443 137 c 1,95,96
 480 137 480 137 593 187 c 0,97,98
 690 231 690 231 704 255 c 0,99,100
 738 313 738 313 738 395 c 0,79,80
EndSplineSet
EndChar

StartChar: uniE065
Encoding: 57445 57445 152
Width: 696
Flags: W
LayerCount: 2
Fore
SplineSet
291 449 m 256,0,1
 291 549 291 549 249 732 c 0,2,3
 207 916 207 916 203 1006 c 0,4,5
 202 1026 202 1026 202 1044 c 0,6,7
 202 1179 202 1179 265 1291 c 0,8,9
 309 1368 309 1368 383 1443 c 0,10,11
 464 1524 464 1524 509 1524 c 0,12,13
 526 1524 526 1524 526 1507 c 0,14,15
 526 1482 526 1482 495 1443 c 0,16,17
 450 1388 450 1388 435 1341 c 0,18,19
 420 1293 420 1293 420 1231 c 0,20,21
 420 1120 420 1120 461 951 c 0,22,23
 501 785 501 785 507 699 c 0,24,25
 510 664 510 664 510 630 c 0,26,27
 510 438 510 438 374 279 c 0,28,29
 301 193 301 193 233 162 c 0,30,31
 215 154 215 154 204 154 c 0,32,33
 187 154 187 154 186 171 c 0,34,35
 186 201 186 201 238 263 c 0,36,37
 258 286 258 286 262 294 c 0,38,39
 291 349 291 349 291 449 c 256,0,1
EndSplineSet
EndChar

StartChar: uniE068
Encoding: 57448 57448 153
Width: 1323
Flags: W
LayerCount: 2
Fore
SplineSet
476 605 m 0,0,1
 559 605 559 605 716 572 c 0,2,3
 836 546 836 546 906 539 c 1,4,-1
 953 538 l 1,5,-1
 954 538 l 2,6,7
 1057 538 1057 538 1108 583 c 2,8,-1
 1140 612 l 2,9,10
 1159 625 1159 625 1186 625 c 0,11,12
 1204 625 1204 625 1204 609 c 0,13,14
 1204 575 1204 575 1153 518 c 0,15,16
 1060 414 1060 414 921 384 c 0,17,18
 876 374 876 374 828 374 c 0,19,20
 745 374 745 374 579 409 c 0,21,22
 429 441 429 441 352 441 c 0,23,24
 249 441 249 441 203 403 c 2,25,-1
 168 372 l 2,26,27
 151 361 151 361 130 356 c 0,28,29
 124 355 124 355 119 355 c 0,30,31
 101 355 101 355 101 372 c 2,32,-1
 101 376 l 2,33,34
 101 403 101 403 149 458 c 0,35,36
 242 563 242 563 379 594 c 0,37,38
 427 605 427 605 476 605 c 0,0,1
EndSplineSet
EndChar

StartChar: uni60C3
Encoding: 24771 24771 154
Width: 522
Flags: W
LayerCount: 2
Fore
SplineSet
90 697 m 0,0,1
 90 709 90 709 164 784 c 0,2,3
 230 851 230 851 245 851 c 0,4,5
 258 851 258 851 341 765 c 0,6,7
 397 706 397 706 397 697 c 0,8,9
 397 682 397 682 309 598 c 0,10,11
 253 544 253 544 244 544 c 0,12,13
 229 544 229 544 148 627 c 0,14,15
 90 686 90 686 90 697 c 0,0,1
101 175 m 0,16,17
 101 207 101 207 164 277 c 0,18,19
 237 359 237 359 289 370 c 0,20,21
 295 371 295 371 300 371 c 0,22,23
 328 371 328 371 363 304 c 0,24,25
 409 217 409 217 409 136 c 0,26,27
 409 6 409 6 299 -138 c 0,28,29
 226 -234 226 -234 156 -270 c 0,30,31
 134 -282 134 -282 118 -282 c 0,32,33
 100 -282 100 -282 100 -264 c 0,34,35
 100 -240 100 -240 131 -201 c 0,36,37
 172 -149 172 -149 183 -108 c 0,38,39
 190 -80 190 -80 190 -49 c 0,40,41
 190 69 190 69 108 154 c 0,42,43
 101 161 101 161 101 169 c 0,44,45
 101 171 101 171 101 175 c 0,16,17
EndSplineSet
EndChar

